<svg width="100" height="100" viewBox="0 0 100 100" fill="none" xmlns="http://www.w3.org/2000/svg">
<path d="M68 56C66 62 63.334 70 58 70C53.25 70 46 62 46 44C46 34.834 48.006 24 52 24C54.584 24 58 32 58 44C58 58 52 74 40 74C35.458 74 30 70.666 30 62C30 51.5 37.416 50 40 50C41.922 50 45.334 51.126 46.79 53.602" stroke="black" stroke-width="3" stroke-miterlimit="10" stroke-linecap="round" stroke-linejoin="round"/>
<path d="M50 6C38.3305 6 27.1389 10.6357 18.8873 18.8873C10.6357 27.1389 6 38.3305 6 50C6 61.6695 10.6357 72.8611 18.8873 81.1127C27.1389 89.3643 38.3305 94 50 94C61.6695 94 72.8611 89.3643 81.1127 81.1127C89.3643 72.8611 94 61.6695 94 50C94 38.3305 89.3643 27.1389 81.1127 18.8873C72.8611 10.6357 61.6695 6 50 6V6Z" stroke="black" stroke-width="3" stroke-miterlimit="10" stroke-linecap="round"/>
</svg>
