<?xml version="1.0" encoding="utf-8"?>
<!-- Generator: Adobe Illustrator 25.2.0, SVG Export Plug-In . SVG Version: 6.00 Build 0)  -->
<svg version="1.1" id="Layer_1" xmlns="http://www.w3.org/2000/svg" xmlns:xlink="http://www.w3.org/1999/xlink" x="0px" y="0px"
	 viewBox="0 0 157 69" style="enable-background:new 0 0 157 69;" xml:space="preserve">
<style type="text/css">
	.st0{opacity:0.5;}
</style>
<g class="st0">
	<path d="M14.6,17.5l-0.3,0.4l0,0L14.6,17.5z M14.6,23.7l-0.3-0.4l0,0L14.6,23.7z M6.8,23.7l0.3-0.4l0,0L6.8,23.7z M6.8,17.5
		l0.3,0.4l0,0L6.8,17.5z M15.9,52.3l-0.4,0.3l0,0l0,0L15.9,52.3z M18,53h0.5v-0.5H18V53z M18,54l0,0.5l0.5,0V54H18z M4,54H3.5v0.5
		l0.5,0L4,54z M4,53v-0.5H3.5V53H4z M6.1,52.3L5.7,52l0,0L6.1,52.3z M6.1,31.1l-0.4,0.2l0,0l0,0L6.1,31.1z M4,30.1H3.5v0.5H4V30.1z
		 M4,29.1l0-0.5l-0.5-0.1v0.5H4z M15.3,28.6h0.5V28l-0.6,0.1L15.3,28.6z M10.7,17c1.6,0,2.8,0.3,3.5,0.9l0.6-0.8
		c-1-0.8-2.4-1.2-4.1-1.2V17z M14.3,17.9c0.8,0.6,1.2,1.5,1.2,2.7h1c0-1.5-0.5-2.7-1.6-3.5L14.3,17.9z M15.5,20.6
		c0,1.2-0.4,2.1-1.2,2.7l0.6,0.8c1.1-0.8,1.6-2,1.6-3.5H15.5z M14.3,23.3c-0.8,0.6-1.9,0.9-3.5,0.9v1c1.7,0,3.1-0.4,4.1-1.2
		L14.3,23.3z M10.7,24.2c-1.6,0-2.8-0.3-3.6-0.9l-0.6,0.8c1,0.8,2.4,1.2,4.2,1.2V24.2z M7.1,23.3C6.4,22.7,6,21.8,6,20.6H5
		c0,1.5,0.5,2.6,1.5,3.5L7.1,23.3z M6,20.6c0-1.2,0.4-2.1,1.2-2.7l-0.6-0.8c-1,0.8-1.5,2-1.5,3.5H6z M7.1,17.9
		c0.8-0.6,1.9-0.9,3.6-0.9v-1c-1.8,0-3.2,0.4-4.2,1.2L7.1,17.9z M14.8,49.5c0,1.3,0.2,2.4,0.7,3l0.8-0.6c-0.3-0.4-0.5-1.1-0.5-2.4
		H14.8z M15.5,52.6c0.6,0.6,1.4,0.9,2.5,0.9v-1c-0.9,0-1.5-0.2-1.7-0.5L15.5,52.6z M17.5,53v1h1v-1H17.5z M18,53.5
		c-3.5-0.1-5.7-0.2-6.8-0.2v1c1.1,0,3.3,0.1,6.8,0.2L18,53.5z M11.2,53.3c-1.1,0-3.5,0.1-7.2,0.2l0,1c3.7-0.1,6.1-0.2,7.2-0.2V53.3z
		 M4.5,54v-1h-1v1H4.5z M4,53.5c1.1,0,1.9-0.3,2.5-0.9L5.7,52c-0.2,0.3-0.7,0.5-1.7,0.5V53.5z M6.5,52.6c0.5-0.7,0.7-1.7,0.7-3.1h-1
		c0,1.3-0.2,2.1-0.5,2.4L6.5,52.6z M7.2,49.5V34.3h-1v15.2H7.2z M7.2,34.3c0-1.5-0.2-2.7-0.7-3.5l-0.9,0.5c0.3,0.6,0.5,1.5,0.5,3
		H7.2z M6.5,30.9C6,30,5.1,29.6,4,29.6v1c0.9,0,1.4,0.3,1.6,0.8L6.5,30.9z M4.5,30.1v-1h-1v1H4.5z M4,29.6c1,0.1,2,0.1,3,0.1v-1
		c-0.9,0-1.9,0-2.9-0.1L4,29.6z M7,29.7c3.3,0,6.2-0.2,8.5-0.7l-0.2-1c-2.2,0.4-4.9,0.7-8.3,0.7V29.7z M14.8,28.6v21h1v-21H14.8z
		 M30.9,29.1h-0.5v0.5h0.5V29.1z M35.6,29.1h0.5v-0.5h-0.5V29.1z M35.6,30v0.5h0.5V30H35.6z M30.9,30v-0.5h-0.5V30H30.9z M33.7,51.4
		l0.2,0.5l0,0L33.7,51.4z M35,50.3l0.3-0.4l-0.4-0.3L34.6,50L35,50.3z M35.7,50.9l0.4,0.3l0.2-0.4L36,50.5L35.7,50.9z M23.9,53
		l0.4-0.4l0,0L23.9,53z M22.6,50.5l-0.5,0.1l0,0l0,0L22.6,50.5z M22.3,30h0.5v-0.5h-0.5V30z M18.7,30h-0.5v0.5h0.5V30z M18.7,29.1
		v-0.5h-0.5v0.5H18.7z M22.3,29.1v0.5h0.5v-0.5H22.3z M22.3,23.4v-0.5h-0.5v0.5H22.3z M27,22.9l0.1,0.5l0,0L27,22.9z M30.9,21.3h0.5
		v-0.9l-0.8,0.4L30.9,21.3z M30.9,29.6h4.7v-1h-4.7V29.6z M35.1,29.1v1h1v-1H35.1z M35.6,29.5h-4.7v1h4.7V29.5z M30.4,30V50h1V30
		H30.4z M30.4,50c0,0.7,0.1,1.3,0.5,1.7l0.8-0.7c-0.1-0.1-0.2-0.4-0.2-1H30.4z M30.9,51.6c0.4,0.4,0.9,0.6,1.5,0.6v-1
		c-0.4,0-0.6-0.1-0.7-0.2L30.9,51.6z M32.4,52.2c0.5,0,1-0.1,1.5-0.4l-0.4-0.9c-0.4,0.2-0.8,0.3-1.1,0.3V52.2z M33.9,51.8
		c0.6-0.3,1.1-0.7,1.5-1.2L34.6,50c-0.3,0.4-0.7,0.7-1.1,0.9L33.9,51.8z M34.7,50.7l0.7,0.6l0.6-0.8l-0.7-0.6L34.7,50.7z M35.3,50.6
		c-1.4,2.4-3.5,3.5-6.4,3.5v1c3.2,0,5.7-1.3,7.2-4L35.3,50.6z M28.9,54.2c-2.1,0-3.6-0.5-4.6-1.5l-0.7,0.7c1.2,1.2,3,1.8,5.3,1.8
		V54.2z M24.3,52.7c-0.6-0.6-1-1.3-1.2-2.3l-1,0.2c0.2,1.1,0.7,2,1.5,2.7L24.3,52.7z M23.1,50.4c-0.2-0.9-0.3-2.3-0.3-4.1h-1
		c0,1.8,0.1,3.2,0.3,4.3L23.1,50.4z M22.8,46.4V30h-1v16.3H22.8z M22.3,29.5h-3.6v1h3.6V29.5z M19.2,30v-1h-1v1H19.2z M18.7,29.6
		h3.6v-1h-3.6V29.6z M22.8,29.1v-5.7h-1v5.7H22.8z M22.3,23.9c1.8,0,3.3-0.2,4.8-0.5l-0.2-1c-1.3,0.3-2.8,0.5-4.5,0.5V23.9z
		 M27.1,23.4c1.5-0.4,2.8-0.9,4.1-1.7l-0.5-0.9c-1.2,0.7-2.5,1.2-3.9,1.6L27.1,23.4z M30.4,21.3v7.8h1v-7.8H30.4z M38.2,52.7
		L37.8,53l0,0l0,0L38.2,52.7z M37.8,45l-0.4-0.3l0,0L37.8,45z M40.5,42.8l-0.2-0.4l0,0L40.5,42.8z M44.5,41.2l-0.2-0.5l0,0
		L44.5,41.2z M48.2,39.6l0.3,0.4l0,0L48.2,39.6z M48.7,30.6l0.4-0.3l0,0L48.7,30.6z M43.4,30.2l-0.3-0.4l-0.8,0.6l0.9,0.3L43.4,30.2
		z M45.8,31.9l-0.4,0.3l0,0l0,0L45.8,31.9z M45.2,37.4l0.3,0.4l0,0L45.2,37.4z M39.1,37.4l-0.4,0.3l0,0l0,0L39.1,37.4z M38.7,31.9
		l-0.4-0.3l0,0L38.7,31.9z M41,30l0.2,0.4l0,0L41,30z M53.2,28.9l-0.1,0.5l0,0L53.2,28.9z M56.5,30.8l0.4-0.3l0,0L56.5,30.8z
		 M57.8,33.4l-0.5,0.1l0,0l0,0L57.8,33.4z M58.2,52l-0.5,0.2l0,0l0,0L58.2,52z M59.6,52.3l0.2,0.4l0,0l0,0L59.6,52.3z M60.3,51.7
		l0.4-0.3L60.4,51L60,51.4L60.3,51.7z M60.8,52.6l0.3,0.4l0.3-0.3l-0.2-0.4L60.8,52.6z M50.8,53.4l-0.3,0.4l0,0L50.8,53.4z
		 M49.6,50.7l0.5,0L50,49.1l-0.8,1.3L49.6,50.7z M49.4,49.7l0.4,0.3l0.1-0.1v-0.2H49.4z M49.4,39.6h0.5v-1.8L49,39.3L49.4,39.6z
		 M47.9,41.4l0.3,0.4l0,0L47.9,41.4z M45.9,43.9l0.4,0.3l0,0L45.9,43.9z M42.9,53.8c-2,0-3.4-0.5-4.3-1.5l-0.7,0.7
		c1.2,1.2,2.9,1.8,5,1.8V53.8z M38.6,52.4c-0.9-1-1.4-2.3-1.4-3.8h-1c0,1.8,0.6,3.3,1.7,4.5L38.6,52.4z M37.2,48.5
		c0-1.4,0.3-2.4,1-3.2l-0.8-0.6c-0.8,1-1.2,2.3-1.2,3.9H37.2z M38.2,45.3c0.7-0.9,1.6-1.6,2.5-2.1l-0.4-0.9c-1.1,0.5-2,1.3-2.9,2.3
		L38.2,45.3z M40.7,43.2c1-0.5,2.3-1,3.9-1.6l-0.3-0.9c-1.6,0.5-3,1.1-4,1.6L40.7,43.2z M44.6,41.7c1.7-0.6,3-1.1,3.9-1.6L48,39.2
		c-0.8,0.5-2,1-3.7,1.5L44.6,41.7z M48.5,40c0.9-0.6,1.4-1.4,1.4-2.4h-1c0,0.7-0.3,1.2-1,1.6L48.5,40z M49.9,37.6v-4.3h-1v4.3H49.9z
		 M49.9,33.3c0-1.1-0.3-2.1-0.8-3l-0.8,0.5c0.5,0.7,0.7,1.5,0.7,2.5H49.9z M49.1,30.3c-0.6-1-1.7-1.4-3.1-1.4v1c1.1,0,1.8,0.4,2.2,1
		L49.1,30.3z M46,28.9c-1.1,0-2.1,0.3-3,0.9l0.6,0.8c0.7-0.5,1.5-0.7,2.4-0.7V28.9z M43.2,30.7c1,0.4,1.7,0.9,2.2,1.5l0.8-0.6
		c-0.6-0.9-1.5-1.5-2.6-1.9L43.2,30.7z M45.4,32.2c0.5,0.6,0.7,1.4,0.7,2.2h1c0-1-0.3-2-0.9-2.8L45.4,32.2z M46.1,34.4
		c0,1.1-0.4,2-1.2,2.6l0.7,0.8c1-0.9,1.5-2,1.5-3.4H46.1z M44.9,37.1c-0.8,0.7-1.7,1-2.8,1v1c1.4,0,2.5-0.4,3.5-1.2L44.9,37.1z
		 M42.1,38c-1.1,0-2-0.3-2.6-1l-0.7,0.7c0.8,0.9,2,1.3,3.3,1.3V38z M39.5,37.1c-0.6-0.7-0.9-1.6-0.9-2.7h-1c0,1.3,0.4,2.5,1.2,3.4
		L39.5,37.1z M38.5,34.4c0-0.9,0.2-1.6,0.6-2.2l-0.8-0.6c-0.5,0.8-0.8,1.7-0.8,2.8H38.5z M39.2,32.2c0.4-0.6,1.1-1.2,2.1-1.8
		l-0.5-0.9c-1.1,0.6-1.9,1.3-2.4,2.1L39.2,32.2z M41.2,30.4c1.7-1,4.1-1.5,7.4-1.5v-1c-3.4,0-6,0.5-7.9,1.6L41.2,30.4z M48.7,28.9
		c1.7,0,3.2,0.2,4.4,0.5l0.3-1c-1.3-0.4-2.9-0.5-4.7-0.5V28.9z M53.1,29.4c1.2,0.3,2.2,0.9,3,1.7l0.7-0.7c-1-1-2.1-1.7-3.5-2
		L53.1,29.4z M56.1,31.2c0.6,0.6,0.9,1.4,1.1,2.3l1-0.2c-0.2-1.1-0.7-2-1.4-2.8L56.1,31.2z M57.3,33.5c0.2,0.9,0.3,2.3,0.3,4.1h1
		c0-1.8-0.1-3.2-0.3-4.3L57.3,33.5z M57.6,37.5v12.9h1V37.5H57.6z M57.6,50.4c0,0.8,0,1.4,0.2,1.8l0.9-0.3c-0.1-0.2-0.1-0.7-0.1-1.5
		H57.6z M57.8,52.2c0.1,0.2,0.2,0.4,0.4,0.5c0.2,0.1,0.4,0.2,0.7,0.2v-1c-0.1,0-0.1,0-0.1,0c0,0,0,0-0.1-0.1L57.8,52.2z M58.9,53
		c0.3,0,0.6-0.1,0.9-0.2l-0.4-0.9C59.1,51.9,59,52,58.9,52V53z M59.8,52.7c0.3-0.2,0.5-0.4,0.8-0.6L60,51.4
		c-0.2,0.2-0.4,0.3-0.7,0.5L59.8,52.7z M59.9,52l0.5,0.8l0.9-0.5l-0.5-0.8L59.9,52z M60.5,52.2c-1.3,1.1-3.1,1.7-5.6,1.7v1
		c2.6,0,4.7-0.6,6.2-1.9L60.5,52.2z M54.9,53.8c-1.9,0-3.1-0.3-3.7-0.8l-0.6,0.8c0.9,0.8,2.4,1.1,4.4,1.1V53.8z M51.2,53
		c-0.7-0.6-1-1.3-1.1-2.3l-1,0.1c0.1,1.2,0.5,2.3,1.4,3L51.2,53z M49.2,50.4c-1.4,2.3-3.5,3.4-6.3,3.4v1c3.1,0,5.5-1.3,7.1-3.9
		L49.2,50.4z M47.7,51c0.8,0,1.5-0.3,2.1-1l-0.7-0.7c-0.4,0.5-0.9,0.7-1.4,0.7V51z M49.9,49.7V39.6h-1v10.1H49.9z M49,39.3
		c-0.3,0.4-0.7,1-1.5,1.8l0.7,0.7c0.8-0.8,1.3-1.4,1.7-2L49,39.3z M47.5,41.1c-0.9,0.9-1.6,1.7-2.1,2.6l0.9,0.5
		c0.4-0.7,1-1.5,1.9-2.3L47.5,41.1z M45.5,43.6c-0.5,0.9-0.7,2-0.7,3.4h1c0-1.3,0.2-2.3,0.6-2.9L45.5,43.6z M44.7,47
		c0,1.2,0.2,2.2,0.7,2.9c0.5,0.7,1.3,1.1,2.2,1.1v-1c-0.7,0-1.1-0.2-1.4-0.7c-0.3-0.5-0.5-1.2-0.5-2.3H44.7z M102.5,52.3l-0.4,0.3
		l0,0l0,0L102.5,52.3z M104.6,53h0.5v-0.5h-0.5V53z M104.6,54l0,0.5l0.5,0V54H104.6z M91.5,54H91v0.5l0.5,0L91.5,54z M91.5,53v-0.5
		H91V53H91.5z M92.9,52.3L92.4,52l0,0L92.9,52.3z M92.7,31.7L92.2,32l0,0l0,0L92.7,31.7z M88.6,32l-0.4-0.4l0,0L88.6,32z M87.3,34.5
		l-0.5-0.1l0,0.1l0,0.1L87.3,34.5z M89.6,53h0.5v-0.5h-0.5V53z M89.6,54l0,0.5l0.5,0V54H89.6z M77.1,54h-0.5v0.5l0.5,0L77.1,54z
		 M77.1,53v-0.5h-0.5V53H77.1z M78.4,52.3l0.4,0.2l0,0L78.4,52.3z M78.4,31.7l-0.4,0.2l0,0L78.4,31.7z M74.5,31.9l0.3,0.4l0,0
		L74.5,31.9z M73.8,52.3l0.4-0.2l0,0L73.8,52.3z M75.2,53h0.5v-0.5h-0.5V53z M75.2,54l0,0.5l0.5,0V54H75.2z M62.1,54h-0.5v0.5l0.5,0
		L62.1,54z M62.1,53v-0.5h-0.5V53H62.1z M64.2,52.3L63.8,52l0,0L64.2,52.3z M64.2,31.1l-0.4,0.2l0,0l0,0L64.2,31.1z M62.1,30.1h-0.5
		v0.5h0.5V30.1z M62.1,29.1l0-0.5l-0.5-0.1v0.5H62.1z M73.5,28.6H74V28l-0.6,0.1L73.5,28.6z M73.5,32H73v1.9l0.9-1.7L73.5,32z
		 M86,30.3l-0.4,0.3l0,0L86,30.3z M87.1,32.6l-0.5,0.1l0.3,1.3l0.6-1.2L87.1,32.6z M90.3,29.4l0.2,0.5l0,0L90.3,29.4z M100.5,30.3
		l-0.4,0.3l0,0L100.5,30.3z M101.5,32.7l-0.5,0.1l0,0L101.5,32.7z M101.4,49.5c0,1.3,0.2,2.4,0.7,3l0.8-0.6
		c-0.3-0.4-0.5-1.1-0.5-2.4H101.4z M102.1,52.6c0.6,0.6,1.4,0.9,2.5,0.9v-1c-0.9,0-1.5-0.2-1.7-0.5L102.1,52.6z M104.1,53v1h1v-1
		H104.1z M104.6,53.5c-3.5-0.1-5.7-0.2-6.7-0.2v1c1,0,3.2,0.1,6.7,0.2L104.6,53.5z M97.8,53.3c-1,0-3.2,0.1-6.4,0.2l0,1
		c3.2-0.1,5.3-0.2,6.3-0.2V53.3z M92,54v-1h-1v1H92z M91.5,53.5c0.8,0,1.4-0.3,1.8-1L92.4,52c-0.2,0.3-0.4,0.5-0.9,0.5V53.5z
		 M93.3,52.5c0.2-0.3,0.3-0.7,0.3-1.2c0.1-0.5,0.1-1.1,0.1-1.8h-1c0,0.7,0,1.2-0.1,1.6c-0.1,0.4-0.1,0.7-0.2,0.9L93.3,52.5z
		 M93.7,49.5V33.9h-1v15.6H93.7z M93.7,33.9c0-1.1-0.2-2-0.7-2.6L92.3,32c0.3,0.3,0.5,1,0.5,1.9H93.7z M93.1,31.4
		c-0.5-0.7-1.3-1-2.2-1v1c0.7,0,1.1,0.2,1.4,0.6L93.1,31.4z M90.9,30.4c-1,0-1.9,0.4-2.7,1.2l0.7,0.7c0.6-0.6,1.3-0.9,2-0.9V30.4z
		 M88.2,31.6c-0.7,0.8-1.2,1.7-1.4,2.8l1,0.2c0.1-0.9,0.5-1.6,1.1-2.2L88.2,31.6z M86.8,34.5c0.1,0.8,0.1,1.4,0.1,2h1
		c0-0.6,0-1.3-0.1-2.1L86.8,34.5z M86.9,36.5v13h1v-13H86.9z M86.9,49.5c0,0.7,0,1.3,0.1,1.8c0.1,0.5,0.2,0.9,0.4,1.2l0.8-0.6
		c-0.1-0.2-0.2-0.4-0.3-0.9c-0.1-0.4-0.1-1-0.1-1.6H86.9z M87.5,52.5c0.4,0.7,1.2,0.9,2.1,0.9v-1c-0.7,0-1.1-0.2-1.3-0.5L87.5,52.5z
		 M89.1,53v1h1v-1H89.1z M89.7,53.5c-3.2-0.1-5.3-0.2-6.3-0.2v1c0.9,0,3,0.1,6.2,0.2L89.7,53.5z M83.4,53.3c-1,0-3.2,0.1-6.4,0.2
		l0,1c3.2-0.1,5.3-0.2,6.3-0.2V53.3z M77.6,54v-1h-1v1H77.6z M77.1,53.5c0.8,0,1.4-0.3,1.8-1L78,52c-0.2,0.3-0.4,0.5-0.9,0.5V53.5z
		 M78.9,52.5c0.3-0.6,0.4-1.6,0.4-3h-1c0,1.3-0.1,2.1-0.3,2.5L78.9,52.5z M79.3,49.5V33.9h-1v15.6H79.3z M79.3,33.9
		c0-1.1-0.1-1.9-0.5-2.5l-0.9,0.5c0.2,0.4,0.4,1,0.4,2H79.3z M78.8,31.4c-0.4-0.7-1.1-1-1.9-1v1c0.5,0,0.8,0.2,1,0.5L78.8,31.4z
		 M76.9,30.4c-1.1,0-2,0.4-2.8,1.1l0.7,0.7c0.6-0.6,1.3-0.9,2.1-0.9V30.4z M74.1,31.6c-0.8,0.7-1.2,1.7-1.2,2.8h1
		c0-0.9,0.3-1.5,0.9-2.1L74.1,31.6z M73,34.4v15.2h1V34.4H73z M73,49.5c0,0.7,0,1.3,0.1,1.8c0.1,0.5,0.2,0.9,0.3,1.2l0.9-0.5
		c-0.1-0.2-0.2-0.4-0.2-0.9c-0.1-0.4-0.1-1-0.1-1.6H73z M73.4,52.5c0.4,0.7,1,1,1.8,1v-1c-0.5,0-0.8-0.2-0.9-0.5L73.4,52.5z
		 M74.7,53v1h1v-1H74.7z M75.2,53.5c-2.9-0.1-4.9-0.2-5.9-0.2v1c0.9,0,2.9,0.1,5.8,0.2L75.2,53.5z M69.3,53.3
		c-1.1,0-3.5,0.1-7.2,0.2l0,1c3.7-0.1,6.1-0.2,7.2-0.2V53.3z M62.6,54v-1h-1v1H62.6z M62.1,53.5c1.1,0,1.9-0.3,2.5-0.9L63.8,52
		c-0.2,0.3-0.7,0.5-1.7,0.5V53.5z M64.6,52.6c0.5-0.7,0.7-1.7,0.7-3.1h-1c0,1.3-0.2,2.1-0.5,2.4L64.6,52.6z M65.3,49.5V34.3h-1v15.2
		H65.3z M65.3,34.3c0-1.5-0.2-2.7-0.7-3.5l-0.9,0.5c0.3,0.6,0.5,1.5,0.5,3H65.3z M64.6,30.9c-0.5-0.9-1.4-1.3-2.5-1.3v1
		c0.9,0,1.4,0.3,1.6,0.8L64.6,30.9z M62.6,30.1v-1h-1v1H62.6z M62.1,29.6c1,0.1,2,0.1,3,0.1v-1c-0.9,0-1.9,0-2.9-0.1L62.1,29.6z
		 M65.1,29.7c3.3,0,6.2-0.2,8.5-0.7l-0.2-1c-2.2,0.4-4.9,0.7-8.3,0.7V29.7z M73,28.6V32h1v-3.5H73z M73.9,32.3
		c1.2-2.2,3.4-3.3,6.7-3.3v-1c-3.6,0-6.1,1.3-7.6,3.9L73.9,32.3z M80.6,28.9c2.5,0,4.1,0.6,5,1.7l0.8-0.6c-1.2-1.4-3.2-2.1-5.8-2.1
		V28.9z M85.7,30.7c0.4,0.5,0.7,1.2,1,2.1l1-0.2c-0.2-1-0.6-1.8-1.2-2.5L85.7,30.7z M87.5,32.8c0.8-1.5,1.7-2.4,2.9-3l-0.4-0.9
		c-1.4,0.7-2.6,1.8-3.4,3.4L87.5,32.8z M90.5,29.8c1.3-0.6,2.8-0.9,4.6-0.9v-1c-1.9,0-3.6,0.3-5,1L90.5,29.8z M95.1,28.9
		c2.5,0,4.1,0.6,5,1.7l0.8-0.6c-1.2-1.4-3.2-2.1-5.8-2.1V28.9z M100.1,30.7c0.4,0.5,0.7,1.2,1,2.1l1-0.2c-0.2-1-0.6-1.9-1.2-2.6
		L100.1,30.7z M101.1,32.8c0.2,0.9,0.3,2.1,0.3,3.7h1c0-1.6-0.1-2.9-0.3-4L101.1,32.8z M101.4,36.5v13h1v-13H101.4z M107.7,52.7
		l-0.4,0.3l0,0l0,0L107.7,52.7z M107.3,45l-0.4-0.3l0,0L107.3,45z M109.9,42.8l-0.2-0.4l0,0L109.9,42.8z M113.9,41.2l-0.2-0.5l0,0
		L113.9,41.2z M117.7,39.6L118,40l0,0L117.7,39.6z M118.2,30.6l0.4-0.3l0,0L118.2,30.6z M112.8,30.2l-0.3-0.4l-0.8,0.6l0.9,0.3
		L112.8,30.2z M115.2,31.9l-0.4,0.3l0,0l0,0L115.2,31.9z M114.7,37.4l0.3,0.4l0,0L114.7,37.4z M108.6,37.4l-0.4,0.3l0,0l0,0
		L108.6,37.4z M108.2,31.9l-0.4-0.3l0,0L108.2,31.9z M110.5,30l0.2,0.4l0,0L110.5,30z M122.7,28.9l-0.1,0.5l0,0L122.7,28.9z
		 M126,30.8l0.4-0.3l0,0L126,30.8z M127.2,33.4l-0.5,0.1l0,0l0,0L127.2,33.4z M127.7,52l-0.5,0.2l0,0l0,0L127.7,52z M129,52.3
		l0.2,0.4l0,0l0,0L129,52.3z M129.8,51.7l0.4-0.3l-0.3-0.5l-0.5,0.4L129.8,51.7z M130.2,52.6l0.3,0.4l0.3-0.3l-0.2-0.4L130.2,52.6z
		 M120.3,53.4l-0.3,0.4l0,0L120.3,53.4z M119.1,50.7l0.5,0l-0.1-1.6l-0.8,1.3L119.1,50.7z M118.9,49.7l0.4,0.3l0.1-0.1v-0.2H118.9z
		 M118.9,39.6h0.5v-1.8l-0.9,1.5L118.9,39.6z M117.3,41.4l0.3,0.4l0,0L117.3,41.4z M115.4,43.9l0.4,0.3l0,0L115.4,43.9z M112.3,53.8
		c-2,0-3.4-0.5-4.3-1.5l-0.7,0.7c1.2,1.2,2.9,1.8,5,1.8V53.8z M108.1,52.4c-0.9-1-1.4-2.3-1.4-3.8h-1c0,1.8,0.5,3.3,1.7,4.5
		L108.1,52.4z M106.7,48.5c0-1.4,0.3-2.4,1-3.2l-0.8-0.6c-0.8,1-1.2,2.3-1.2,3.9H106.7z M107.6,45.3c0.7-0.9,1.6-1.6,2.5-2.1
		l-0.4-0.9c-1.1,0.5-2,1.3-2.9,2.3L107.6,45.3z M110.2,43.2c1-0.5,2.3-1,3.9-1.6l-0.3-0.9c-1.6,0.5-3,1.1-4,1.6L110.2,43.2z
		 M114.1,41.7c1.7-0.6,3-1.1,3.9-1.6l-0.5-0.9c-0.8,0.5-2,1-3.7,1.5L114.1,41.7z M118,40c0.9-0.6,1.4-1.4,1.4-2.4h-1
		c0,0.7-0.3,1.2-1,1.6L118,40z M119.4,37.6v-4.3h-1v4.3H119.4z M119.4,33.3c0-1.1-0.3-2.1-0.8-3l-0.8,0.5c0.5,0.7,0.7,1.5,0.7,2.5
		H119.4z M118.6,30.3c-0.6-1-1.7-1.4-3.1-1.4v1c1.1,0,1.8,0.4,2.2,1L118.6,30.3z M115.5,28.9c-1.1,0-2.1,0.3-3,0.9l0.6,0.8
		c0.7-0.5,1.5-0.7,2.4-0.7V28.9z M112.7,30.7c1,0.4,1.7,0.9,2.2,1.5l0.8-0.6c-0.6-0.9-1.5-1.5-2.7-1.9L112.7,30.7z M114.8,32.2
		c0.5,0.6,0.7,1.4,0.7,2.2h1c0-1-0.3-2-0.9-2.8L114.8,32.2z M115.5,34.4c0,1.1-0.4,2-1.2,2.6l0.7,0.8c1-0.9,1.5-2,1.5-3.4H115.5z
		 M114.4,37.1c-0.8,0.7-1.7,1-2.8,1v1c1.4,0,2.5-0.4,3.5-1.2L114.4,37.1z M111.5,38c-1.1,0-2-0.3-2.6-1l-0.7,0.7
		c0.8,0.9,2,1.3,3.3,1.3V38z M108.9,37.1c-0.6-0.7-0.9-1.6-0.9-2.7h-1c0,1.3,0.4,2.5,1.2,3.4L108.9,37.1z M108,34.4
		c0-0.9,0.2-1.6,0.6-2.2l-0.8-0.6c-0.5,0.8-0.8,1.7-0.8,2.8H108z M108.6,32.2c0.4-0.6,1.1-1.2,2.1-1.8l-0.5-0.9
		c-1.1,0.6-1.9,1.3-2.4,2.1L108.6,32.2z M110.7,30.4c1.7-1,4.1-1.5,7.4-1.5v-1c-3.4,0-6,0.5-7.9,1.6L110.7,30.4z M118.2,28.9
		c1.7,0,3.2,0.2,4.4,0.5l0.3-1c-1.3-0.4-2.9-0.5-4.7-0.5V28.9z M122.6,29.4c1.2,0.3,2.2,0.9,3,1.7l0.7-0.7c-1-1-2.1-1.7-3.5-2
		L122.6,29.4z M125.6,31.2c0.6,0.6,0.9,1.4,1.1,2.3l1-0.2c-0.2-1.1-0.7-2-1.4-2.8L125.6,31.2z M126.7,33.5c0.2,0.9,0.3,2.3,0.3,4.1
		h1c0-1.8-0.1-3.2-0.3-4.3L126.7,33.5z M127.1,37.5v12.9h1V37.5H127.1z M127.1,50.4c0,0.8,0,1.4,0.2,1.8l0.9-0.3
		c-0.1-0.2-0.1-0.7-0.1-1.5H127.1z M127.2,52.2c0.1,0.2,0.2,0.4,0.4,0.5c0.2,0.1,0.4,0.2,0.7,0.2v-1c-0.1,0-0.1,0-0.1,0
		c0,0,0,0-0.1-0.1L127.2,52.2z M128.3,53c0.3,0,0.6-0.1,0.9-0.2l-0.4-0.9c-0.2,0.1-0.4,0.1-0.5,0.1V53z M129.3,52.7
		c0.3-0.2,0.5-0.4,0.8-0.6l-0.7-0.8c-0.2,0.2-0.4,0.3-0.7,0.5L129.3,52.7z M129.3,52l0.5,0.8l0.9-0.5l-0.5-0.8L129.3,52z
		 M129.9,52.2c-1.3,1.1-3.1,1.7-5.6,1.7v1c2.6,0,4.7-0.6,6.2-1.9L129.9,52.2z M124.3,53.8c-1.9,0-3.1-0.3-3.7-0.8l-0.6,0.8
		c0.9,0.8,2.4,1.1,4.4,1.1V53.8z M120.6,53c-0.7-0.6-1-1.3-1.1-2.3l-1,0.1c0.1,1.2,0.5,2.3,1.4,3L120.6,53z M118.6,50.4
		c-1.4,2.3-3.5,3.4-6.3,3.4v1c3.1,0,5.5-1.3,7.1-3.9L118.6,50.4z M117.1,51c0.8,0,1.5-0.3,2.1-1l-0.7-0.7c-0.4,0.5-0.9,0.7-1.4,0.7
		V51z M119.4,49.7V39.6h-1v10.1H119.4z M118.5,39.3c-0.3,0.4-0.7,1-1.5,1.8l0.7,0.7c0.8-0.8,1.3-1.4,1.7-2L118.5,39.3z M117,41.1
		c-0.9,0.9-1.6,1.7-2.1,2.6l0.9,0.5c0.4-0.7,1-1.5,1.9-2.3L117,41.1z M114.9,43.6c-0.5,0.9-0.7,2-0.7,3.4h1c0-1.3,0.2-2.3,0.6-2.9
		L114.9,43.6z M114.2,47c0,1.2,0.2,2.2,0.7,2.9c0.5,0.7,1.3,1.1,2.2,1.1v-1c-0.7,0-1.1-0.2-1.4-0.7c-0.3-0.5-0.5-1.2-0.5-2.3H114.2z
		 M152.4,46.2l0.2-0.5l-0.4-0.1l-0.2,0.3L152.4,46.2z M153.2,46.5l0.5,0.1l0.1-0.5l-0.5-0.2L153.2,46.5z M149.6,52.3l-0.3-0.4l0,0
		L149.6,52.3z M135.1,51.6l0.4-0.3l0,0L135.1,51.6z M135.4,31.7l0.3,0.4l0,0L135.4,31.7z M153.5,39.2v0.5h0.5v-0.5H153.5z
		 M141.1,39.2v-0.5h-0.5l0,0.5L141.1,39.2z M142.6,47.5l-0.4,0.3l0,0L142.6,47.5z M140.9,38.3l-0.5,0l0,0.5h0.5V38.3z M146.5,38.3
		v0.5h0.5l0-0.5L146.5,38.3z M145.9,32l-0.5,0.1l0,0L145.9,32z M146.6,49.9c2.5,0,4.6-1.2,6.2-3.4l-0.8-0.6c-1.5,2-3.2,3-5.4,3V49.9
		z M152.2,46.7L153,47l0.3-0.9l-0.8-0.3L152.2,46.7z M152.7,46.4c-0.7,2.2-1.8,4-3.5,5.5l0.7,0.7c1.8-1.7,3-3.7,3.7-6L152.7,46.4z
		 M149.3,51.9c-1.6,1.5-3.6,2.3-6.1,2.3v1c2.7,0,5-0.8,6.8-2.5L149.3,51.9z M143.2,54.2c-3.2,0-5.8-1-7.7-3l-0.7,0.7
		c2.1,2.2,5,3.3,8.4,3.3V54.2z M135.5,51.2c-1.9-1.9-2.9-5.1-2.9-9.6h-1c0,4.6,1,8.1,3.2,10.3L135.5,51.2z M132.6,41.6
		c0-4.3,1.1-7.4,3.2-9.5l-0.7-0.7c-2.4,2.3-3.5,5.7-3.5,10.2H132.6z M135.8,32.1c2.2-2.1,5-3.2,8.6-3.2v-1c-3.8,0-6.9,1.1-9.3,3.5
		L135.8,32.1z M144.4,28.9c2.9,0,5,0.9,6.4,2.5c1.4,1.7,2.2,4.2,2.2,7.7h1c0-3.6-0.8-6.5-2.4-8.4c-1.6-1.9-4.1-2.9-7.2-2.9V28.9z
		 M153.5,38.7h-12.4v1h12.4V38.7z M140.6,39.1c0,0.4,0,1,0,1.8h1c0-0.8,0-1.3,0-1.7L140.6,39.1z M140.6,40.9c0,3.1,0.5,5.4,1.7,6.9
		l0.8-0.6c-0.9-1.2-1.5-3.2-1.5-6.3H140.6z M142.3,47.8c1.2,1.4,2.6,2.1,4.3,2.1v-1c-1.4,0-2.5-0.6-3.6-1.8L142.3,47.8z M144.1,29
		c-1.2,0-2.1,1-2.6,2.5c-0.6,1.5-0.9,3.8-1.1,6.7l1,0.1c0.2-2.9,0.5-5,1-6.4c0.5-1.4,1.1-1.9,1.7-1.9V29z M140.9,38.8h5.6v-1h-5.6
		V38.8z M147,38.3c0-2.6-0.2-4.7-0.6-6.4l-1,0.2c0.4,1.6,0.6,3.6,0.6,6.2L147,38.3z M146.4,31.9c-0.2-0.8-0.5-1.5-0.8-2
		c-0.4-0.5-0.9-0.8-1.5-0.8v1c0.2,0,0.4,0.1,0.7,0.4c0.2,0.3,0.5,0.9,0.7,1.7L146.4,31.9z"/>
</g>
<g class="st0">
	<path d="M16.6,15.5l-0.3,0.4l0,0L16.6,15.5z M16.6,21.7l-0.3-0.4l0,0L16.6,21.7z M8.8,21.7l0.3-0.4l0,0L8.8,21.7z M8.8,15.5
		l0.3,0.4l0,0L8.8,15.5z M17.9,50.3l-0.4,0.3l0,0l0,0L17.9,50.3z M20,51h0.5v-0.5H20V51z M20,52l0,0.5l0.5,0V52H20z M6,52H5.5v0.5
		l0.5,0L6,52z M6,51v-0.5H5.5V51H6z M8.1,50.3L7.7,50l0,0L8.1,50.3z M8.1,29.1l-0.4,0.2l0,0l0,0L8.1,29.1z M6,28.1H5.5v0.5H6V28.1z
		 M6,27.1l0-0.5l-0.5-0.1v0.5H6z M17.3,26.6h0.5V26l-0.6,0.1L17.3,26.6z M12.7,15c1.6,0,2.8,0.3,3.5,0.9l0.6-0.8
		c-1-0.8-2.4-1.2-4.1-1.2V15z M16.3,15.9c0.8,0.6,1.2,1.5,1.2,2.7h1c0-1.5-0.5-2.7-1.6-3.5L16.3,15.9z M17.5,18.6
		c0,1.2-0.4,2.1-1.2,2.7l0.6,0.8c1.1-0.8,1.6-2,1.6-3.5H17.5z M16.3,21.3c-0.8,0.6-1.9,0.9-3.5,0.9v1c1.7,0,3.1-0.4,4.1-1.2
		L16.3,21.3z M12.7,22.2c-1.6,0-2.8-0.3-3.6-0.9l-0.6,0.8c1,0.8,2.4,1.2,4.2,1.2V22.2z M9.1,21.3C8.4,20.7,8,19.8,8,18.6H7
		c0,1.5,0.5,2.6,1.5,3.5L9.1,21.3z M8,18.6c0-1.2,0.4-2.1,1.2-2.7l-0.6-0.8c-1,0.8-1.5,2-1.5,3.5H8z M9.1,15.9
		c0.8-0.6,1.9-0.9,3.6-0.9v-1c-1.8,0-3.2,0.4-4.2,1.2L9.1,15.9z M16.8,47.5c0,1.3,0.2,2.4,0.7,3l0.8-0.6c-0.3-0.4-0.5-1.1-0.5-2.4
		H16.8z M17.5,50.6c0.6,0.6,1.4,0.9,2.5,0.9v-1c-0.9,0-1.5-0.2-1.7-0.5L17.5,50.6z M19.5,51v1h1v-1H19.5z M20,51.5
		c-3.5-0.1-5.7-0.2-6.8-0.2v1c1.1,0,3.3,0.1,6.8,0.2L20,51.5z M13.2,51.3c-1.1,0-3.5,0.1-7.2,0.2l0,1c3.7-0.1,6.1-0.2,7.2-0.2V51.3z
		 M6.5,52v-1h-1v1H6.5z M6,51.5c1.1,0,1.9-0.3,2.5-0.9L7.7,50c-0.2,0.3-0.7,0.5-1.7,0.5V51.5z M8.5,50.6c0.5-0.7,0.7-1.7,0.7-3.1h-1
		c0,1.3-0.2,2.1-0.5,2.4L8.5,50.6z M9.2,47.5V32.3h-1v15.2H9.2z M9.2,32.3c0-1.5-0.2-2.7-0.7-3.5l-0.9,0.5c0.3,0.6,0.5,1.5,0.5,3
		H9.2z M8.5,28.9C8,28,7.1,27.6,6,27.6v1c0.9,0,1.4,0.3,1.6,0.8L8.5,28.9z M6.5,28.1v-1h-1v1H6.5z M6,27.6c1,0.1,2,0.1,3,0.1v-1
		c-0.9,0-1.9,0-2.9-0.1L6,27.6z M9,27.7c3.3,0,6.2-0.2,8.5-0.7l-0.2-1c-2.2,0.4-4.9,0.7-8.3,0.7V27.7z M16.8,26.6v21h1v-21H16.8z
		 M32.9,27.1h-0.5v0.5h0.5V27.1z M37.6,27.1h0.5v-0.5h-0.5V27.1z M37.6,28v0.5h0.5V28H37.6z M32.9,28v-0.5h-0.5V28H32.9z M35.7,49.4
		l0.2,0.5l0,0L35.7,49.4z M37,48.3l0.3-0.4l-0.4-0.3L36.6,48L37,48.3z M37.7,48.9l0.4,0.3l0.2-0.4L38,48.5L37.7,48.9z M25.9,51
		l0.4-0.4l0,0L25.9,51z M24.6,48.5l-0.5,0.1l0,0l0,0L24.6,48.5z M24.3,28h0.5v-0.5h-0.5V28z M20.7,28h-0.5v0.5h0.5V28z M20.7,27.1
		v-0.5h-0.5v0.5H20.7z M24.3,27.1v0.5h0.5v-0.5H24.3z M24.3,21.4v-0.5h-0.5v0.5H24.3z M29,20.9l0.1,0.5l0,0L29,20.9z M32.9,19.3h0.5
		v-0.9l-0.8,0.4L32.9,19.3z M32.9,27.6h4.7v-1h-4.7V27.6z M37.1,27.1v1h1v-1H37.1z M37.6,27.5h-4.7v1h4.7V27.5z M32.4,28V48h1V28
		H32.4z M32.4,48c0,0.7,0.1,1.3,0.5,1.7l0.8-0.7c-0.1-0.1-0.2-0.4-0.2-1H32.4z M32.9,49.6c0.4,0.4,0.9,0.6,1.5,0.6v-1
		c-0.4,0-0.6-0.1-0.7-0.2L32.9,49.6z M34.4,50.2c0.5,0,1-0.1,1.5-0.4l-0.4-0.9c-0.4,0.2-0.8,0.3-1.1,0.3V50.2z M35.9,49.8
		c0.6-0.3,1.1-0.7,1.5-1.2L36.6,48c-0.3,0.4-0.7,0.7-1.1,0.9L35.9,49.8z M36.7,48.7l0.7,0.6l0.6-0.8l-0.7-0.6L36.7,48.7z M37.3,48.6
		c-1.4,2.4-3.5,3.5-6.4,3.5v1c3.2,0,5.7-1.3,7.2-4L37.3,48.6z M30.9,52.2c-2.1,0-3.6-0.5-4.6-1.5l-0.7,0.7c1.2,1.2,3,1.8,5.3,1.8
		V52.2z M26.3,50.7c-0.6-0.6-1-1.3-1.2-2.3l-1,0.2c0.2,1.1,0.7,2,1.5,2.7L26.3,50.7z M25.1,48.4c-0.2-0.9-0.3-2.3-0.3-4.1h-1
		c0,1.8,0.1,3.2,0.3,4.3L25.1,48.4z M24.8,44.4V28h-1v16.3H24.8z M24.3,27.5h-3.6v1h3.6V27.5z M21.2,28v-1h-1v1H21.2z M20.7,27.6
		h3.6v-1h-3.6V27.6z M24.8,27.1v-5.7h-1v5.7H24.8z M24.3,21.9c1.8,0,3.3-0.2,4.8-0.5l-0.2-1c-1.3,0.3-2.8,0.5-4.5,0.5V21.9z
		 M29.1,21.4c1.5-0.4,2.8-0.9,4.1-1.7l-0.5-0.9c-1.2,0.7-2.5,1.2-3.9,1.6L29.1,21.4z M32.4,19.3v7.8h1v-7.8H32.4z M40.2,50.7
		L39.8,51l0,0l0,0L40.2,50.7z M39.8,43l-0.4-0.3l0,0L39.8,43z M42.5,40.8l-0.2-0.4l0,0L42.5,40.8z M46.5,39.2l-0.2-0.5l0,0
		L46.5,39.2z M50.2,37.6l0.3,0.4l0,0L50.2,37.6z M50.7,28.6l0.4-0.3l0,0L50.7,28.6z M45.4,28.2l-0.3-0.4l-0.8,0.6l0.9,0.3L45.4,28.2
		z M47.8,29.9l-0.4,0.3l0,0l0,0L47.8,29.9z M47.2,35.4l0.3,0.4l0,0L47.2,35.4z M41.1,35.4l-0.4,0.3l0,0l0,0L41.1,35.4z M40.7,29.9
		l-0.4-0.3l0,0L40.7,29.9z M43,28l0.2,0.4l0,0L43,28z M55.2,26.9l-0.1,0.5l0,0L55.2,26.9z M58.5,28.8l0.4-0.3l0,0L58.5,28.8z
		 M59.8,31.4l-0.5,0.1l0,0l0,0L59.8,31.4z M60.2,50l-0.5,0.2l0,0l0,0L60.2,50z M61.6,50.3l0.2,0.4l0,0l0,0L61.6,50.3z M62.3,49.7
		l0.4-0.3L62.4,49L62,49.4L62.3,49.7z M62.8,50.6l0.3,0.4l0.3-0.3l-0.2-0.4L62.8,50.6z M52.8,51.4l-0.3,0.4l0,0L52.8,51.4z
		 M51.6,48.7l0.5,0L52,47.1l-0.8,1.3L51.6,48.7z M51.4,47.7l0.4,0.3l0.1-0.1v-0.2H51.4z M51.4,37.6h0.5v-1.8L51,37.3L51.4,37.6z
		 M49.9,39.4l0.3,0.4l0,0L49.9,39.4z M47.9,41.9l0.4,0.3l0,0L47.9,41.9z M44.9,51.8c-2,0-3.4-0.5-4.3-1.5l-0.7,0.7
		c1.2,1.2,2.9,1.8,5,1.8V51.8z M40.6,50.4c-0.9-1-1.4-2.3-1.4-3.8h-1c0,1.8,0.6,3.3,1.7,4.5L40.6,50.4z M39.2,46.5
		c0-1.4,0.3-2.4,1-3.2l-0.8-0.6c-0.8,1-1.2,2.3-1.2,3.9H39.2z M40.2,43.3c0.7-0.9,1.6-1.6,2.5-2.1l-0.4-0.9c-1.1,0.5-2,1.3-2.9,2.3
		L40.2,43.3z M42.7,41.2c1-0.5,2.3-1,3.9-1.6l-0.3-0.9c-1.6,0.5-3,1.1-4,1.6L42.7,41.2z M46.6,39.7c1.7-0.6,3-1.1,3.9-1.6L50,37.2
		c-0.8,0.5-2,1-3.7,1.5L46.6,39.7z M50.5,38c0.9-0.6,1.4-1.4,1.4-2.4h-1c0,0.7-0.3,1.2-1,1.6L50.5,38z M51.9,35.6v-4.3h-1v4.3H51.9z
		 M51.9,31.3c0-1.1-0.3-2.1-0.8-3l-0.8,0.5c0.5,0.7,0.7,1.5,0.7,2.5H51.9z M51.1,28.3c-0.6-1-1.7-1.4-3.1-1.4v1c1.1,0,1.8,0.4,2.2,1
		L51.1,28.3z M48,26.9c-1.1,0-2.1,0.3-3,0.9l0.6,0.8c0.7-0.5,1.5-0.7,2.4-0.7V26.9z M45.2,28.7c1,0.4,1.7,0.9,2.2,1.5l0.8-0.6
		c-0.6-0.9-1.5-1.5-2.6-1.9L45.2,28.7z M47.4,30.2c0.5,0.6,0.7,1.4,0.7,2.2h1c0-1-0.3-2-0.9-2.8L47.4,30.2z M48.1,32.4
		c0,1.1-0.4,2-1.2,2.6l0.7,0.8c1-0.9,1.5-2,1.5-3.4H48.1z M46.9,35.1c-0.8,0.7-1.7,1-2.8,1v1c1.4,0,2.5-0.4,3.5-1.2L46.9,35.1z
		 M44.1,36c-1.1,0-2-0.3-2.6-1l-0.7,0.7c0.8,0.9,2,1.3,3.3,1.3V36z M41.5,35.1c-0.6-0.7-0.9-1.6-0.9-2.7h-1c0,1.3,0.4,2.5,1.2,3.4
		L41.5,35.1z M40.5,32.4c0-0.9,0.2-1.6,0.6-2.2l-0.8-0.6c-0.5,0.8-0.8,1.7-0.8,2.8H40.5z M41.2,30.2c0.4-0.6,1.1-1.2,2.1-1.8
		l-0.5-0.9c-1.1,0.6-1.9,1.3-2.4,2.1L41.2,30.2z M43.2,28.4c1.7-1,4.1-1.5,7.4-1.5v-1c-3.4,0-6,0.5-7.9,1.6L43.2,28.4z M50.7,26.9
		c1.7,0,3.2,0.2,4.4,0.5l0.3-1c-1.3-0.4-2.9-0.5-4.7-0.5V26.9z M55.1,27.4c1.2,0.3,2.2,0.9,3,1.7l0.7-0.7c-1-1-2.1-1.7-3.5-2
		L55.1,27.4z M58.1,29.2c0.6,0.6,0.9,1.4,1.1,2.3l1-0.2c-0.2-1.1-0.7-2-1.4-2.8L58.1,29.2z M59.3,31.5c0.2,0.9,0.3,2.3,0.3,4.1h1
		c0-1.8-0.1-3.2-0.3-4.3L59.3,31.5z M59.6,35.5v12.9h1V35.5H59.6z M59.6,48.4c0,0.8,0,1.4,0.2,1.8l0.9-0.3c-0.1-0.2-0.1-0.7-0.1-1.5
		H59.6z M59.8,50.2c0.1,0.2,0.2,0.4,0.4,0.5c0.2,0.1,0.4,0.2,0.7,0.2v-1c-0.1,0-0.1,0-0.1,0c0,0,0,0-0.1-0.1L59.8,50.2z M60.9,51
		c0.3,0,0.6-0.1,0.9-0.2l-0.4-0.9C61.1,49.9,61,50,60.9,50V51z M61.8,50.7c0.3-0.2,0.5-0.4,0.8-0.6L62,49.4
		c-0.2,0.2-0.4,0.3-0.7,0.5L61.8,50.7z M61.9,50l0.5,0.8l0.9-0.5l-0.5-0.8L61.9,50z M62.5,50.2c-1.3,1.1-3.1,1.7-5.6,1.7v1
		c2.6,0,4.7-0.6,6.2-1.9L62.5,50.2z M56.9,51.8c-1.9,0-3.1-0.3-3.7-0.8l-0.6,0.8c0.9,0.8,2.4,1.1,4.4,1.1V51.8z M53.2,51
		c-0.7-0.6-1-1.3-1.1-2.3l-1,0.1c0.1,1.2,0.5,2.3,1.4,3L53.2,51z M51.2,48.4c-1.4,2.3-3.5,3.4-6.3,3.4v1c3.1,0,5.5-1.3,7.1-3.9
		L51.2,48.4z M49.7,49c0.8,0,1.5-0.3,2.1-1l-0.7-0.7c-0.4,0.5-0.9,0.7-1.4,0.7V49z M51.9,47.7V37.6h-1v10.1H51.9z M51,37.3
		c-0.3,0.4-0.7,1-1.5,1.8l0.7,0.7c0.8-0.8,1.3-1.4,1.7-2L51,37.3z M49.5,39.1c-0.9,0.9-1.6,1.7-2.1,2.6l0.9,0.5
		c0.4-0.7,1-1.5,1.9-2.3L49.5,39.1z M47.5,41.6c-0.5,0.9-0.7,2-0.7,3.4h1c0-1.3,0.2-2.3,0.6-2.9L47.5,41.6z M46.7,45
		c0,1.2,0.2,2.2,0.7,2.9c0.5,0.7,1.3,1.1,2.2,1.1v-1c-0.7,0-1.1-0.2-1.4-0.7c-0.3-0.5-0.5-1.2-0.5-2.3H46.7z M104.5,50.3l-0.4,0.3
		l0,0l0,0L104.5,50.3z M106.6,51h0.5v-0.5h-0.5V51z M106.6,52l0,0.5l0.5,0V52H106.6z M93.5,52H93v0.5l0.5,0L93.5,52z M93.5,51v-0.5
		H93V51H93.5z M94.9,50.3L94.4,50l0,0L94.9,50.3z M94.7,29.7L94.2,30l0,0l0,0L94.7,29.7z M90.6,30l-0.4-0.4l0,0L90.6,30z M89.3,32.5
		l-0.5-0.1l0,0.1l0,0.1L89.3,32.5z M91.6,51h0.5v-0.5h-0.5V51z M91.6,52l0,0.5l0.5,0V52H91.6z M79.1,52h-0.5v0.5l0.5,0L79.1,52z
		 M79.1,51v-0.5h-0.5V51H79.1z M80.4,50.3l0.4,0.2l0,0L80.4,50.3z M80.4,29.7l-0.4,0.2l0,0L80.4,29.7z M76.5,29.9l0.3,0.4l0,0
		L76.5,29.9z M75.8,50.3l0.4-0.2l0,0L75.8,50.3z M77.2,51h0.5v-0.5h-0.5V51z M77.2,52l0,0.5l0.5,0V52H77.2z M64.1,52h-0.5v0.5l0.5,0
		L64.1,52z M64.1,51v-0.5h-0.5V51H64.1z M66.2,50.3L65.8,50l0,0L66.2,50.3z M66.2,29.1l-0.4,0.2l0,0l0,0L66.2,29.1z M64.1,28.1h-0.5
		v0.5h0.5V28.1z M64.1,27.1l0-0.5l-0.5-0.1v0.5H64.1z M75.5,26.6H76V26l-0.6,0.1L75.5,26.6z M75.5,30H75v1.9l0.9-1.7L75.5,30z
		 M88,28.3l-0.4,0.3l0,0L88,28.3z M89.1,30.6l-0.5,0.1l0.3,1.3l0.6-1.2L89.1,30.6z M92.3,27.4l0.2,0.5l0,0L92.3,27.4z M102.5,28.3
		l-0.4,0.3l0,0L102.5,28.3z M103.5,30.7l-0.5,0.1l0,0L103.5,30.7z M103.4,47.5c0,1.3,0.2,2.4,0.7,3l0.8-0.6
		c-0.3-0.4-0.5-1.1-0.5-2.4H103.4z M104.1,50.6c0.6,0.6,1.4,0.9,2.5,0.9v-1c-0.9,0-1.5-0.2-1.7-0.5L104.1,50.6z M106.1,51v1h1v-1
		H106.1z M106.6,51.5c-3.5-0.1-5.7-0.2-6.7-0.2v1c1,0,3.2,0.1,6.7,0.2L106.6,51.5z M99.8,51.3c-1,0-3.2,0.1-6.4,0.2l0,1
		c3.2-0.1,5.3-0.2,6.3-0.2V51.3z M94,52v-1h-1v1H94z M93.5,51.5c0.8,0,1.4-0.3,1.8-1L94.4,50c-0.2,0.3-0.4,0.5-0.9,0.5V51.5z
		 M95.3,50.5c0.2-0.3,0.3-0.7,0.3-1.2c0.1-0.5,0.1-1.1,0.1-1.8h-1c0,0.7,0,1.2-0.1,1.6c-0.1,0.4-0.1,0.7-0.2,0.9L95.3,50.5z
		 M95.7,47.5V31.9h-1v15.6H95.7z M95.7,31.9c0-1.1-0.2-2-0.7-2.6L94.3,30c0.3,0.3,0.5,1,0.5,1.9H95.7z M95.1,29.4
		c-0.5-0.7-1.3-1-2.2-1v1c0.7,0,1.1,0.2,1.4,0.6L95.1,29.4z M92.9,28.4c-1,0-1.9,0.4-2.7,1.2l0.7,0.7c0.6-0.6,1.3-0.9,2-0.9V28.4z
		 M90.2,29.6c-0.7,0.8-1.2,1.7-1.4,2.8l1,0.2c0.1-0.9,0.5-1.6,1.1-2.2L90.2,29.6z M88.8,32.5c0.1,0.8,0.1,1.4,0.1,2h1
		c0-0.6,0-1.3-0.1-2.1L88.8,32.5z M88.9,34.5v13h1v-13H88.9z M88.9,47.5c0,0.7,0,1.3,0.1,1.8c0.1,0.5,0.2,0.9,0.4,1.2l0.8-0.6
		c-0.1-0.2-0.2-0.4-0.3-0.9c-0.1-0.4-0.1-1-0.1-1.6H88.9z M89.5,50.5c0.4,0.7,1.2,0.9,2.1,0.9v-1c-0.7,0-1.1-0.2-1.3-0.5L89.5,50.5z
		 M91.1,51v1h1v-1H91.1z M91.7,51.5c-3.2-0.1-5.3-0.2-6.3-0.2v1c0.9,0,3,0.1,6.2,0.2L91.7,51.5z M85.4,51.3c-1,0-3.2,0.1-6.4,0.2
		l0,1c3.2-0.1,5.3-0.2,6.3-0.2V51.3z M79.6,52v-1h-1v1H79.6z M79.1,51.5c0.8,0,1.4-0.3,1.8-1L80,50c-0.2,0.3-0.4,0.5-0.9,0.5V51.5z
		 M80.9,50.5c0.3-0.6,0.4-1.6,0.4-3h-1c0,1.3-0.1,2.1-0.3,2.5L80.9,50.5z M81.3,47.5V31.9h-1v15.6H81.3z M81.3,31.9
		c0-1.1-0.1-1.9-0.5-2.5l-0.9,0.5c0.2,0.4,0.4,1,0.4,2H81.3z M80.8,29.4c-0.4-0.7-1.1-1-1.9-1v1c0.5,0,0.8,0.2,1,0.5L80.8,29.4z
		 M78.9,28.4c-1.1,0-2,0.4-2.8,1.1l0.7,0.7c0.6-0.6,1.3-0.9,2.1-0.9V28.4z M76.1,29.6c-0.8,0.7-1.2,1.7-1.2,2.8h1
		c0-0.9,0.3-1.5,0.9-2.1L76.1,29.6z M75,32.4v15.2h1V32.4H75z M75,47.5c0,0.7,0,1.3,0.1,1.8c0.1,0.5,0.2,0.9,0.3,1.2l0.9-0.5
		c-0.1-0.2-0.2-0.4-0.2-0.9c-0.1-0.4-0.1-1-0.1-1.6H75z M75.4,50.5c0.4,0.7,1,1,1.8,1v-1c-0.5,0-0.8-0.2-0.9-0.5L75.4,50.5z
		 M76.7,51v1h1v-1H76.7z M77.2,51.5c-2.9-0.1-4.9-0.2-5.9-0.2v1c0.9,0,2.9,0.1,5.8,0.2L77.2,51.5z M71.3,51.3
		c-1.1,0-3.5,0.1-7.2,0.2l0,1c3.7-0.1,6.1-0.2,7.2-0.2V51.3z M64.6,52v-1h-1v1H64.6z M64.1,51.5c1.1,0,1.9-0.3,2.5-0.9L65.8,50
		c-0.2,0.3-0.7,0.5-1.7,0.5V51.5z M66.6,50.6c0.5-0.7,0.7-1.7,0.7-3.1h-1c0,1.3-0.2,2.1-0.5,2.4L66.6,50.6z M67.3,47.5V32.3h-1v15.2
		H67.3z M67.3,32.3c0-1.5-0.2-2.7-0.7-3.5l-0.9,0.5c0.3,0.6,0.5,1.5,0.5,3H67.3z M66.6,28.9c-0.5-0.9-1.4-1.3-2.5-1.3v1
		c0.9,0,1.4,0.3,1.6,0.8L66.6,28.9z M64.6,28.1v-1h-1v1H64.6z M64.1,27.6c1,0.1,2,0.1,3,0.1v-1c-0.9,0-1.9,0-2.9-0.1L64.1,27.6z
		 M67.1,27.7c3.3,0,6.2-0.2,8.5-0.7l-0.2-1c-2.2,0.4-4.9,0.7-8.3,0.7V27.7z M75,26.6V30h1v-3.5H75z M75.9,30.3
		c1.2-2.2,3.4-3.3,6.7-3.3v-1c-3.6,0-6.1,1.3-7.6,3.9L75.9,30.3z M82.6,26.9c2.5,0,4.1,0.6,5,1.7l0.8-0.6c-1.2-1.4-3.2-2.1-5.8-2.1
		V26.9z M87.7,28.7c0.4,0.5,0.7,1.2,1,2.1l1-0.2c-0.2-1-0.6-1.8-1.2-2.5L87.7,28.7z M89.5,30.8c0.8-1.5,1.7-2.4,2.9-3l-0.4-0.9
		c-1.4,0.7-2.6,1.8-3.4,3.4L89.5,30.8z M92.5,27.8c1.3-0.6,2.8-0.9,4.6-0.9v-1c-1.9,0-3.6,0.3-5,1L92.5,27.8z M97.1,26.9
		c2.5,0,4.1,0.6,5,1.7l0.8-0.6c-1.2-1.4-3.2-2.1-5.8-2.1V26.9z M102.1,28.7c0.4,0.5,0.7,1.2,1,2.1l1-0.2c-0.2-1-0.6-1.9-1.2-2.6
		L102.1,28.7z M103.1,30.8c0.2,0.9,0.3,2.1,0.3,3.7h1c0-1.6-0.1-2.9-0.3-4L103.1,30.8z M103.4,34.5v13h1v-13H103.4z M109.7,50.7
		l-0.4,0.3l0,0l0,0L109.7,50.7z M109.3,43l-0.4-0.3l0,0L109.3,43z M111.9,40.8l-0.2-0.4l0,0L111.9,40.8z M115.9,39.2l-0.2-0.5l0,0
		L115.9,39.2z M119.7,37.6L120,38l0,0L119.7,37.6z M120.2,28.6l0.4-0.3l0,0L120.2,28.6z M114.8,28.2l-0.3-0.4l-0.8,0.6l0.9,0.3
		L114.8,28.2z M117.2,29.9l-0.4,0.3l0,0l0,0L117.2,29.9z M116.7,35.4l0.3,0.4l0,0L116.7,35.4z M110.6,35.4l-0.4,0.3l0,0l0,0
		L110.6,35.4z M110.2,29.9l-0.4-0.3l0,0L110.2,29.9z M112.5,28l0.2,0.4l0,0L112.5,28z M124.7,26.9l-0.1,0.5l0,0L124.7,26.9z
		 M128,28.8l0.4-0.3l0,0L128,28.8z M129.2,31.4l-0.5,0.1l0,0l0,0L129.2,31.4z M129.7,50l-0.5,0.2l0,0l0,0L129.7,50z M131,50.3
		l0.2,0.4l0,0l0,0L131,50.3z M131.8,49.7l0.4-0.3l-0.3-0.5l-0.5,0.4L131.8,49.7z M132.2,50.6l0.3,0.4l0.3-0.3l-0.2-0.4L132.2,50.6z
		 M122.3,51.4l-0.3,0.4l0,0L122.3,51.4z M121.1,48.7l0.5,0l-0.1-1.6l-0.8,1.3L121.1,48.7z M120.9,47.7l0.4,0.3l0.1-0.1v-0.2H120.9z
		 M120.9,37.6h0.5v-1.8l-0.9,1.5L120.9,37.6z M119.3,39.4l0.3,0.4l0,0L119.3,39.4z M117.4,41.9l0.4,0.3l0,0L117.4,41.9z M114.3,51.8
		c-2,0-3.4-0.5-4.3-1.5l-0.7,0.7c1.2,1.2,2.9,1.8,5,1.8V51.8z M110.1,50.4c-0.9-1-1.4-2.3-1.4-3.8h-1c0,1.8,0.5,3.3,1.7,4.5
		L110.1,50.4z M108.7,46.5c0-1.4,0.3-2.4,1-3.2l-0.8-0.6c-0.8,1-1.2,2.3-1.2,3.9H108.7z M109.6,43.3c0.7-0.9,1.6-1.6,2.5-2.1
		l-0.4-0.9c-1.1,0.5-2,1.3-2.9,2.3L109.6,43.3z M112.2,41.2c1-0.5,2.3-1,3.9-1.6l-0.3-0.9c-1.6,0.5-3,1.1-4,1.6L112.2,41.2z
		 M116.1,39.7c1.7-0.6,3-1.1,3.9-1.6l-0.5-0.9c-0.8,0.5-2,1-3.7,1.5L116.1,39.7z M120,38c0.9-0.6,1.4-1.4,1.4-2.4h-1
		c0,0.7-0.3,1.2-1,1.6L120,38z M121.4,35.6v-4.3h-1v4.3H121.4z M121.4,31.3c0-1.1-0.3-2.1-0.8-3l-0.8,0.5c0.5,0.7,0.7,1.5,0.7,2.5
		H121.4z M120.6,28.3c-0.6-1-1.7-1.4-3.1-1.4v1c1.1,0,1.8,0.4,2.2,1L120.6,28.3z M117.5,26.9c-1.1,0-2.1,0.3-3,0.9l0.6,0.8
		c0.7-0.5,1.5-0.7,2.4-0.7V26.9z M114.7,28.7c1,0.4,1.7,0.9,2.2,1.5l0.8-0.6c-0.6-0.9-1.5-1.5-2.7-1.9L114.7,28.7z M116.8,30.2
		c0.5,0.6,0.7,1.4,0.7,2.2h1c0-1-0.3-2-0.9-2.8L116.8,30.2z M117.5,32.4c0,1.1-0.4,2-1.2,2.6l0.7,0.8c1-0.9,1.5-2,1.5-3.4H117.5z
		 M116.4,35.1c-0.8,0.7-1.7,1-2.8,1v1c1.4,0,2.5-0.4,3.5-1.2L116.4,35.1z M113.5,36c-1.1,0-2-0.3-2.6-1l-0.7,0.7
		c0.8,0.9,2,1.3,3.3,1.3V36z M110.9,35.1c-0.6-0.7-0.9-1.6-0.9-2.7h-1c0,1.3,0.4,2.5,1.2,3.4L110.9,35.1z M110,32.4
		c0-0.9,0.2-1.6,0.6-2.2l-0.8-0.6c-0.5,0.8-0.8,1.7-0.8,2.8H110z M110.6,30.2c0.4-0.6,1.1-1.2,2.1-1.8l-0.5-0.9
		c-1.1,0.6-1.9,1.3-2.4,2.1L110.6,30.2z M112.7,28.4c1.7-1,4.1-1.5,7.4-1.5v-1c-3.4,0-6,0.5-7.9,1.6L112.7,28.4z M120.2,26.9
		c1.7,0,3.2,0.2,4.4,0.5l0.3-1c-1.3-0.4-2.9-0.5-4.7-0.5V26.9z M124.6,27.4c1.2,0.3,2.2,0.9,3,1.7l0.7-0.7c-1-1-2.1-1.7-3.5-2
		L124.6,27.4z M127.6,29.2c0.6,0.6,0.9,1.4,1.1,2.3l1-0.2c-0.2-1.1-0.7-2-1.4-2.8L127.6,29.2z M128.7,31.5c0.2,0.9,0.3,2.3,0.3,4.1
		h1c0-1.8-0.1-3.2-0.3-4.3L128.7,31.5z M129.1,35.5v12.9h1V35.5H129.1z M129.1,48.4c0,0.8,0,1.4,0.2,1.8l0.9-0.3
		c-0.1-0.2-0.1-0.7-0.1-1.5H129.1z M129.2,50.2c0.1,0.2,0.2,0.4,0.4,0.5c0.2,0.1,0.4,0.2,0.7,0.2v-1c-0.1,0-0.1,0-0.1,0
		c0,0,0,0-0.1-0.1L129.2,50.2z M130.3,51c0.3,0,0.6-0.1,0.9-0.2l-0.4-0.9c-0.2,0.1-0.4,0.1-0.5,0.1V51z M131.3,50.7
		c0.3-0.2,0.5-0.4,0.8-0.6l-0.7-0.8c-0.2,0.2-0.4,0.3-0.7,0.5L131.3,50.7z M131.3,50l0.5,0.8l0.9-0.5l-0.5-0.8L131.3,50z
		 M131.9,50.2c-1.3,1.1-3.1,1.7-5.6,1.7v1c2.6,0,4.7-0.6,6.2-1.9L131.9,50.2z M126.3,51.8c-1.9,0-3.1-0.3-3.7-0.8l-0.6,0.8
		c0.9,0.8,2.4,1.1,4.4,1.1V51.8z M122.6,51c-0.7-0.6-1-1.3-1.1-2.3l-1,0.1c0.1,1.2,0.5,2.3,1.4,3L122.6,51z M120.6,48.4
		c-1.4,2.3-3.5,3.4-6.3,3.4v1c3.1,0,5.5-1.3,7.1-3.9L120.6,48.4z M119.1,49c0.8,0,1.5-0.3,2.1-1l-0.7-0.7c-0.4,0.5-0.9,0.7-1.4,0.7
		V49z M121.4,47.7V37.6h-1v10.1H121.4z M120.5,37.3c-0.3,0.4-0.7,1-1.5,1.8l0.7,0.7c0.8-0.8,1.3-1.4,1.7-2L120.5,37.3z M119,39.1
		c-0.9,0.9-1.6,1.7-2.1,2.6l0.9,0.5c0.4-0.7,1-1.5,1.9-2.3L119,39.1z M116.9,41.6c-0.5,0.9-0.7,2-0.7,3.4h1c0-1.3,0.2-2.3,0.6-2.9
		L116.9,41.6z M116.2,45c0,1.2,0.2,2.2,0.7,2.9c0.5,0.7,1.3,1.1,2.2,1.1v-1c-0.7,0-1.1-0.2-1.4-0.7c-0.3-0.5-0.5-1.2-0.5-2.3H116.2z
		 M154.4,44.2l0.2-0.5l-0.4-0.1l-0.2,0.3L154.4,44.2z M155.2,44.5l0.5,0.1l0.1-0.5l-0.5-0.2L155.2,44.5z M151.6,50.3l-0.3-0.4l0,0
		L151.6,50.3z M137.1,49.6l0.4-0.3l0,0L137.1,49.6z M137.4,29.7l0.3,0.4l0,0L137.4,29.7z M155.5,37.2v0.5h0.5v-0.5H155.5z
		 M143.1,37.2v-0.5h-0.5l0,0.5L143.1,37.2z M144.6,45.5l-0.4,0.3l0,0L144.6,45.5z M142.9,36.3l-0.5,0l0,0.5h0.5V36.3z M148.5,36.3
		v0.5h0.5l0-0.5L148.5,36.3z M147.9,30l-0.5,0.1l0,0L147.9,30z M148.6,47.9c2.5,0,4.6-1.2,6.2-3.4l-0.8-0.6c-1.5,2-3.2,3-5.4,3V47.9
		z M154.2,44.7L155,45l0.3-0.9l-0.8-0.3L154.2,44.7z M154.7,44.4c-0.7,2.2-1.8,4-3.5,5.5l0.7,0.7c1.8-1.7,3-3.7,3.7-6L154.7,44.4z
		 M151.3,49.9c-1.6,1.5-3.6,2.3-6.1,2.3v1c2.7,0,5-0.8,6.8-2.5L151.3,49.9z M145.2,52.2c-3.2,0-5.8-1-7.7-3l-0.7,0.7
		c2.1,2.2,5,3.3,8.4,3.3V52.2z M137.5,49.2c-1.9-1.9-2.9-5.1-2.9-9.6h-1c0,4.6,1,8.1,3.2,10.3L137.5,49.2z M134.6,39.6
		c0-4.3,1.1-7.4,3.2-9.5l-0.7-0.7c-2.4,2.3-3.5,5.7-3.5,10.2H134.6z M137.8,30.1c2.2-2.1,5-3.2,8.6-3.2v-1c-3.8,0-6.9,1.1-9.3,3.5
		L137.8,30.1z M146.4,26.9c2.9,0,5,0.9,6.4,2.5c1.4,1.7,2.2,4.2,2.2,7.7h1c0-3.6-0.8-6.5-2.4-8.4c-1.6-1.9-4.1-2.9-7.2-2.9V26.9z
		 M155.5,36.7h-12.4v1h12.4V36.7z M142.6,37.1c0,0.4,0,1,0,1.8h1c0-0.8,0-1.3,0-1.7L142.6,37.1z M142.6,38.9c0,3.1,0.5,5.4,1.7,6.9
		l0.8-0.6c-0.9-1.2-1.5-3.2-1.5-6.3H142.6z M144.3,45.8c1.2,1.4,2.6,2.1,4.3,2.1v-1c-1.4,0-2.5-0.6-3.6-1.8L144.3,45.8z M146.1,27
		c-1.2,0-2.1,1-2.6,2.5c-0.6,1.5-0.9,3.8-1.1,6.7l1,0.1c0.2-2.9,0.5-5,1-6.4c0.5-1.4,1.1-1.9,1.7-1.9V27z M142.9,36.8h5.6v-1h-5.6
		V36.8z M149,36.3c0-2.6-0.2-4.7-0.6-6.4l-1,0.2c0.4,1.6,0.6,3.6,0.6,6.2L149,36.3z M148.4,29.9c-0.2-0.8-0.5-1.5-0.8-2
		c-0.4-0.5-0.9-0.8-1.5-0.8v1c0.2,0,0.4,0.1,0.7,0.4c0.2,0.3,0.5,0.9,0.7,1.7L148.4,29.9z"/>
</g>
<g>
	<path d="M8.7,19.5c1.7,0,2.9,0.4,3.8,1.1c0.9,0.7,1.4,1.7,1.4,3.1c0,1.3-0.5,2.4-1.4,3.1c-0.9,0.7-2.2,1.1-3.8,1.1
		c-1.7,0-3-0.4-3.9-1.1s-1.3-1.7-1.3-3.1c0-1.3,0.4-2.4,1.3-3.1S7,19.5,8.7,19.5z M13.3,52.5c0,1.3,0.2,2.2,0.6,2.7
		C14.3,55.8,15,56,16,56v1c-3.5-0.1-5.7-0.2-6.8-0.2S5.7,56.9,2,57v-1c1,0,1.7-0.2,2.1-0.7c0.4-0.5,0.6-1.4,0.6-2.7V37.3
		c0-1.5-0.2-2.5-0.6-3.2c-0.4-0.7-1.1-1-2.1-1v-1c1,0.1,2,0.1,3,0.1c3.3,0,6.1-0.2,8.4-0.7V52.5z M28.9,32.1h4.7v1h-4.7V53
		c0,0.6,0.1,1.1,0.3,1.3c0.2,0.3,0.6,0.4,1.1,0.4c0.4,0,0.8-0.1,1.3-0.3s0.9-0.6,1.3-1.1l0.7,0.6c-1.5,2.5-3.7,3.8-6.8,3.8
		c-2.2,0-3.9-0.5-4.9-1.6c-0.7-0.7-1.1-1.5-1.3-2.5c-0.2-1-0.3-2.4-0.3-4.2V33h-3.6v-1h3.6v-5.7c1.7,0,3.3-0.2,4.7-0.5
		c1.4-0.4,2.7-0.9,4-1.6V32.1z M40.9,57.3c-2,0-3.6-0.5-4.7-1.6c-1-1.1-1.5-2.5-1.5-4.2c0-1.4,0.4-2.6,1.1-3.6
		c0.8-1,1.7-1.7,2.7-2.2c1-0.5,2.4-1,4-1.6c1.7-0.6,3-1.1,3.8-1.6c0.8-0.5,1.2-1.2,1.2-2v-4.3c0-1-0.3-1.9-0.8-2.7s-1.4-1.2-2.6-1.2
		c-1,0-1.9,0.3-2.7,0.8c1.1,0.4,1.9,1,2.4,1.7c0.5,0.7,0.8,1.6,0.8,2.5c0,1.2-0.4,2.3-1.3,3c-0.9,0.7-1.9,1.1-3.2,1.1
		s-2.2-0.4-3-1.2c-0.7-0.8-1.1-1.8-1.1-3c0-1,0.2-1.8,0.7-2.5c0.5-0.7,1.2-1.3,2.3-1.9c1.8-1,4.4-1.5,7.7-1.5c1.8,0,3.3,0.2,4.6,0.5
		c1.3,0.3,2.4,0.9,3.3,1.9c0.6,0.7,1.1,1.5,1.2,2.5c0.2,1,0.3,2.4,0.3,4.2v12.9c0,0.8,0,1.3,0.1,1.6c0.1,0.3,0.3,0.4,0.6,0.4
		c0.2,0,0.5-0.1,0.7-0.2c0.3-0.2,0.5-0.3,0.7-0.5l0.5,0.8c-1.4,1.2-3.3,1.8-5.9,1.8c-1.9,0-3.3-0.3-4-1c-0.8-0.7-1.2-1.6-1.2-2.7
		C46.1,56.1,43.8,57.3,40.9,57.3z M45.7,53.5c0.7,0,1.3-0.3,1.8-0.8V42.6c-0.3,0.5-0.8,1.1-1.6,1.9c-0.9,0.8-1.5,1.6-2,2.4
		c-0.4,0.8-0.7,1.8-0.7,3.2C43.2,52.3,44,53.5,45.7,53.5z M99.9,52.5c0,1.3,0.2,2.2,0.6,2.7c0.4,0.5,1.1,0.7,2.1,0.7v1
		c-3.5-0.1-5.7-0.2-6.7-0.2s-3.1,0.1-6.3,0.2v-1c0.6,0,1.1-0.2,1.3-0.7c0.3-0.5,0.4-1.4,0.4-2.7V36.9c0-1-0.2-1.8-0.6-2.3
		c-0.4-0.5-0.9-0.8-1.8-0.8s-1.6,0.4-2.3,1.1c-0.7,0.7-1.1,1.5-1.2,2.5c0.1,0.8,0.1,1.5,0.1,2.1v13c0,1.3,0.2,2.3,0.5,2.7
		s0.9,0.7,1.7,0.7v1c-3.2-0.1-5.3-0.2-6.2-0.2c-1,0-3.1,0.1-6.3,0.2v-1c0.6,0,1.1-0.2,1.3-0.7c0.3-0.5,0.4-1.4,0.4-2.7V36.9
		c0-1-0.1-1.8-0.4-2.3c-0.3-0.5-0.8-0.8-1.4-0.8c-0.9,0-1.7,0.3-2.4,1c-0.7,0.6-1,1.5-1,2.4v15.2c0,1.3,0.1,2.3,0.4,2.7
		c0.3,0.5,0.7,0.7,1.3,0.7v1c-2.9-0.1-4.9-0.2-5.9-0.2c-1.1,0-3.5,0.1-7.2,0.2v-1c1,0,1.7-0.2,2.1-0.7c0.4-0.5,0.6-1.4,0.6-2.7V37.3
		c0-1.5-0.2-2.5-0.6-3.2c-0.4-0.7-1.1-1-2.1-1v-1c1,0.1,2,0.1,3,0.1c3.3,0,6.1-0.2,8.4-0.7V35c1.3-2.4,3.7-3.6,7.2-3.6
		c2.6,0,4.4,0.6,5.4,1.9c0.5,0.6,0.8,1.3,1.1,2.3c0.8-1.5,1.9-2.6,3.2-3.2c1.3-0.6,2.9-1,4.8-1c2.6,0,4.4,0.6,5.4,1.9
		c0.5,0.6,0.8,1.4,1.1,2.4c0.2,1,0.3,2.2,0.3,3.8V52.5z M110.3,57.3c-2,0-3.6-0.5-4.7-1.6c-1-1.1-1.5-2.5-1.5-4.2
		c0-1.4,0.4-2.6,1.1-3.6c0.8-1,1.7-1.7,2.7-2.2c1-0.5,2.4-1,4-1.6c1.7-0.6,3-1.1,3.8-1.6c0.8-0.5,1.2-1.2,1.2-2v-4.3
		c0-1-0.3-1.9-0.8-2.7s-1.4-1.2-2.6-1.2c-1,0-1.9,0.3-2.7,0.8c1.1,0.4,1.9,1,2.4,1.7c0.5,0.7,0.8,1.6,0.8,2.5c0,1.2-0.4,2.3-1.3,3
		c-0.9,0.7-1.9,1.1-3.2,1.1s-2.2-0.4-3-1.2c-0.7-0.8-1.1-1.8-1.1-3c0-1,0.2-1.8,0.7-2.5c0.5-0.7,1.2-1.3,2.3-1.9
		c1.8-1,4.4-1.5,7.7-1.5c1.8,0,3.3,0.2,4.6,0.5c1.3,0.3,2.4,0.9,3.3,1.9c0.6,0.7,1.1,1.5,1.2,2.5c0.2,1,0.3,2.4,0.3,4.2v12.9
		c0,0.8,0,1.3,0.1,1.6c0.1,0.3,0.3,0.4,0.6,0.4c0.2,0,0.5-0.1,0.7-0.2c0.3-0.2,0.5-0.3,0.7-0.5l0.5,0.8c-1.4,1.2-3.3,1.8-5.9,1.8
		c-1.9,0-3.3-0.3-4-1c-0.8-0.7-1.2-1.6-1.2-2.7C115.6,56.1,113.3,57.3,110.3,57.3z M115.1,53.5c0.7,0,1.3-0.3,1.8-0.8V42.6
		c-0.3,0.5-0.8,1.1-1.6,1.9c-0.9,0.8-1.5,1.6-2,2.4c-0.4,0.8-0.7,1.8-0.7,3.2C112.7,52.3,113.5,53.5,115.1,53.5z M144.6,52.4
		c2.3,0,4.3-1.1,5.8-3.2l0.8,0.3c-0.7,2.2-1.9,4.2-3.6,5.8c-1.7,1.6-3.8,2.4-6.4,2.4c-3.4,0-6-1-8.1-3.1c-2-2.1-3-5.4-3-10
		c0-4.4,1.1-7.7,3.4-9.8c2.3-2.2,5.3-3.3,9-3.3c6,0,9.1,3.6,9.1,10.8h-12.4c0,0.4,0,1,0,1.7c0,3.1,0.5,5.3,1.6,6.6
		C141.7,51.8,143,52.4,144.6,52.4z M142.1,32.5c-1.8,0-2.8,2.9-3.2,8.7h5.6c0-2.6-0.2-4.7-0.6-6.3C143.5,33.3,142.9,32.5,142.1,32.5
		z"/>
	<path d="M12.6,20.5l-0.8,1l0,0l0,0L12.6,20.5z M12.6,26.7l-0.8-1l0,0l0,0L12.6,26.7z M4.8,26.7l0.8-1l0,0L4.8,26.7z M4.8,20.5
		l0.8,1l0,0L4.8,20.5z M13.9,55.3l-1,0.8l0,0l0,0L13.9,55.3z M16,56h1.3v-1.3H16V56z M16,57l0,1.3l1.3,0V57H16z M2,57H0.7v1.3l1.3,0
		L2,57z M2,56v-1.3H0.7V56H2z M4.1,55.3l-1-0.8l0,0L4.1,55.3z M4.1,34.1L3,34.7l0,0l0,0L4.1,34.1z M2,33.1H0.7v1.3H2V33.1z M2,32.1
		l0.1-1.3l-1.4-0.1v1.4H2z M13.3,31.6h1.3V30l-1.5,0.3L13.3,31.6z M8.7,20.7c1.5,0,2.5,0.3,3.1,0.8l1.6-2c-1.2-0.9-2.8-1.3-4.6-1.3
		V20.7z M11.8,21.5c0.6,0.4,0.9,1,0.9,2.1h2.5c0-1.7-0.6-3.1-1.9-4.1L11.8,21.5z M12.7,23.6c0,1-0.3,1.6-0.9,2.1l1.5,2
		c1.3-1,1.9-2.4,1.9-4.1H12.7z M11.8,25.7c-0.6,0.5-1.6,0.8-3.1,0.8V29c1.8,0,3.4-0.4,4.6-1.3L11.8,25.7z M8.7,26.5
		c-1.5,0-2.5-0.3-3.1-0.8l-1.6,2C5.3,28.6,6.9,29,8.7,29V26.5z M5.6,25.7c-0.5-0.4-0.9-1-0.9-2.1H2.2c0,1.7,0.6,3.1,1.8,4.1
		L5.6,25.7z M4.8,23.6c0-1,0.3-1.7,0.9-2.1l-1.6-2c-1.3,1-1.8,2.4-1.8,4.1H4.8z M5.6,21.5c0.6-0.5,1.6-0.8,3.1-0.8v-2.5
		c-1.8,0-3.5,0.4-4.7,1.3L5.6,21.5z M12.1,52.5c0,1.3,0.2,2.6,0.8,3.5l2-1.5c-0.1-0.2-0.3-0.7-0.3-2H12.1z M13,56.1
		c0.8,0.9,1.9,1.2,3.1,1.2v-2.5c-0.8,0-1.1-0.2-1.2-0.3L13,56.1z M14.8,56v1h2.5v-1H14.8z M16.1,55.7c-3.5-0.1-5.7-0.2-6.9-0.2v2.5
		c1.1,0,3.3,0.1,6.8,0.2L16.1,55.7z M9.2,55.5c-1.1,0-3.5,0.1-7.2,0.2l0.1,2.5c3.7-0.1,6.1-0.2,7.2-0.2V55.5z M3.3,57v-1H0.7v1H3.3z
		 M2,57.3c1.1,0,2.3-0.3,3-1.2l-2-1.6c0,0-0.2,0.2-1.1,0.2V57.3z M5.1,56.1C5.8,55.2,6,53.9,6,52.5H3.4c0,1.3-0.2,1.8-0.3,1.9
		L5.1,56.1z M6,52.5V37.3H3.4v15.2H6z M6,37.3c0-1.5-0.2-2.9-0.8-3.9L3,34.8c0.2,0.4,0.4,1.1,0.4,2.6H6z M5.2,33.5
		c-0.7-1.2-1.9-1.6-3.2-1.6v2.5c0.7,0,0.9,0.2,1,0.4L5.2,33.5z M3.3,33.1v-1H0.7v1H3.3z M1.9,33.3C3,33.4,4,33.5,5,33.5V31
		c-0.9,0-1.9,0-2.9-0.1L1.9,33.3z M5,33.5c3.4,0,6.3-0.2,8.6-0.7l-0.5-2.5C11,30.7,8.3,31,5,31V33.5z M12.1,31.6v21h2.5v-21H12.1z
		 M28.9,32.1h-1.3v1.3h1.3V32.1z M33.6,32.1h1.3v-1.3h-1.3V32.1z M33.6,33v1.3h1.3V33H33.6z M28.9,33v-1.3h-1.3V33H28.9z M31.7,54.4
		l0.5,1.1l0,0L31.7,54.4z M33,53.3l0.8-1l-1-0.8l-0.8,1L33,53.3z M33.7,53.9l1.1,0.6l0.5-0.9l-0.8-0.7L33.7,53.9z M21.9,56l0.9-0.9
		l0,0L21.9,56z M20.6,53.5l-1.2,0.2l0,0l0,0L20.6,53.5z M20.3,33h1.3v-1.3h-1.3V33z M16.7,33h-1.3v1.3h1.3V33z M16.7,32.1v-1.3h-1.3
		v1.3H16.7z M20.3,32.1v1.3h1.3v-1.3H20.3z M20.3,26.4v-1.3H19v1.3H20.3z M25,25.9l0.3,1.2l0,0l0,0L25,25.9z M28.9,24.3h1.3v-2.2
		l-1.9,1.1L28.9,24.3z M28.9,33.3h4.7v-2.5h-4.7V33.3z M32.4,32.1v1h2.5v-1H32.4z M33.6,31.8h-4.7v2.5h4.7V31.8z M27.7,33V53h2.5V33
		H27.7z M27.7,53c0,0.7,0.1,1.6,0.6,2.2l1.9-1.7c0.1,0.1,0,0.1,0,0c0-0.1,0-0.3,0-0.5H27.7z M28.3,55.1c0.6,0.6,1.4,0.8,2.1,0.8
		v-2.5c-0.2,0-0.2,0-0.2,0c0,0,0,0,0,0c0,0,0,0,0.1,0.1L28.3,55.1z M30.4,56c0.6,0,1.2-0.2,1.8-0.5l-1.1-2.3
		c-0.4,0.2-0.6,0.2-0.8,0.2V56z M32.2,55.5c0.7-0.3,1.3-0.8,1.7-1.4l-2-1.6c-0.3,0.4-0.6,0.6-0.8,0.7L32.2,55.5z M32.2,54.3l0.7,0.6
		l1.6-2l-0.7-0.6L32.2,54.3z M32.6,53.2c-1.2,2.1-3.1,3.2-5.7,3.2v2.5c3.5,0,6.2-1.5,7.9-4.4L32.6,53.2z M26.9,56.4
		c-2,0-3.3-0.5-4.1-1.3L21,56.9c1.4,1.4,3.4,2,5.8,2V56.4z M22.8,55.1c-0.5-0.5-0.8-1.1-1-1.9l-2.5,0.6c0.3,1.2,0.8,2.3,1.7,3.1
		L22.8,55.1z M21.8,53.3c-0.2-0.9-0.3-2.2-0.3-3.9H19c0,1.8,0.1,3.3,0.3,4.4L21.8,53.3z M21.6,49.4V33H19v16.3H21.6z M20.3,31.8
		h-3.6v2.5h3.6V31.8z M17.9,33v-1h-2.5v1H17.9z M16.7,33.3h3.6v-2.5h-3.6V33.3z M21.6,32.1v-5.7H19v5.7H21.6z M20.3,27.7
		c1.8,0,3.5-0.2,4.9-0.5l-0.6-2.5c-1.3,0.3-2.7,0.4-4.4,0.4V27.7z M25.3,27.2c1.5-0.4,3-1,4.3-1.8l-1.3-2.2
		c-1.1,0.7-2.4,1.2-3.6,1.5L25.3,27.2z M27.7,24.3v7.8h2.5v-7.8H27.7z M36.2,55.7l-0.9,0.9l0,0l0,0L36.2,55.7z M35.8,48l-1-0.8l0,0
		L35.8,48z M38.5,45.8l-0.6-1.1l0,0L38.5,45.8z M42.5,44.2L42.1,43l0,0L42.5,44.2z M46.2,42.6l0.6,1.1l0,0L46.2,42.6z M46.7,33.6
		l1.1-0.7l0,0L46.7,33.6z M41.4,33.2l-0.7-1l-2.1,1.4l2.4,0.8L41.4,33.2z M43.8,34.9l-1,0.7l0,0l0,0L43.8,34.9z M43.2,40.4l0.8,1
		l0,0L43.2,40.4z M37.1,40.4l-0.9,0.8l0,0l0,0L37.1,40.4z M36.7,34.9l-1-0.7l0,0L36.7,34.9z M39,33l0.6,1.1l0,0L39,33z M51.2,31.9
		l-0.3,1.2l0,0l0,0L51.2,31.9z M54.5,33.8l0.9-0.9l0,0L54.5,33.8z M55.8,36.4l-1.2,0.2l0,0l0,0L55.8,36.4z M56.2,55L55,55.4l0,0.1
		l0,0.1L56.2,55z M57.6,55.3l0.6,1.1l0.1,0l0.1,0L57.6,55.3z M58.3,54.7l1.1-0.6l-0.8-1.3l-1.1,1L58.3,54.7z M58.8,55.6l0.8,1
		l0.8-0.7l-0.5-0.9L58.8,55.6z M48.8,56.4L48,57.3l0,0l0,0L48.8,56.4z M47.6,53.7l1.3-0.1l-0.2-4L46.5,53L47.6,53.7z M47.4,52.7
		l0.9,0.9l0.3-0.4v-0.5H47.4z M47.4,42.6h1.3V38l-2.3,3.9L47.4,42.6z M45.9,44.4l0.9,0.9l0,0l0,0L45.9,44.4z M43.9,46.9l1.1,0.6l0,0
		l0,0L43.9,46.9z M40.9,56.1c-1.8,0-3-0.5-3.8-1.2l-1.8,1.8c1.4,1.4,3.3,2,5.6,2V56.1z M37.1,54.9c-0.8-0.9-1.2-1.9-1.2-3.3h-2.5
		c0,1.9,0.6,3.7,1.9,5L37.1,54.9z M35.9,51.5c0-1.2,0.3-2.1,0.8-2.8l-2-1.6c-0.9,1.2-1.4,2.7-1.4,4.3H35.9z M36.8,48.8
		c0.7-0.8,1.4-1.4,2.3-1.9l-1.1-2.3c-1.2,0.6-2.2,1.5-3.1,2.5L36.8,48.8z M39,46.9c1-0.5,2.2-1,3.8-1.5L42.1,43
		c-1.7,0.6-3.1,1.1-4.1,1.7L39,46.9z M42.9,45.4c1.7-0.6,3.1-1.1,4-1.7l-1.3-2.2c-0.7,0.4-1.8,0.9-3.5,1.5L42.9,45.4z M46.9,43.7
		c1.1-0.7,1.8-1.7,1.8-3.1h-2.5c0,0.4-0.1,0.7-0.6,0.9L46.9,43.7z M48.7,40.6v-4.3h-2.5v4.3H48.7z M48.7,36.3c0-1.2-0.3-2.4-1-3.4
		l-2.1,1.4c0.4,0.6,0.6,1.3,0.6,2.1H48.7z M47.7,32.9c-0.8-1.3-2.2-1.8-3.7-1.8v2.5c1,0,1.4,0.3,1.6,0.6L47.7,32.9z M44,31.1
		c-1.2,0-2.4,0.3-3.4,1l1.4,2.1c0.6-0.4,1.2-0.6,2-0.6V31.1z M40.9,34.4c0.9,0.3,1.4,0.7,1.8,1.2l2.1-1.4c-0.7-1-1.7-1.8-3-2.2
		L40.9,34.4z M42.7,35.7c0.4,0.5,0.6,1.1,0.6,1.7h2.5c0-1.2-0.4-2.3-1.1-3.2L42.7,35.7z M43.3,37.4c0,0.9-0.3,1.6-0.9,2.1l1.6,1.9
		c1.2-1,1.8-2.4,1.8-4H43.3z M42.4,39.5c-0.6,0.5-1.4,0.8-2.3,0.8v2.5c1.5,0,2.9-0.5,4-1.4L42.4,39.5z M40.1,40.3
		c-1,0-1.6-0.3-2.1-0.8l-1.8,1.7c1,1.1,2.4,1.5,3.9,1.5V40.3z M38,39.6c-0.5-0.5-0.7-1.2-0.7-2.2h-2.5c0,1.5,0.4,2.8,1.4,3.9
		L38,39.6z M37.3,37.4c0-0.7,0.2-1.3,0.5-1.8l-2.1-1.4c-0.6,0.9-0.9,2-0.9,3.2H37.3z M37.8,35.6c0.3-0.5,0.9-1,1.8-1.5l-1.2-2.2
		c-1.1,0.6-2.1,1.4-2.7,2.3L37.8,35.6z M39.6,34c1.5-0.9,3.8-1.4,7.1-1.4v-2.5c-3.4,0-6.2,0.5-8.3,1.7L39.6,34z M46.7,32.7
		c1.7,0,3.1,0.2,4.2,0.5l0.7-2.4c-1.4-0.4-3.1-0.6-4.9-0.6V32.7z M50.9,33.2c1.1,0.3,1.9,0.8,2.7,1.5l1.8-1.8
		c-1.1-1.1-2.4-1.8-3.9-2.2L50.9,33.2z M53.6,34.7c0.5,0.5,0.8,1.1,0.9,1.9l2.5-0.5c-0.2-1.2-0.7-2.3-1.6-3.2L53.6,34.7z M54.5,36.6
		c0.2,0.9,0.3,2.1,0.3,3.9h2.5c0-1.8-0.1-3.3-0.4-4.5L54.5,36.6z M54.8,40.5v12.9h2.5V40.5H54.8z M54.8,53.4c0,0.8,0,1.5,0.2,2
		l2.4-0.8c0,0,0,0,0-0.1c0-0.1,0-0.1,0-0.3c0-0.2,0-0.5,0-0.9H54.8z M55.1,55.5c0.1,0.3,0.4,0.6,0.7,0.8c0.3,0.2,0.7,0.3,1.1,0.3
		v-2.5c0.1,0,0.2,0,0.3,0.1c0.1,0.1,0.2,0.2,0.2,0.2L55.1,55.5z M56.9,56.7c0.5,0,0.9-0.1,1.3-0.3L57,54.1c-0.1,0.1-0.2,0.1-0.2,0.1
		V56.7z M58.2,56.3c0.3-0.2,0.6-0.4,0.9-0.6l-1.6-1.9c-0.2,0.2-0.4,0.3-0.6,0.4L58.2,56.3z M57.2,55.4l0.5,0.8l2.2-1.3l-0.5-0.8
		L57.2,55.4z M58,54.6c-1.1,0.9-2.7,1.5-5.1,1.5v2.5c2.7,0,5-0.6,6.7-2.1L58,54.6z M52.9,56.1c-1.9,0-2.8-0.3-3.2-0.7L48,57.3
		c1.1,0.9,2.9,1.3,4.8,1.3V56.1z M49.7,55.4c-0.5-0.4-0.8-1-0.8-1.8l-2.5,0.1c0.1,1.4,0.6,2.6,1.7,3.6L49.7,55.4z M46.5,53
		c-1.3,2-3.1,3-5.6,3v2.5c3.4,0,6-1.4,7.8-4.2L46.5,53z M45.7,54.8c1.1,0,2-0.4,2.7-1.2l-1.8-1.7c-0.3,0.3-0.6,0.4-0.9,0.4V54.8z
		 M48.7,52.7V42.6h-2.5v10.1H48.7z M46.4,41.9c-0.2,0.3-0.6,0.9-1.4,1.6l1.8,1.8c0.8-0.8,1.4-1.5,1.8-2.1L46.4,41.9z M45,43.5
		c-0.9,0.9-1.7,1.8-2.2,2.7l2.2,1.2c0.4-0.7,0.9-1.4,1.7-2.2L45,43.5z M42.8,46.2c-0.6,1-0.8,2.3-0.8,3.8h2.5c0-1.2,0.2-2,0.5-2.5
		L42.8,46.2z M42,50c0,1.3,0.2,2.4,0.8,3.3c0.7,1,1.7,1.4,2.9,1.4v-2.5c-0.5,0-0.7-0.1-0.8-0.3c-0.2-0.3-0.4-0.8-0.4-1.9H42z
		 M100.5,55.3l-1,0.8l0,0l0,0L100.5,55.3z M102.6,56h1.3v-1.3h-1.3V56z M102.6,57l0,1.3l1.3,0V57H102.6z M89.5,57h-1.3v1.3l1.3-0.1
		L89.5,57z M89.5,56v-1.3h-1.3V56H89.5z M90.9,55.3l-1.1-0.6l0,0L90.9,55.3z M90.7,34.7l-1,0.7l0,0l0,0L90.7,34.7z M86.6,35
		l-0.9-0.9l0,0l0,0L86.6,35z M85.3,37.5l-1.2-0.2l0,0.2l0,0.2L85.3,37.5z M87.6,56h1.3v-1.3h-1.3V56z M87.6,57l-0.1,1.3l1.3,0.1V57
		H87.6z M75.1,57h-1.3v1.3l1.3-0.1L75.1,57z M75.1,56v-1.3h-1.3V56H75.1z M76.4,55.3l1.1,0.6l0,0l0,0L76.4,55.3z M76.4,34.7
		l-1.1,0.6l0,0l0,0L76.4,34.7z M72.5,34.9l0.9,0.9l0,0L72.5,34.9z M71.8,55.3l1.1-0.6l0,0L71.8,55.3z M73.2,56h1.3v-1.3h-1.3V56z
		 M73.2,57l-0.1,1.3l1.3,0.1V57H73.2z M60.1,57h-1.3v1.3l1.3,0L60.1,57z M60.1,56v-1.3h-1.3V56H60.1z M62.2,55.3l-1-0.8l0,0
		L62.2,55.3z M62.2,34.1l-1.1,0.6l0,0l0,0L62.2,34.1z M60.1,33.1h-1.3v1.3h1.3V33.1z M60.1,32.1l0.1-1.3l-1.4-0.1v1.4H60.1z
		 M71.5,31.6h1.3V30l-1.5,0.3L71.5,31.6z M71.5,35h-1.3v4.8l2.4-4.2L71.5,35z M84,33.3l-1,0.8l0,0L84,33.3z M85.1,35.6l-1.2,0.3
		l0.8,3.3l1.6-3L85.1,35.6z M88.3,32.4l0.5,1.1l0,0L88.3,32.4z M98.5,33.3l-1,0.8l0,0L98.5,33.3z M99.5,35.7L98.3,36l0,0L99.5,35.7z
		 M98.6,52.5c0,1.3,0.2,2.6,0.8,3.5l2-1.5c-0.1-0.2-0.3-0.7-0.3-2H98.6z M99.5,56.1c0.8,0.9,1.9,1.2,3.1,1.2v-2.5
		c-0.8,0-1.1-0.2-1.2-0.3L99.5,56.1z M101.3,56v1h2.5v-1H101.3z M102.6,55.7c-3.5-0.1-5.7-0.2-6.8-0.2v2.5c1,0,3.2,0.1,6.7,0.2
		L102.6,55.7z M95.8,55.5c-1.1,0-3.2,0.1-6.4,0.2l0.1,2.5c3.2-0.1,5.3-0.2,6.3-0.2V55.5z M90.8,57v-1h-2.5v1H90.8z M89.5,57.3
		c1,0,1.9-0.4,2.5-1.4l-2.2-1.2c0,0,0,0,0,0c0,0,0,0,0,0c0,0,0,0,0,0c0,0,0,0,0,0c0,0-0.1,0-0.2,0V57.3z M92,55.9
		c0.2-0.4,0.4-0.9,0.4-1.5c0.1-0.5,0.1-1.2,0.1-1.9H90c0,0.6,0,1.1-0.1,1.5c-0.1,0.4-0.1,0.6-0.2,0.6L92,55.9z M92.5,52.5V36.9H90
		v15.6H92.5z M92.5,36.9c0-1.1-0.2-2.2-0.9-3l-2,1.6c0.1,0.1,0.3,0.6,0.3,1.5H92.5z M91.7,34c-0.7-1-1.7-1.3-2.8-1.3v2.5
		c0.6,0,0.7,0.2,0.7,0.2L91.7,34z M88.9,32.7c-1.2,0-2.3,0.5-3.2,1.4l1.8,1.8c0.5-0.5,1-0.7,1.4-0.7V32.7z M85.7,34.1
		c-0.8,0.9-1.4,2-1.6,3.2l2.5,0.4c0.1-0.7,0.4-1.3,0.9-1.8L85.7,34.1z M84.1,37.6c0.1,0.7,0.1,1.4,0.1,2h2.5c0-0.7,0-1.4-0.1-2.2
		L84.1,37.6z M84.2,39.5v13h2.5v-13H84.2z M84.2,52.5c0,0.7,0,1.4,0.1,1.9c0.1,0.5,0.3,1.1,0.6,1.5l2.1-1.4c0,0-0.1-0.2-0.2-0.6
		c-0.1-0.4-0.1-0.8-0.1-1.5H84.2z M84.9,56c0.6,1,1.7,1.3,2.8,1.3v-2.5c-0.3,0-0.5,0-0.6-0.1c-0.1,0-0.1-0.1-0.1-0.1L84.9,56z
		 M86.4,56v1h2.5v-1H86.4z M87.7,55.7c-3.2-0.1-5.3-0.2-6.3-0.2v2.5c0.9,0,3,0.1,6.2,0.2L87.7,55.7z M81.4,55.5
		c-1.1,0-3.2,0.1-6.4,0.2l0.1,2.5c3.2-0.1,5.3-0.2,6.3-0.2V55.5z M76.3,57v-1h-2.5v1H76.3z M75.1,57.3c1,0,1.9-0.4,2.5-1.4l-2.2-1.2
		c0,0,0,0,0,0c0,0,0,0,0,0c0,0,0,0,0,0c0,0,0,0,0,0c0,0-0.1,0-0.2,0V57.3z M77.5,55.8c0.4-0.8,0.5-2,0.5-3.3h-2.5
		c0,1.3-0.1,1.9-0.3,2.2L77.5,55.8z M78.1,52.5V36.9h-2.5v15.6H78.1z M78.1,36.9c0-1.1-0.1-2.1-0.6-2.9l-2.2,1.3
		c0.1,0.2,0.3,0.6,0.3,1.6H78.1z M77.5,34.1c-0.5-1-1.5-1.4-2.5-1.4v2.5c0.2,0,0.3,0,0.3,0c0,0,0,0,0.1,0.1L77.5,34.1z M74.9,32.7
		c-1.3,0-2.4,0.5-3.3,1.4l1.7,1.8c0.5-0.5,1-0.7,1.6-0.7V32.7z M71.6,34c-0.9,0.9-1.4,2.1-1.4,3.4h2.5c0-0.7,0.2-1.2,0.6-1.5
		L71.6,34z M70.2,37.4v15.2h2.5V37.4H70.2z M70.2,52.5c0,0.7,0,1.3,0.1,1.9c0.1,0.5,0.2,1,0.4,1.5l2.2-1.2c0,0-0.1-0.2-0.2-0.6
		c-0.1-0.4-0.1-0.9-0.1-1.5H70.2z M70.7,55.9c0.5,1,1.5,1.4,2.5,1.4v-2.5c-0.1,0-0.1,0-0.2,0c0,0,0,0,0,0c0,0,0,0,0,0c0,0,0,0,0,0
		c0,0,0,0,0,0L70.7,55.9z M71.9,56v1h2.5v-1H71.9z M73.2,55.7c-2.9-0.1-4.9-0.2-5.9-0.2v2.5c0.9,0,2.9,0.1,5.8,0.2L73.2,55.7z
		 M67.3,55.5c-1.1,0-3.5,0.1-7.2,0.2l0.1,2.5c3.7-0.1,6.1-0.2,7.2-0.2V55.5z M61.4,57v-1h-2.5v1H61.4z M60.1,57.3
		c1.1,0,2.3-0.3,3-1.2l-2-1.6c0,0-0.2,0.2-1.1,0.2V57.3z M63.2,56.1c0.7-0.9,0.9-2.2,0.9-3.5h-2.5c0,1.3-0.2,1.8-0.3,1.9L63.2,56.1z
		 M64.1,52.5V37.3h-2.5v15.2H64.1z M64.1,37.3c0-1.5-0.2-2.9-0.8-3.9l-2.1,1.3c0.2,0.4,0.4,1.1,0.4,2.6H64.1z M63.3,33.5
		c-0.7-1.2-1.9-1.6-3.2-1.6v2.5c0.7,0,0.9,0.2,1,0.4L63.3,33.5z M61.4,33.1v-1h-2.5v1H61.4z M60,33.3c1.1,0.1,2.1,0.1,3.1,0.1V31
		c-0.9,0-1.9,0-2.9-0.1L60,33.3z M63.1,33.5c3.4,0,6.3-0.2,8.6-0.7l-0.5-2.5c-2.1,0.4-4.8,0.6-8.1,0.6V33.5z M70.2,31.6V35h2.5v-3.5
		H70.2z M72.6,35.6c1.1-1.9,3-3,6.1-3v-2.5c-3.7,0-6.6,1.3-8.3,4.2L72.6,35.6z M78.6,32.7c2.4,0,3.7,0.6,4.5,1.5l1.9-1.6
		c-1.4-1.7-3.7-2.4-6.4-2.4V32.7z M83.1,34.1c0.3,0.4,0.6,1,0.8,1.7l2.5-0.6c-0.3-1.1-0.7-2-1.3-2.8L83.1,34.1z M86.2,36.2
		c0.7-1.3,1.6-2.2,2.6-2.7l-1.1-2.3c-1.6,0.7-2.9,2-3.8,3.8L86.2,36.2z M88.8,33.5c1.1-0.5,2.5-0.8,4.3-0.8v-2.5
		c-2,0-3.8,0.3-5.3,1.1L88.8,33.5z M93.1,32.7c2.4,0,3.7,0.6,4.5,1.5l1.9-1.6c-1.4-1.7-3.7-2.4-6.4-2.4V32.7z M97.5,34.1
		c0.3,0.4,0.6,1,0.8,1.8l2.5-0.6c-0.3-1.1-0.7-2.1-1.3-2.9L97.5,34.1z M98.3,36c0.2,0.8,0.3,2,0.3,3.6h2.5c0-1.6-0.1-3-0.4-4.1
		L98.3,36z M98.6,39.5v13h2.5v-13H98.6z M105.7,55.7l-0.9,0.9l0,0l0,0L105.7,55.7z M105.3,48l-1-0.8l0,0L105.3,48z M107.9,45.8
		l-0.6-1.1l0,0L107.9,45.8z M111.9,44.2l-0.4-1.2l0,0L111.9,44.2z M115.7,42.6l0.6,1.1l0,0L115.7,42.6z M116.2,33.6l1.1-0.7l0,0
		L116.2,33.6z M110.8,33.2l-0.7-1l-2.1,1.4l2.4,0.8L110.8,33.2z M113.2,34.9l-1.1,0.7l0,0l0,0L113.2,34.9z M112.7,40.4l0.8,1l0,0
		L112.7,40.4z M106.6,40.4l-0.9,0.8l0,0l0,0L106.6,40.4z M106.2,34.9l-1-0.7l0,0L106.2,34.9z M108.5,33l0.6,1.1l0,0L108.5,33z
		 M120.7,31.9l-0.3,1.2l0,0l0,0L120.7,31.9z M124,33.8l0.9-0.9l0,0L124,33.8z M125.2,36.4l-1.2,0.2l0,0l0,0L125.2,36.4z M125.7,55
		l-1.2,0.4l0,0.1l0,0.1L125.7,55z M127,55.3l0.6,1.1l0.1,0l0,0L127,55.3z M127.8,54.7l1.1-0.6l-0.8-1.3l-1.1,1L127.8,54.7z
		 M128.2,55.6l0.8,1l0.8-0.7l-0.5-0.9L128.2,55.6z M118.3,56.4l-0.8,0.9l0,0l0,0L118.3,56.4z M117.1,53.7l1.3-0.1l-0.2-4L116,53
		L117.1,53.7z M116.9,52.7l0.9,0.9l0.3-0.4v-0.5H116.9z M116.9,42.6h1.3V38l-2.3,3.9L116.9,42.6z M115.3,44.4l0.9,0.9l0,0l0,0
		L115.3,44.4z M113.4,46.9l1.1,0.6l0,0l0,0L113.4,46.9z M110.3,56.1c-1.8,0-3-0.5-3.8-1.2l-1.8,1.8c1.4,1.4,3.3,2,5.6,2V56.1z
		 M106.6,54.9c-0.8-0.9-1.2-1.9-1.2-3.3h-2.5c0,1.9,0.6,3.7,1.9,5L106.6,54.9z M105.4,51.5c0-1.2,0.3-2.1,0.8-2.8l-2-1.6
		c-0.9,1.2-1.4,2.7-1.4,4.3H105.4z M106.2,48.8c0.7-0.8,1.4-1.4,2.3-1.9l-1.1-2.3c-1.2,0.6-2.2,1.5-3.1,2.5L106.2,48.8z M108.5,46.9
		c1-0.5,2.2-1,3.8-1.5l-0.8-2.4c-1.7,0.6-3.1,1.1-4.2,1.7L108.5,46.9z M112.3,45.4c1.7-0.6,3.1-1.1,4-1.7l-1.3-2.2
		c-0.7,0.4-1.8,0.9-3.5,1.5L112.3,45.4z M116.4,43.7c1.1-0.7,1.8-1.7,1.8-3.1h-2.5c0,0.4-0.1,0.7-0.6,0.9L116.4,43.7z M118.2,40.6
		v-4.3h-2.5v4.3H118.2z M118.2,36.3c0-1.2-0.3-2.4-1-3.4l-2.1,1.4c0.4,0.6,0.6,1.3,0.6,2.1H118.2z M117.2,32.9
		c-0.8-1.3-2.2-1.8-3.7-1.8v2.5c1,0,1.4,0.3,1.6,0.6L117.2,32.9z M113.5,31.1c-1.2,0-2.4,0.3-3.4,1l1.4,2.1c0.6-0.4,1.2-0.6,2-0.6
		V31.1z M110.4,34.4c0.9,0.3,1.4,0.7,1.8,1.2l2.1-1.4c-0.7-1-1.8-1.8-3-2.2L110.4,34.4z M112.2,35.7c0.4,0.5,0.6,1.1,0.6,1.7h2.5
		c0-1.2-0.4-2.3-1.1-3.2L112.2,35.7z M112.8,37.4c0,0.9-0.3,1.6-0.9,2.1l1.6,1.9c1.2-1,1.8-2.4,1.8-4H112.8z M111.9,39.5
		c-0.6,0.5-1.4,0.8-2.3,0.8v2.5c1.5,0,2.9-0.5,4-1.4L111.9,39.5z M109.5,40.3c-1,0-1.6-0.3-2.1-0.8l-1.8,1.7c1,1.1,2.4,1.5,3.9,1.5
		V40.3z M107.5,39.6c-0.5-0.5-0.7-1.2-0.7-2.2h-2.5c0,1.5,0.4,2.8,1.4,3.9L107.5,39.6z M106.8,37.4c0-0.7,0.2-1.3,0.5-1.8l-2.1-1.4
		c-0.6,0.9-0.9,2-0.9,3.2H106.8z M107.3,35.6c0.3-0.5,0.9-1,1.8-1.5l-1.2-2.2c-1.1,0.6-2.1,1.4-2.7,2.3L107.3,35.6z M109.1,34
		c1.5-0.9,3.8-1.4,7.1-1.4v-2.5c-3.4,0-6.2,0.5-8.3,1.7L109.1,34z M116.2,32.7c1.7,0,3.1,0.2,4.2,0.5l0.7-2.4
		c-1.4-0.4-3.1-0.6-4.9-0.6V32.7z M120.4,33.2c1.1,0.3,1.9,0.8,2.7,1.5l1.8-1.8c-1.1-1.1-2.4-1.8-3.9-2.2L120.4,33.2z M123.1,34.7
		c0.5,0.5,0.8,1.1,0.9,1.9l2.5-0.5c-0.2-1.2-0.7-2.3-1.6-3.2L123.1,34.7z M124,36.6c0.2,0.9,0.3,2.1,0.3,3.9h2.5
		c0-1.8-0.1-3.3-0.4-4.5L124,36.6z M124.3,40.5v12.9h2.5V40.5H124.3z M124.3,53.4c0,0.8,0,1.5,0.2,2l2.4-0.8c0,0,0,0,0-0.1
		c0-0.1,0-0.1,0-0.3c0-0.2,0-0.5,0-0.9H124.3z M124.5,55.5c0.1,0.3,0.4,0.6,0.7,0.8c0.3,0.2,0.7,0.3,1.1,0.3v-2.5
		c0.1,0,0.2,0,0.3,0.1c0.1,0.1,0.2,0.2,0.2,0.2L124.5,55.5z M126.3,56.7c0.5,0,0.9-0.1,1.3-0.3l-1.1-2.3c-0.1,0.1-0.2,0.1-0.2,0.1
		V56.7z M127.7,56.3c0.3-0.2,0.6-0.4,0.9-0.6l-1.6-1.9c-0.2,0.2-0.4,0.3-0.6,0.4L127.7,56.3z M126.7,55.4l0.5,0.8l2.2-1.3l-0.5-0.8
		L126.7,55.4z M127.4,54.6c-1.1,0.9-2.7,1.5-5.1,1.5v2.5c2.7,0,5-0.6,6.7-2.1L127.4,54.6z M122.3,56.1c-1.9,0-2.8-0.3-3.2-0.7
		l-1.6,1.9c1.1,0.9,2.9,1.3,4.8,1.3V56.1z M119.1,55.4c-0.5-0.4-0.8-1-0.8-1.8l-2.5,0.1c0.1,1.4,0.6,2.6,1.7,3.6L119.1,55.4z
		 M116,53c-1.3,2-3.1,3-5.6,3v2.5c3.4,0,6-1.4,7.8-4.2L116,53z M115.1,54.8c1.1,0,2-0.4,2.7-1.2l-1.8-1.7c-0.3,0.3-0.6,0.4-0.9,0.4
		V54.8z M118.2,52.7V42.6h-2.5v10.1H118.2z M115.8,41.9c-0.2,0.3-0.6,0.9-1.4,1.6l1.8,1.8c0.8-0.8,1.4-1.5,1.8-2.1L115.8,41.9z
		 M114.5,43.5c-0.9,0.9-1.7,1.8-2.2,2.7l2.2,1.2c0.4-0.7,0.9-1.4,1.7-2.2L114.5,43.5z M112.3,46.2c-0.6,1-0.8,2.3-0.8,3.8h2.5
		c0-1.2,0.2-2,0.5-2.5L112.3,46.2z M111.4,50c0,1.3,0.2,2.4,0.8,3.3c0.7,1,1.7,1.4,2.9,1.4v-2.5c-0.5,0-0.7-0.1-0.8-0.3
		c-0.2-0.3-0.4-0.8-0.4-1.9H111.4z M150.4,49.2l0.4-1.2l-0.9-0.3l-0.6,0.8L150.4,49.2z M151.2,49.5l1.2,0.4l0.4-1.2l-1.1-0.4
		L151.2,49.5z M147.6,55.3l-0.9-0.9l0,0L147.6,55.3z M133.1,54.6l0.9-0.9l0,0L133.1,54.6z M133.4,34.7l0.9,0.9v0L133.4,34.7z
		 M151.5,42.2v1.3h1.3v-1.3H151.5z M139.1,42.2v-1.3h-1.2l-0.1,1.2L139.1,42.2z M140.6,50.5l-1,0.8l0,0l0,0L140.6,50.5z M138.9,41.3
		l-1.3-0.1l-0.1,1.3h1.3V41.3z M144.5,41.3v1.3h1.2l0-1.2L144.5,41.3z M143.9,35l-1.2,0.3l0,0l0,0L143.9,35z M144.6,53.7
		c2.8,0,5.1-1.3,6.8-3.7l-2.1-1.5c-1.3,1.9-2.9,2.7-4.8,2.7V53.7z M150,50.4l0.8,0.3l0.8-2.4l-0.8-0.3L150,50.4z M150,49.1
		c-0.6,2-1.7,3.8-3.3,5.2l1.7,1.8c1.9-1.7,3.2-3.9,3.9-6.3L150,49.1z M146.7,54.4c-1.4,1.3-3.2,2-5.6,2v2.5c2.9,0,5.4-0.9,7.3-2.8
		L146.7,54.4z M141.2,56.4c-3.1,0-5.4-0.9-7.2-2.7l-1.8,1.8c2.3,2.4,5.3,3.5,9,3.5V56.4z M134,53.7c-1.7-1.7-2.7-4.7-2.7-9.1h-2.5
		c0,4.7,1,8.4,3.4,10.9L134,53.7z M131.3,44.6c0-4.2,1.1-7.1,3-8.9l-1.8-1.8c-2.6,2.5-3.7,6.2-3.7,10.7H131.3z M134.3,35.6
		c2-1.9,4.7-3,8.1-3v-2.5c-4,0-7.3,1.2-9.9,3.7L134.3,35.6z M142.4,32.7c2.8,0,4.6,0.8,5.8,2.2c1.2,1.5,2,3.8,2,7.3h2.5
		c0-3.7-0.8-6.8-2.6-8.9c-1.8-2.2-4.5-3.1-7.8-3.1V32.7z M151.5,40.9h-12.4v2.5h12.4V40.9z M137.8,42.1c0,0.4-0.1,1.1-0.1,1.8h2.5
		c0-0.8,0-1.3,0-1.6L137.8,42.1z M137.8,43.9c0,3.2,0.5,5.7,1.9,7.4l2-1.6c-0.8-1-1.3-2.8-1.3-5.8H137.8z M139.7,51.3
		c1.3,1.6,3,2.4,4.9,2.4v-2.5c-1.1,0-2.1-0.5-3-1.5L139.7,51.3z M142.1,31.3c-1.8,0-2.8,1.5-3.3,3c-0.6,1.6-0.9,4-1.1,6.9l2.5,0.1
		c0.2-2.9,0.5-4.9,1-6.2c0.5-1.4,0.9-1.4,0.9-1.4V31.3z M138.9,42.5h5.6V40h-5.6V42.5z M145.7,41.3c0-2.6-0.2-4.8-0.6-6.6l-2.4,0.6
		c0.4,1.5,0.6,3.5,0.5,6L145.7,41.3z M145.1,34.7c-0.2-0.9-0.5-1.7-1-2.3c-0.5-0.6-1.2-1.1-2.1-1.1v2.5c0,0,0,0,0,0c0,0,0,0,0,0
		c0,0,0,0,0,0c0,0,0,0,0.1,0.1c0.2,0.2,0.4,0.6,0.5,1.4L145.1,34.7z"/>
</g>
</svg>
