<svg width="320" height="143" viewBox="0 0 320 143" fill="none" xmlns="http://www.w3.org/2000/svg">
<g filter="url(#filter0_b)">
<path d="M39.136 31.04L38.827 31.4332L38.8338 31.4383L39.136 31.04ZM39.136 43.328L38.8338 42.9296L38.8271 42.9348L39.136 43.328ZM23.68 43.328L23.9889 42.9348L23.9889 42.9348L23.68 43.328ZM23.68 31.04L23.9889 31.4332L23.9889 31.4332L23.68 31.04ZM41.824 100.544L41.424 100.844L41.4346 100.858L41.4462 100.871L41.824 100.544ZM46.048 101.984H46.548V101.484H46.048V101.984ZM46.048 104L46.0295 104.5L46.548 104.519V104H46.048ZM18.016 104H17.516V104.518L18.0332 104.5L18.016 104ZM18.016 101.984V101.484H17.516V101.984H18.016ZM22.144 100.544L21.7559 100.229L21.7536 100.232L22.144 100.544ZM22.144 58.208L21.7099 58.4561L21.7142 58.4637L21.7189 58.4712L22.144 58.208ZM18.016 56.192H17.516V56.692H18.016V56.192ZM18.016 54.176L18.0627 53.6782L17.516 53.6269V54.176H18.016ZM40.672 53.12H41.172V52.5101L40.5739 52.6297L40.672 53.12ZM31.456 29.428C34.7218 29.428 37.1557 30.1199 38.8271 31.4332L39.4449 30.6468C37.5323 29.1441 34.8462 28.428 31.456 28.428V29.428ZM38.8338 31.4383C40.5449 32.7364 41.42 34.6251 41.42 37.184H42.42C42.42 34.3669 41.4391 32.1596 39.4382 30.6416L38.8338 31.4383ZM41.42 37.184C41.42 39.7429 40.5449 41.6316 38.8338 42.9297L39.4382 43.7263C41.4391 42.2084 42.42 40.0011 42.42 37.184H41.42ZM38.8271 42.9348C37.1557 44.2481 34.7218 44.94 31.456 44.94V45.94C34.8462 45.94 37.5323 45.2239 39.4449 43.7212L38.8271 42.9348ZM31.456 44.94C28.1236 44.94 25.6589 44.247 23.9889 42.9348L23.3711 43.7212C25.2851 45.225 28.0044 45.94 31.456 45.94V44.94ZM23.9889 42.9348C22.3399 41.6392 21.492 39.7494 21.492 37.184H20.492C20.492 39.9946 21.4361 42.2008 23.3711 43.7212L23.9889 42.9348ZM21.492 37.184C21.492 34.6186 22.3399 32.7288 23.9889 31.4332L23.3711 30.6468C21.4361 32.1672 20.492 34.3734 20.492 37.184H21.492ZM23.9889 31.4332C25.6589 30.121 28.1236 29.428 31.456 29.428V28.428C28.0044 28.428 25.2851 29.143 23.3711 30.6468L23.9889 31.4332ZM40.172 95.072C40.172 97.7103 40.5513 99.6804 41.424 100.844L42.224 100.244C41.5607 99.3596 41.172 97.6817 41.172 95.072H40.172ZM41.4462 100.871C42.4157 101.99 44 102.484 46.048 102.484V101.484C44.128 101.484 42.8963 101.018 42.2018 100.217L41.4462 100.871ZM45.548 101.984V104H46.548V101.984H45.548ZM46.0665 103.5C39.1564 103.244 34.6029 103.116 32.416 103.116V104.116C34.5811 104.116 39.1156 104.244 46.0295 104.5L46.0665 103.5ZM32.416 103.116C30.2297 103.116 25.4205 103.244 17.9988 103.5L18.0332 104.5C25.4595 104.244 30.2503 104.116 32.416 104.116V103.116ZM18.516 104V101.984H17.516V104H18.516ZM18.016 102.484C20.0592 102.484 21.6258 101.992 22.5344 100.856L21.7536 100.232C21.1262 101.016 19.9408 101.484 18.016 101.484V102.484ZM22.5321 100.859C23.4799 99.6927 23.892 97.7147 23.892 95.072H22.892C22.892 97.6773 22.4721 99.3473 21.7559 100.229L22.5321 100.859ZM23.892 95.072V64.64H22.892V95.072H23.892ZM23.892 64.64C23.892 61.6711 23.4765 59.4106 22.5691 57.9448L21.7189 58.4712C22.4755 59.6934 22.892 61.7209 22.892 64.64H23.892ZM22.5781 57.9599C21.6955 56.4153 20.121 55.692 18.016 55.692V56.692C19.879 56.692 21.0565 57.3127 21.7099 58.4561L22.5781 57.9599ZM18.516 56.192V54.176H17.516V56.192H18.516ZM17.9693 54.6738C20.0318 54.8672 22.0314 54.964 23.968 54.964V53.964C22.0646 53.964 20.0962 53.8688 18.0627 53.6782L17.9693 54.6738ZM23.968 54.964C30.6434 54.964 36.2468 54.5149 40.7701 53.6103L40.5739 52.6297C36.1372 53.5171 30.6046 53.964 23.968 53.964V54.964ZM40.172 53.12V95.072H41.172V53.12H40.172ZM71.8795 54.176H71.3795V54.676H71.8795V54.176ZM81.2875 54.176H81.7875V53.676H81.2875V54.176ZM81.2875 56.096V56.596H81.7875V56.096H81.2875ZM71.8795 56.096V55.596H71.3795V56.096H71.8795ZM77.3515 98.72L77.5629 99.1731L77.5629 99.1731L77.3515 98.72ZM79.9435 96.608L80.2559 96.2176L79.8654 95.9052L79.5531 96.2957L79.9435 96.608ZM81.3835 97.76L81.8156 98.0116L82.0326 97.6389L81.6958 97.3696L81.3835 97.76ZM57.8635 102.08L58.2171 101.726L58.2171 101.726L57.8635 102.08ZM55.1755 97.088L54.6846 97.183L54.6861 97.1906L54.6878 97.1981L55.1755 97.088ZM54.5995 56.096H55.0995V55.596H54.5995V56.096ZM47.3035 56.096H46.8035V56.596H47.3035V56.096ZM47.3035 54.176V53.676H46.8035V54.176H47.3035ZM54.5995 54.176V54.676H55.0995V54.176H54.5995ZM54.5995 42.848V42.348H54.0995V42.848H54.5995ZM63.9115 41.888L64.0248 42.3751L64.0328 42.3731L63.9115 41.888ZM71.8795 38.624H72.3795V37.7486L71.6255 38.1933L71.8795 38.624ZM71.8795 54.676H81.2875V53.676H71.8795V54.676ZM80.7875 54.176V56.096H81.7875V54.176H80.7875ZM81.2875 55.596H71.8795V56.596H81.2875V55.596ZM71.3795 56.096V95.936H72.3795V56.096H71.3795ZM71.3795 95.936C71.3795 97.2434 71.6021 98.2982 72.1752 98.9533L72.9278 98.2947C72.6049 97.9258 72.3795 97.1886 72.3795 95.936H71.3795ZM72.1752 98.9533C72.7577 99.6189 73.6647 99.892 74.7595 99.892V98.892C73.8063 98.892 73.2413 98.6531 72.9278 98.2947L72.1752 98.9533ZM74.7595 99.892C75.6228 99.892 76.5604 99.641 77.5629 99.1731L77.1401 98.2669C76.2226 98.695 75.4322 98.892 74.7595 98.892V99.892ZM77.5629 99.1731C78.603 98.6877 79.5256 97.9308 80.3339 96.9203L79.5531 96.2957C78.8254 97.2052 78.02 97.8563 77.1401 98.2669L77.5629 99.1731ZM79.6312 96.9984L81.0712 98.1504L81.6958 97.3696L80.2559 96.2176L79.6312 96.9984ZM80.9514 97.5084C78.1023 102.401 73.7285 104.844 67.7515 104.844V105.844C74.0625 105.844 78.7767 103.231 81.8156 98.0116L80.9514 97.5084ZM67.7515 104.844C63.4101 104.844 60.265 103.774 58.2171 101.726L57.5099 102.434C59.814 104.738 63.2609 105.844 67.7515 105.844V104.844ZM58.2171 101.726C56.9446 100.454 56.0919 98.8764 55.6632 96.9779L54.6878 97.1981C55.1551 99.2676 56.0944 101.018 57.5099 102.434L58.2171 101.726ZM55.6664 96.993C55.2914 95.0554 55.0995 92.3085 55.0995 88.736H54.0995C54.0995 92.3315 54.2916 95.1526 54.6846 97.183L55.6664 96.993ZM55.0995 88.736V56.096H54.0995V88.736H55.0995ZM54.5995 55.596H47.3035V56.596H54.5995V55.596ZM47.8035 56.096V54.176H46.8035V56.096H47.8035ZM47.3035 54.676H54.5995V53.676H47.3035V54.676ZM55.0995 54.176V42.848H54.0995V54.176H55.0995ZM54.5995 43.348C58.0855 43.348 61.2285 43.0253 64.0248 42.375L63.7982 41.401C61.0905 42.0307 58.0255 42.348 54.5995 42.348V43.348ZM64.0328 42.3731C66.8953 41.6574 69.596 40.5511 72.1335 39.0547L71.6255 38.1933C69.171 39.6409 66.5597 40.7106 63.7902 41.4029L64.0328 42.3731ZM71.3795 38.624V54.176H72.3795V38.624H71.3795ZM86.434 101.408L86.065 101.745L86.07 101.751L86.0752 101.756L86.434 101.408ZM85.57 85.952L85.1796 85.6396L85.1783 85.6413L85.57 85.952ZM90.946 81.536L90.7224 81.0888L90.7224 81.0888L90.946 81.536ZM98.914 78.368L98.7559 77.8937L98.7559 77.8937L98.914 78.368ZM106.498 75.2L106.755 75.6287L106.755 75.6287L106.498 75.2ZM107.362 57.152L107.783 56.8825L107.783 56.8825L107.362 57.152ZM96.706 56.384L96.4248 55.9705L95.6073 56.5265L96.5396 56.8555L96.706 56.384ZM101.506 59.84L101.09 60.1173L101.097 60.1274L101.104 60.1372L101.506 59.84ZM100.45 70.88L100.774 71.2606L100.775 71.2596L100.45 70.88ZM88.162 70.784L87.7866 71.1143L87.7937 71.1223L87.801 71.13L88.162 70.784ZM87.49 59.744L87.0769 59.4623L87.0769 59.4623L87.49 59.744ZM92.002 55.904L92.2471 56.3398L92.2501 56.3381L92.002 55.904ZM116.482 53.888L116.349 54.3702L116.361 54.3731L116.482 53.888ZM123.01 57.632L123.372 57.2872L123.37 57.2847L123.01 57.632ZM125.506 62.72L125.015 62.8121L125.016 62.8212L125.018 62.8301L125.506 62.72ZM126.466 100.064L125.992 100.222L125.999 100.245L126.009 100.267L126.466 100.064ZM129.154 100.544L129.378 100.991L129.399 100.981L129.419 100.968L129.154 100.544ZM130.594 99.488L131.025 99.2345L130.722 98.7196L130.269 99.1084L130.594 99.488ZM131.554 101.12L131.88 101.499L132.197 101.227L131.985 100.866L131.554 101.12ZM111.682 102.752L111.353 103.128L111.362 103.136L111.682 102.752ZM109.186 97.376L109.685 97.3475L109.595 95.7645L108.761 97.113L109.186 97.376ZM108.898 95.36L109.262 95.7027L109.398 95.5583V95.36H108.898ZM108.898 75.104H109.398V73.2988L108.469 74.8467L108.898 75.104ZM105.73 78.848L106.077 79.2082L106.084 79.2016L105.73 78.848ZM101.794 83.744L102.226 83.996L102.23 83.9883L101.794 83.744ZM95.746 104.172C91.7362 104.172 88.7812 103.108 86.7928 101.06L86.0752 101.756C88.3108 104.06 91.5638 105.172 95.746 105.172V104.172ZM86.803 101.071C84.8477 98.932 83.862 96.2722 83.862 93.056H82.862C82.862 96.4958 83.9243 99.404 86.065 101.745L86.803 101.071ZM83.862 93.056C83.862 90.2637 84.574 88.0125 85.9617 86.2627L85.1783 85.6413C83.622 87.6035 82.862 90.0883 82.862 93.056H83.862ZM85.9604 86.2643C87.4546 84.3966 89.191 82.9725 91.1696 81.9832L90.7224 81.0888C88.605 82.1475 86.7574 83.6674 85.1796 85.6397L85.9604 86.2643ZM91.1696 81.9832C93.1888 80.9736 95.8206 79.9262 99.0721 78.8423L98.7559 77.8937C95.4794 78.9858 92.7992 80.0504 90.7224 81.0888L91.1696 81.9832ZM99.0721 78.8423C102.537 77.6875 105.107 76.6178 106.755 75.6287L106.241 74.7713C104.689 75.7022 102.203 76.7445 98.7559 77.8937L99.0721 78.8423ZM106.755 75.6287C108.491 74.5871 109.398 73.088 109.398 71.168H108.398C108.398 72.704 107.705 73.8929 106.241 74.7713L106.755 75.6287ZM109.398 71.168V62.624H108.398V71.168H109.398ZM109.398 62.624C109.398 60.4882 108.863 58.5692 107.783 56.8825L106.941 57.4215C107.909 58.9347 108.398 60.6637 108.398 62.624H109.398ZM107.783 56.8825C106.639 55.0947 104.688 54.252 102.082 54.252V55.252C104.468 55.252 106.037 56.0093 106.941 57.4215L107.783 56.8825ZM102.082 54.252C100 54.252 98.11 54.8246 96.4248 55.9705L96.9872 56.7975C98.502 55.7674 100.196 55.252 102.082 55.252V54.252ZM96.5396 56.8555C98.6395 57.5966 100.14 58.6918 101.09 60.1173L101.922 59.5626C100.824 57.9162 99.1245 56.7074 96.8724 55.9125L96.5396 56.8555ZM101.104 60.1372C102.127 61.5219 102.638 63.0814 102.638 64.832H103.638C103.638 62.8706 103.061 61.1021 101.908 59.5428L101.104 60.1372ZM102.638 64.832C102.638 67.1916 101.799 69.0654 100.125 70.5004L100.775 71.2596C102.685 69.6226 103.638 67.4644 103.638 64.832H102.638ZM100.126 70.4994C98.4974 71.8865 96.5039 72.588 94.114 72.588V73.588C96.7161 73.588 98.9466 72.8175 100.774 71.2606L100.126 70.4994ZM94.114 72.588C91.7287 72.588 89.8843 71.8586 88.523 70.438L87.801 71.13C89.3837 72.7814 91.5073 73.588 94.114 73.588V72.588ZM88.5374 70.4537C87.221 68.9578 86.55 67.0647 86.55 64.736H85.55C85.55 67.2713 86.287 69.4102 87.7866 71.1143L88.5374 70.4537ZM86.55 64.736C86.55 62.9033 87.0067 61.3404 87.9031 60.0257L87.0769 59.4623C86.0533 60.9636 85.55 62.7287 85.55 64.736H86.55ZM87.9031 60.0257C88.8065 58.7007 90.2422 57.4675 92.2471 56.3398L91.7569 55.4682C89.6658 56.6445 88.0935 57.9713 87.0769 59.4623L87.9031 60.0257ZM92.2501 56.3381C95.7257 54.3521 100.745 53.332 107.362 53.332V52.332C100.667 52.332 95.4463 53.3599 91.7539 55.4699L92.2501 56.3381ZM107.362 53.332C110.851 53.332 113.844 53.6811 116.349 54.3701L116.615 53.4059C114 52.6869 110.913 52.332 107.362 52.332V53.332ZM116.361 54.3731C118.832 54.9909 120.925 56.1922 122.65 57.9793L123.37 57.2847C121.511 55.3598 119.252 54.0651 116.603 53.4029L116.361 54.3731ZM122.648 57.9768C123.853 59.2425 124.646 60.8471 125.015 62.8121L125.997 62.6279C125.598 60.4969 124.727 58.7095 123.372 57.2872L122.648 57.9768ZM125.018 62.8301C125.454 64.7606 125.678 67.5016 125.678 71.072H126.678C126.678 67.4744 126.454 64.6474 125.994 62.6099L125.018 62.8301ZM125.678 71.072V96.8H126.678V71.072H125.678ZM125.678 96.8C125.678 98.3935 125.771 99.559 125.992 100.222L126.94 99.9059C126.777 99.417 126.678 98.4065 126.678 96.8H125.678ZM126.009 100.267C126.165 100.618 126.385 100.915 126.685 101.123C126.988 101.333 127.339 101.428 127.714 101.428V100.428C127.513 100.428 127.368 100.379 127.255 100.301C127.139 100.221 127.023 100.086 126.923 99.8609L126.009 100.267ZM127.714 101.428C128.258 101.428 128.815 101.273 129.378 100.991L128.93 100.097C128.469 100.327 128.066 100.428 127.714 100.428V101.428ZM129.419 100.968C129.952 100.635 130.452 100.268 130.919 99.8676L130.269 99.1084C129.84 99.4757 129.38 99.813 128.889 100.12L129.419 100.968ZM130.163 99.7415L131.123 101.374L131.985 100.866L131.025 99.2345L130.163 99.7415ZM131.228 100.741C128.598 103.004 124.795 104.172 119.746 104.172V105.172C124.937 105.172 129.006 103.972 131.88 101.499L131.228 100.741ZM119.746 104.172C115.93 104.172 113.396 103.53 112.002 102.368L111.362 103.136C113.04 104.534 115.882 105.172 119.746 105.172V104.172ZM112.011 102.376C110.587 101.129 109.806 99.4681 109.685 97.3475L108.687 97.4045C108.822 99.7639 109.705 101.687 111.353 103.128L112.011 102.376ZM108.761 97.113C105.848 101.823 101.533 104.172 95.746 104.172V105.172C101.863 105.172 106.508 102.657 109.611 97.639L108.761 97.113ZM105.346 97.492C106.844 97.492 108.155 96.8787 109.262 95.7027L108.534 95.0173C107.593 96.0173 106.536 96.492 105.346 96.492V97.492ZM109.398 95.36V75.104H108.398V95.36H109.398ZM108.469 74.8467C107.926 75.7527 106.905 76.9657 105.376 78.4944L106.084 79.2016C107.627 77.6583 108.718 76.3753 109.327 75.3612L108.469 74.8467ZM105.383 78.4878C103.63 80.176 102.284 81.8461 101.358 83.4997L102.23 83.9883C103.096 82.4419 104.374 80.848 106.077 79.2082L105.383 78.4878ZM101.362 83.4921C100.404 85.134 99.95 87.3453 99.95 90.08H100.95C100.95 87.4387 101.392 85.426 102.226 83.9959L101.362 83.4921ZM99.95 90.08C99.95 92.4278 100.363 94.2782 101.266 95.553C102.191 96.8594 103.581 97.492 105.346 97.492V96.492C103.847 96.492 102.789 95.9726 102.082 94.975C101.353 93.9458 100.95 92.3402 100.95 90.08H99.95ZM214.906 100.544L214.506 100.844L214.517 100.858L214.528 100.871L214.906 100.544ZM219.13 101.984H219.63V101.484H219.13V101.984ZM219.13 104L219.111 104.5L219.63 104.519V104H219.13ZM193.018 104H192.518V104.52L193.038 104.5L193.018 104ZM193.018 101.984V101.484H192.518V101.984H193.018ZM195.706 100.544L195.265 100.309L195.265 100.309L195.706 100.544ZM195.322 59.36L194.91 59.6433L194.92 59.6582L194.932 59.6723L195.322 59.36ZM187.162 59.936L186.808 59.5823L186.8 59.5908L187.162 59.936ZM184.666 64.928L184.173 64.8458L184.163 64.9073L184.168 64.9695L184.666 64.928ZM189.274 101.984H189.774V101.484H189.274V101.984ZM189.274 104L189.254 104.5L189.774 104.52V104H189.274ZM164.122 104H163.622V104.52L164.142 104.5L164.122 104ZM164.122 101.984V101.484H163.622V101.984H164.122ZM166.81 100.544L167.251 100.779L167.257 100.768L166.81 100.544ZM166.714 59.36L166.278 59.6052L166.285 59.6172L166.714 59.36ZM158.938 59.84L159.283 60.2021L159.283 60.2017L158.938 59.84ZM157.69 100.544L158.131 100.309L158.131 100.309L157.69 100.544ZM160.378 101.984H160.878V101.484H160.378V101.984ZM160.378 104L160.356 104.5L160.878 104.522V104H160.378ZM134.266 104H133.766V104.518L134.283 104.5L134.266 104ZM134.266 101.984V101.484H133.766V101.984H134.266ZM138.394 100.544L138.006 100.229L138.004 100.232L138.394 100.544ZM138.394 58.208L137.96 58.4561L137.964 58.4637L137.969 58.4712L138.394 58.208ZM134.266 56.192H133.766V56.692H134.266V56.192ZM134.266 54.176L134.313 53.6782L133.766 53.6269V54.176H134.266ZM156.922 53.12H157.422V52.5101L156.824 52.6297L156.922 53.12ZM156.922 60.032H156.422V61.9482L157.358 60.2763L156.922 60.032ZM182.074 56.672L181.688 56.9902L181.69 56.9921L182.074 56.672ZM184.186 61.184L183.7 61.3013L184.013 62.5985L184.629 61.415L184.186 61.184ZM190.522 54.752L190.732 55.2057L190.737 55.2034L190.522 54.752ZM210.97 56.672L210.584 56.9902L210.586 56.9921L210.97 56.672ZM213.082 61.376L212.594 61.4861L212.595 61.4896L213.082 61.376ZM213.254 95.072C213.254 97.7103 213.633 99.6804 214.506 100.844L215.306 100.244C214.643 99.3596 214.254 97.6817 214.254 95.072H213.254ZM214.528 100.871C215.498 101.99 217.082 102.484 219.13 102.484V101.484C217.21 101.484 215.978 101.018 215.284 100.217L214.528 100.871ZM218.63 101.984V104H219.63V101.984H218.63ZM219.149 103.5C212.239 103.244 207.749 103.116 205.69 103.116V104.116C207.727 104.116 212.197 104.244 219.111 104.5L219.149 103.5ZM205.69 103.116C203.63 103.116 199.396 103.244 192.998 103.5L193.038 104.5C199.44 104.244 203.654 104.116 205.69 104.116V103.116ZM193.518 104V101.984H192.518V104H193.518ZM193.018 102.484C194.443 102.484 195.531 101.934 196.147 100.779L195.265 100.309C194.857 101.074 194.153 101.484 193.018 101.484V102.484ZM196.147 100.779C196.443 100.224 196.646 99.4611 196.777 98.5255C196.909 97.5826 196.974 96.4297 196.974 95.072H195.974C195.974 96.4023 195.911 97.5054 195.787 98.3865C195.662 99.2749 195.481 99.9041 195.265 100.309L196.147 100.779ZM196.974 95.072V63.872H195.974V95.072H196.974ZM196.974 63.872C196.974 61.7798 196.585 60.1385 195.712 59.0476L194.932 59.6723C195.595 60.5015 195.974 61.8682 195.974 63.872H196.974ZM195.734 59.0767C194.907 57.8733 193.537 57.324 191.77 57.324V58.324C193.331 58.324 194.329 58.7987 194.91 59.6433L195.734 59.0767ZM191.77 57.324C189.948 57.324 188.29 58.1004 186.808 59.5824L187.516 60.2896C188.85 58.9556 190.264 58.324 191.77 58.324V57.324ZM186.8 59.5908C185.387 61.0713 184.509 62.8269 184.173 64.8458L185.159 65.0102C185.463 63.1891 186.249 61.6167 187.524 60.2812L186.8 59.5908ZM184.168 64.9695C184.295 66.4952 184.358 67.8569 184.358 69.056H185.358C185.358 67.8231 185.293 66.4328 185.164 64.8865L184.168 64.9695ZM184.358 69.056V95.072H185.358V69.056H184.358ZM184.358 95.072C184.358 96.4332 184.439 97.5923 184.606 98.5424C184.771 99.4861 185.027 100.259 185.402 100.821L186.234 100.267C185.969 99.8687 185.745 99.2499 185.59 98.3696C185.437 97.4957 185.358 96.3988 185.358 95.072H184.358ZM185.402 100.821C186.172 101.976 187.522 102.484 189.274 102.484V101.484C187.698 101.484 186.744 101.032 186.234 100.267L185.402 100.821ZM188.774 101.984V104H189.774V101.984H188.774ZM189.294 103.5C182.896 103.244 178.726 103.116 176.794 103.116V104.116C178.702 104.116 182.852 104.244 189.254 104.5L189.294 103.5ZM176.794 103.116C174.734 103.116 170.5 103.244 164.102 103.5L164.142 104.5C170.544 104.244 174.758 104.116 176.794 104.116V103.116ZM164.622 104V101.984H163.622V104H164.622ZM164.122 102.484C165.547 102.484 166.635 101.934 167.251 100.779L166.369 100.309C165.961 101.074 165.257 101.484 164.122 101.484V102.484ZM167.257 100.768C167.827 99.6287 168.078 97.6981 168.078 95.072H167.078C167.078 97.6939 166.817 99.4113 166.363 100.32L167.257 100.768ZM168.078 95.072V63.872H167.078V95.072H168.078ZM168.078 63.872C168.078 61.7975 167.79 60.1814 167.143 59.1027L166.285 59.6172C166.79 60.4586 167.078 61.8505 167.078 63.872H168.078ZM167.15 59.1149C166.471 57.9079 165.327 57.324 163.834 57.324V58.324C165.029 58.324 165.805 58.7641 166.278 59.6051L167.15 59.1149ZM163.834 57.324C161.843 57.324 160.089 58.0503 158.593 59.4783L159.283 60.2017C160.603 58.9417 162.113 58.324 163.834 58.324V57.324ZM158.593 59.4779C157.143 60.8593 156.422 62.6257 156.422 64.736H157.422C157.422 62.8783 158.045 61.3807 159.283 60.2021L158.593 59.4779ZM156.422 64.736V95.072H157.422V64.736H156.422ZM156.422 95.072C156.422 96.4297 156.487 97.5826 156.619 98.5255C156.75 99.4611 156.953 100.224 157.249 100.779L158.131 100.309C157.915 99.9041 157.734 99.2749 157.609 98.3865C157.485 97.5054 157.422 96.4023 157.422 95.072H156.422ZM157.249 100.779C157.865 101.934 158.953 102.484 160.378 102.484V101.484C159.243 101.484 158.539 101.074 158.131 100.309L157.249 100.779ZM159.878 101.984V104H160.878V101.984H159.878ZM160.4 103.5C154.514 103.245 150.599 103.116 148.666 103.116V104.116C150.573 104.116 154.466 104.243 160.356 104.5L160.4 103.5ZM148.666 103.116C146.48 103.116 141.671 103.244 134.249 103.5L134.283 104.5C141.709 104.244 146.5 104.116 148.666 104.116V103.116ZM134.766 104V101.984H133.766V104H134.766ZM134.266 102.484C136.309 102.484 137.876 101.992 138.784 100.856L138.004 100.232C137.376 101.016 136.191 101.484 134.266 101.484V102.484ZM138.782 100.859C139.73 99.6927 140.142 97.7147 140.142 95.072H139.142C139.142 97.6773 138.722 99.3473 138.006 100.229L138.782 100.859ZM140.142 95.072V64.64H139.142V95.072H140.142ZM140.142 64.64C140.142 61.6711 139.727 59.4106 138.819 57.9448L137.969 58.4712C138.725 59.6934 139.142 61.7209 139.142 64.64H140.142ZM138.828 57.9599C137.945 56.4153 136.371 55.692 134.266 55.692V56.692C136.129 56.692 137.307 57.3127 137.96 58.4561L138.828 57.9599ZM134.766 56.192V54.176H133.766V56.192H134.766ZM134.219 54.6738C136.282 54.8672 138.281 54.964 140.218 54.964V53.964C138.315 53.964 136.346 53.8688 134.313 53.6782L134.219 54.6738ZM140.218 54.964C146.893 54.964 152.497 54.5149 157.02 53.6103L156.824 52.6297C152.387 53.5171 146.855 53.964 140.218 53.964V54.964ZM156.422 53.12V60.032H157.422V53.12H156.422ZM157.358 60.2763C159.935 55.6749 164.507 53.332 171.226 53.332V52.332C164.249 52.332 159.285 54.7891 156.486 59.7877L157.358 60.2763ZM171.226 53.332C176.278 53.332 179.713 54.5962 181.688 56.9902L182.46 56.3538C180.211 53.6278 176.414 52.332 171.226 52.332V53.332ZM181.69 56.9921C182.589 58.0714 183.265 59.5001 183.7 61.3013L184.672 61.0667C184.211 59.1559 183.479 57.5766 182.458 56.3519L181.69 56.9921ZM184.629 61.415C186.189 58.4209 188.227 56.3666 190.732 55.2057L190.312 54.2983C187.569 55.5694 185.383 57.8031 183.743 60.953L184.629 61.415ZM190.737 55.2034C193.343 53.9623 196.466 53.332 200.122 53.332V52.332C196.354 52.332 193.077 52.9817 190.307 54.3006L190.737 55.2034ZM200.122 53.332C205.174 53.332 208.609 54.5962 210.584 56.9902L211.356 56.3538C209.107 53.6278 205.31 52.332 200.122 52.332V53.332ZM210.586 56.9921C211.48 58.0656 212.158 59.5531 212.594 61.4861L213.57 61.2659C213.11 59.2309 212.38 57.5824 211.354 56.3519L210.586 56.9921ZM212.595 61.4896C213.031 63.3566 213.254 65.8737 213.254 69.056H214.254C214.254 65.8383 214.029 63.2354 213.569 61.2624L212.595 61.4896ZM213.254 69.056V95.072H214.254V69.056H213.254ZM225.372 101.408L225.002 101.745L225.008 101.751L225.013 101.756L225.372 101.408ZM224.508 85.952L224.117 85.6396L224.116 85.6413L224.508 85.952ZM229.884 81.536L229.66 81.0888L229.66 81.0888L229.884 81.536ZM237.852 78.368L237.693 77.8937L237.693 77.8937L237.852 78.368ZM245.436 75.2L245.693 75.6287L245.693 75.6287L245.436 75.2ZM246.3 57.152L246.721 56.8825L246.721 56.8825L246.3 57.152ZM235.644 56.384L235.362 55.9705L234.545 56.5265L235.477 56.8555L235.644 56.384ZM240.444 59.84L240.027 60.1173L240.034 60.1274L240.041 60.1372L240.444 59.84ZM239.388 70.88L239.712 71.2606L239.713 71.2596L239.388 70.88ZM227.1 70.784L226.724 71.1143L226.731 71.1223L226.739 71.13L227.1 70.784ZM226.428 59.744L226.014 59.4623L226.014 59.4623L226.428 59.744ZM230.94 55.904L231.185 56.3398L231.188 56.3381L230.94 55.904ZM255.42 53.888L255.287 54.3702L255.298 54.3731L255.42 53.888ZM261.948 57.632L262.31 57.2872L262.307 57.2847L261.948 57.632ZM264.444 62.72L263.952 62.8121L263.954 62.8212L263.956 62.8301L264.444 62.72ZM265.404 100.064L264.929 100.222L264.937 100.245L264.947 100.267L265.404 100.064ZM268.092 100.544L268.315 100.991L268.336 100.981L268.357 100.968L268.092 100.544ZM269.531 99.488L269.962 99.2345L269.66 98.7196L269.206 99.1084L269.531 99.488ZM270.492 101.12L270.818 101.499L271.134 101.227L270.922 100.866L270.492 101.12ZM250.62 102.752L250.29 103.128L250.299 103.136L250.62 102.752ZM248.124 97.376L248.623 97.3475L248.532 95.7645L247.698 97.113L248.124 97.376ZM247.836 95.36L248.2 95.7027L248.336 95.5583V95.36H247.836ZM247.836 75.104H248.336V73.2988L247.407 74.8467L247.836 75.104ZM244.668 78.848L245.014 79.2082L245.021 79.2016L244.668 78.848ZM240.732 83.744L241.163 83.996L241.168 83.9883L240.732 83.744ZM234.684 104.172C230.674 104.172 227.719 103.108 225.73 101.06L225.013 101.756C227.248 104.06 230.501 105.172 234.684 105.172V104.172ZM225.741 101.071C223.785 98.932 222.8 96.2722 222.8 93.056H221.8C221.8 96.4958 222.862 99.404 225.002 101.745L225.741 101.071ZM222.8 93.056C222.8 90.2637 223.512 88.0125 224.899 86.2627L224.116 85.6413C222.559 87.6035 221.8 90.0883 221.8 93.056H222.8ZM224.898 86.2643C226.392 84.3966 228.129 82.9725 230.107 81.9832L229.66 81.0888C227.542 82.1475 225.695 83.6674 224.117 85.6397L224.898 86.2643ZM230.107 81.9832C232.126 80.9736 234.758 79.9262 238.01 78.8423L237.693 77.8937C234.417 78.9858 231.737 80.0504 229.66 81.0888L230.107 81.9832ZM238.01 78.8423C241.474 77.6875 244.044 76.6178 245.693 75.6287L245.178 74.7713C243.627 75.7022 241.141 76.7445 237.693 77.8937L238.01 78.8423ZM245.693 75.6287C247.429 74.5871 248.336 73.088 248.336 71.168H247.336C247.336 72.704 246.642 73.8929 245.178 74.7713L245.693 75.6287ZM248.336 71.168V62.624H247.336V71.168H248.336ZM248.336 62.624C248.336 60.4882 247.8 58.5692 246.721 56.8825L245.878 57.4215C246.847 58.9347 247.336 60.6637 247.336 62.624H248.336ZM246.721 56.8825C245.576 55.0947 243.626 54.252 241.02 54.252V55.252C243.405 55.252 244.975 56.0093 245.878 57.4215L246.721 56.8825ZM241.02 54.252C238.938 54.252 237.047 54.8246 235.362 55.9705L235.925 56.7975C237.44 55.7674 239.133 55.252 241.02 55.252V54.252ZM235.477 56.8555C237.577 57.5966 239.077 58.6918 240.027 60.1173L240.86 59.5626C239.762 57.9162 238.062 56.7074 235.81 55.9125L235.477 56.8555ZM240.041 60.1372C241.065 61.5219 241.576 63.0814 241.576 64.832H242.576C242.576 62.8706 241.998 61.1021 240.846 59.5428L240.041 60.1372ZM241.576 64.832C241.576 67.1916 240.736 69.0654 239.062 70.5004L239.713 71.2596C241.623 69.6226 242.576 67.4644 242.576 64.832H241.576ZM239.063 70.4994C237.435 71.8865 235.441 72.588 233.052 72.588V73.588C235.654 73.588 237.884 72.8175 239.712 71.2606L239.063 70.4994ZM233.052 72.588C230.666 72.588 228.822 71.8586 227.46 70.438L226.739 71.13C228.321 72.7814 230.445 73.588 233.052 73.588V72.588ZM227.475 70.4537C226.159 68.9578 225.488 67.0647 225.488 64.736H224.488C224.488 67.2713 225.224 69.4102 226.724 71.1143L227.475 70.4537ZM225.488 64.736C225.488 62.9033 225.944 61.3404 226.841 60.0257L226.014 59.4623C224.991 60.9636 224.488 62.7287 224.488 64.736H225.488ZM226.841 60.0257C227.744 58.7007 229.18 57.4675 231.185 56.3398L230.694 55.4682C228.603 56.6445 227.031 57.9713 226.014 59.4623L226.841 60.0257ZM231.188 56.3381C234.663 54.3521 239.683 53.332 246.3 53.332V52.332C239.604 52.332 234.384 53.3599 230.691 55.4699L231.188 56.3381ZM246.3 53.332C249.788 53.332 252.782 53.6811 255.287 54.3701L255.552 53.4059C252.937 52.6869 249.851 52.332 246.3 52.332V53.332ZM255.298 54.3731C257.77 54.9909 259.862 56.1922 261.588 57.9793L262.307 57.2847C260.449 55.3598 258.189 54.0651 255.541 53.4029L255.298 54.3731ZM261.585 57.9768C262.791 59.2425 263.584 60.8471 263.952 62.8121L264.935 62.6279C264.535 60.4969 263.664 58.7095 262.31 57.2872L261.585 57.9768ZM263.956 62.8301C264.392 64.7606 264.616 67.5016 264.616 71.072H265.616C265.616 67.4744 265.391 64.6474 264.931 62.6099L263.956 62.8301ZM264.616 71.072V96.8H265.616V71.072H264.616ZM264.616 96.8C264.616 98.3935 264.708 99.559 264.929 100.222L265.878 99.9059C265.715 99.417 265.616 98.4065 265.616 96.8H264.616ZM264.947 100.267C265.103 100.618 265.323 100.915 265.623 101.123C265.926 101.333 266.276 101.428 266.652 101.428V100.428C266.451 100.428 266.305 100.379 266.192 100.301C266.076 100.221 265.96 100.086 265.86 99.8609L264.947 100.267ZM266.652 101.428C267.196 101.428 267.752 101.273 268.315 100.991L267.868 100.097C267.407 100.327 267.003 100.428 266.652 100.428V101.428ZM268.357 100.968C268.889 100.635 269.389 100.268 269.857 99.8676L269.206 99.1084C268.778 99.4757 268.318 99.813 267.827 100.12L268.357 100.968ZM269.101 99.7415L270.061 101.374L270.922 100.866L269.962 99.2345L269.101 99.7415ZM270.165 100.741C267.535 103.004 263.732 104.172 258.684 104.172V105.172C263.875 105.172 267.944 103.972 270.818 101.499L270.165 100.741ZM258.684 104.172C254.867 104.172 252.334 103.53 250.94 102.368L250.299 103.136C251.977 104.534 254.82 105.172 258.684 105.172V104.172ZM250.949 102.376C249.524 101.129 248.744 99.4681 248.623 97.3475L247.624 97.4045C247.759 99.7639 248.643 101.687 250.29 103.128L250.949 102.376ZM247.698 97.113C244.786 101.823 240.471 104.172 234.684 104.172V105.172C240.8 105.172 245.445 102.657 248.549 97.639L247.698 97.113ZM244.284 97.492C245.782 97.492 247.093 96.8787 248.2 95.7027L247.471 95.0173C246.53 96.0173 245.473 96.492 244.284 96.492V97.492ZM248.336 95.36V75.104H247.336V95.36H248.336ZM247.407 74.8467C246.863 75.7527 245.843 76.9657 244.314 78.4944L245.021 79.2016C246.564 77.6583 247.656 76.3753 248.264 75.3612L247.407 74.8467ZM244.321 78.4878C242.568 80.176 241.221 81.8461 240.295 83.4997L241.168 83.9883C242.034 82.4419 243.311 80.848 245.014 79.2082L244.321 78.4878ZM240.3 83.4921C239.342 85.134 238.888 87.3453 238.888 90.08H239.888C239.888 87.4387 240.329 85.426 241.163 83.9959L240.3 83.4921ZM238.888 90.08C238.888 92.4278 239.301 94.2782 240.203 95.553C241.129 96.8594 242.518 97.492 244.284 97.492V96.492C242.785 96.492 241.726 95.9726 241.02 94.975C240.29 93.9458 239.888 92.3402 239.888 90.08H238.888ZM314.772 88.448L314.938 87.9765L314.584 87.8515L314.365 88.1568L314.772 88.448ZM316.404 89.024L316.88 89.1739L317.025 88.7132L316.57 88.5525L316.404 89.024ZM309.204 100.544L308.86 100.18L308.857 100.184L309.204 100.544ZM280.212 99.104L280.571 98.756L280.571 98.756L280.212 99.104ZM280.884 59.456L281.232 59.8146L281.232 59.8146L280.884 59.456ZM316.98 74.336V74.836H317.48V74.336H316.98ZM292.212 74.336V73.836H291.751L291.713 74.2945L292.212 74.336ZM295.284 90.944L294.894 91.2575L294.899 91.2632L295.284 90.944ZM291.828 72.512L291.328 72.4846L291.299 73.012H291.828V72.512ZM302.964 72.512V73.012H303.457L303.463 72.5182L302.964 72.512ZM301.812 59.936L301.325 60.0505L301.327 60.0595L301.812 59.936ZM303.156 95.38C308.011 95.38 312.026 93.1387 315.178 88.7392L314.365 88.1568C311.373 92.3333 307.644 94.38 303.156 94.38V95.38ZM314.605 88.9195L316.237 89.4955L316.57 88.5525L314.938 87.9765L314.605 88.9195ZM315.927 88.8741C314.544 93.2732 312.19 97.0394 308.86 100.18L309.547 100.908C313.001 97.6486 315.447 93.7348 316.88 89.1739L315.927 88.8741ZM308.857 100.184C305.635 103.282 301.477 104.844 296.34 104.844V105.844C301.698 105.844 306.116 104.206 309.55 100.904L308.857 100.184ZM296.34 104.844C289.731 104.844 284.493 102.803 280.571 98.756L279.852 99.452C283.994 103.725 289.508 105.844 296.34 105.844V104.844ZM280.571 98.756C276.669 94.7309 274.664 88.2306 274.664 79.136H273.664C273.664 88.3454 275.69 95.1571 279.852 99.452L280.571 98.756ZM274.664 79.136C274.664 70.4475 276.883 64.0398 281.232 59.8146L280.535 59.0974C275.924 63.5762 273.664 70.2884 273.664 79.136H274.664ZM281.232 59.8146C285.667 55.5047 291.518 53.332 298.836 53.332V52.332C291.305 52.332 285.188 54.5753 280.535 59.0974L281.232 59.8146ZM298.836 53.332C304.782 53.332 309.158 55.0899 312.061 58.5304C314.978 61.9872 316.48 67.2263 316.48 74.336H317.48C317.48 67.1097 315.957 61.5968 312.826 57.8856C309.681 54.1581 304.985 52.332 298.836 52.332V53.332ZM316.98 73.836H292.212V74.836H316.98V73.836ZM291.713 74.2945C291.647 75.0839 291.616 76.2529 291.616 77.792H292.616C292.616 76.2591 292.648 75.1241 292.71 74.3775L291.713 74.2945ZM291.616 77.792C291.616 83.9672 292.672 88.4965 294.894 91.2575L295.673 90.6305C293.671 88.1435 292.616 83.9048 292.616 77.792H291.616ZM294.899 91.2632C297.158 93.9875 299.917 95.38 303.156 95.38V94.38C300.25 94.38 297.761 93.1485 295.668 90.6248L294.899 91.2632ZM298.164 54.54C296.031 54.54 294.491 56.2872 293.421 59.2375C292.34 62.2198 291.649 66.6467 291.328 72.4846L292.327 72.5394C292.646 66.7292 293.331 62.4202 294.362 59.5785C295.404 56.7048 296.712 55.54 298.164 55.54V54.54ZM291.828 73.012H302.964V72.012H291.828V73.012ZM303.463 72.5182C303.528 67.3747 303.143 63.1348 302.296 59.8125L301.327 60.0595C302.144 63.2652 302.527 67.4093 302.464 72.5057L303.463 72.5182ZM302.298 59.8215C301.907 58.1606 301.391 56.8604 300.724 55.9653C300.046 55.0542 299.189 54.54 298.164 54.54V55.54C298.802 55.54 299.385 55.8418 299.923 56.5627C300.472 57.2996 300.948 58.4474 301.325 60.0505L302.298 59.8215Z" fill="black"/>
</g>
<g filter="url(#filter1_b)">
<path d="M31.136 38.04L30.827 38.4332L30.8338 38.4383L31.136 38.04ZM31.136 50.328L30.8338 49.9296L30.8271 49.9348L31.136 50.328ZM15.68 50.328L15.9889 49.9348L15.9889 49.9348L15.68 50.328ZM15.68 38.04L15.9889 38.4332L15.9889 38.4332L15.68 38.04ZM33.824 107.544L33.424 107.844L33.4346 107.858L33.4462 107.871L33.824 107.544ZM38.048 108.984H38.548V108.484H38.048V108.984ZM38.048 111L38.0295 111.5L38.548 111.519V111H38.048ZM10.016 111H9.516V111.518L10.0332 111.5L10.016 111ZM10.016 108.984V108.484H9.516V108.984H10.016ZM14.144 107.544L13.7559 107.229L13.7536 107.232L14.144 107.544ZM14.144 65.208L13.7099 65.4561L13.7142 65.4637L13.7189 65.4712L14.144 65.208ZM10.016 63.192H9.516V63.692H10.016V63.192ZM10.016 61.176L10.0627 60.6782L9.516 60.6269V61.176H10.016ZM32.672 60.12H33.172V59.5101L32.5739 59.6297L32.672 60.12ZM23.456 36.428C26.7218 36.428 29.1557 37.1199 30.8271 38.4332L31.4449 37.6468C29.5323 36.1441 26.8462 35.428 23.456 35.428V36.428ZM30.8338 38.4383C32.5449 39.7364 33.42 41.6251 33.42 44.184H34.42C34.42 41.3669 33.4391 39.1596 31.4382 37.6416L30.8338 38.4383ZM33.42 44.184C33.42 46.7429 32.5449 48.6316 30.8338 49.9297L31.4382 50.7263C33.4391 49.2084 34.42 47.0011 34.42 44.184H33.42ZM30.8271 49.9348C29.1557 51.2481 26.7218 51.94 23.456 51.94V52.94C26.8462 52.94 29.5323 52.2239 31.4449 50.7212L30.8271 49.9348ZM23.456 51.94C20.1236 51.94 17.6589 51.247 15.9889 49.9348L15.3711 50.7212C17.2851 52.225 20.0044 52.94 23.456 52.94V51.94ZM15.9889 49.9348C14.3399 48.6392 13.492 46.7494 13.492 44.184H12.492C12.492 46.9946 13.4361 49.2008 15.3711 50.7212L15.9889 49.9348ZM13.492 44.184C13.492 41.6186 14.3399 39.7288 15.9889 38.4332L15.3711 37.6468C13.4361 39.1672 12.492 41.3734 12.492 44.184H13.492ZM15.9889 38.4332C17.6589 37.121 20.1236 36.428 23.456 36.428V35.428C20.0044 35.428 17.2851 36.143 15.3711 37.6468L15.9889 38.4332ZM32.172 102.072C32.172 104.71 32.5513 106.68 33.424 107.844L34.224 107.244C33.5607 106.36 33.172 104.682 33.172 102.072H32.172ZM33.4462 107.871C34.4157 108.99 36 109.484 38.048 109.484V108.484C36.128 108.484 34.8963 108.018 34.2018 107.217L33.4462 107.871ZM37.548 108.984V111H38.548V108.984H37.548ZM38.0665 110.5C31.1564 110.244 26.6029 110.116 24.416 110.116V111.116C26.5811 111.116 31.1156 111.244 38.0295 111.5L38.0665 110.5ZM24.416 110.116C22.2297 110.116 17.4205 110.244 9.99877 110.5L10.0332 111.5C17.4595 111.244 22.2503 111.116 24.416 111.116V110.116ZM10.516 111V108.984H9.516V111H10.516ZM10.016 109.484C12.0592 109.484 13.6258 108.992 14.5344 107.856L13.7536 107.232C13.1262 108.016 11.9408 108.484 10.016 108.484V109.484ZM14.5321 107.859C15.4799 106.693 15.892 104.715 15.892 102.072H14.892C14.892 104.677 14.4721 106.347 13.7559 107.229L14.5321 107.859ZM15.892 102.072V71.64H14.892V102.072H15.892ZM15.892 71.64C15.892 68.6711 15.4765 66.4106 14.5691 64.9448L13.7189 65.4712C14.4755 66.6934 14.892 68.7209 14.892 71.64H15.892ZM14.5781 64.9599C13.6955 63.4153 12.121 62.692 10.016 62.692V63.692C11.879 63.692 13.0565 64.3127 13.7099 65.4561L14.5781 64.9599ZM10.516 63.192V61.176H9.516V63.192H10.516ZM9.96933 61.6738C12.0318 61.8672 14.0314 61.964 15.968 61.964V60.964C14.0646 60.964 12.0962 60.8688 10.0627 60.6782L9.96933 61.6738ZM15.968 61.964C22.6434 61.964 28.2468 61.5149 32.7701 60.6103L32.5739 59.6297C28.1372 60.5171 22.6046 60.964 15.968 60.964V61.964ZM32.172 60.12V102.072H33.172V60.12H32.172ZM63.8795 61.176H63.3795V61.676H63.8795V61.176ZM73.2875 61.176H73.7875V60.676H73.2875V61.176ZM73.2875 63.096V63.596H73.7875V63.096H73.2875ZM63.8795 63.096V62.596H63.3795V63.096H63.8795ZM69.3515 105.72L69.5629 106.173L69.5629 106.173L69.3515 105.72ZM71.9435 103.608L72.2559 103.218L71.8654 102.905L71.5531 103.296L71.9435 103.608ZM73.3835 104.76L73.8156 105.012L74.0326 104.639L73.6958 104.37L73.3835 104.76ZM49.8635 109.08L50.2171 108.726L50.2171 108.726L49.8635 109.08ZM47.1755 104.088L46.6846 104.183L46.6861 104.191L46.6878 104.198L47.1755 104.088ZM46.5995 63.096H47.0995V62.596H46.5995V63.096ZM39.3035 63.096H38.8035V63.596H39.3035V63.096ZM39.3035 61.176V60.676H38.8035V61.176H39.3035ZM46.5995 61.176V61.676H47.0995V61.176H46.5995ZM46.5995 49.848V49.348H46.0995V49.848H46.5995ZM55.9115 48.888L56.0248 49.3751L56.0328 49.3731L55.9115 48.888ZM63.8795 45.624H64.3795V44.7486L63.6255 45.1933L63.8795 45.624ZM63.8795 61.676H73.2875V60.676H63.8795V61.676ZM72.7875 61.176V63.096H73.7875V61.176H72.7875ZM73.2875 62.596H63.8795V63.596H73.2875V62.596ZM63.3795 63.096V102.936H64.3795V63.096H63.3795ZM63.3795 102.936C63.3795 104.243 63.6021 105.298 64.1752 105.953L64.9278 105.295C64.6049 104.926 64.3795 104.189 64.3795 102.936H63.3795ZM64.1752 105.953C64.7577 106.619 65.6647 106.892 66.7595 106.892V105.892C65.8063 105.892 65.2413 105.653 64.9278 105.295L64.1752 105.953ZM66.7595 106.892C67.6228 106.892 68.5604 106.641 69.5629 106.173L69.1401 105.267C68.2226 105.695 67.4322 105.892 66.7595 105.892V106.892ZM69.5629 106.173C70.603 105.688 71.5256 104.931 72.3339 103.92L71.5531 103.296C70.8254 104.205 70.02 104.856 69.1401 105.267L69.5629 106.173ZM71.6312 103.998L73.0712 105.15L73.6958 104.37L72.2559 103.218L71.6312 103.998ZM72.9514 104.508C70.1023 109.401 65.7285 111.844 59.7515 111.844V112.844C66.0625 112.844 70.7767 110.231 73.8156 105.012L72.9514 104.508ZM59.7515 111.844C55.4101 111.844 52.265 110.774 50.2171 108.726L49.5099 109.434C51.814 111.738 55.2609 112.844 59.7515 112.844V111.844ZM50.2171 108.726C48.9446 107.454 48.0919 105.876 47.6632 103.978L46.6878 104.198C47.1551 106.268 48.0944 108.018 49.5099 109.434L50.2171 108.726ZM47.6664 103.993C47.2914 102.055 47.0995 99.3085 47.0995 95.736H46.0995C46.0995 99.3315 46.2916 102.153 46.6846 104.183L47.6664 103.993ZM47.0995 95.736V63.096H46.0995V95.736H47.0995ZM46.5995 62.596H39.3035V63.596H46.5995V62.596ZM39.8035 63.096V61.176H38.8035V63.096H39.8035ZM39.3035 61.676H46.5995V60.676H39.3035V61.676ZM47.0995 61.176V49.848H46.0995V61.176H47.0995ZM46.5995 50.348C50.0855 50.348 53.2285 50.0253 56.0248 49.375L55.7982 48.401C53.0905 49.0307 50.0255 49.348 46.5995 49.348V50.348ZM56.0328 49.3731C58.8953 48.6574 61.596 47.5511 64.1335 46.0547L63.6255 45.1933C61.171 46.6409 58.5597 47.7106 55.7902 48.4029L56.0328 49.3731ZM63.3795 45.624V61.176H64.3795V45.624H63.3795ZM78.434 108.408L78.065 108.745L78.07 108.751L78.0752 108.756L78.434 108.408ZM77.57 92.952L77.1796 92.6396L77.1783 92.6413L77.57 92.952ZM82.946 88.536L82.7224 88.0888L82.7224 88.0888L82.946 88.536ZM90.914 85.368L90.7559 84.8937L90.7559 84.8937L90.914 85.368ZM98.498 82.2L98.7552 82.6287L98.7552 82.6287L98.498 82.2ZM99.362 64.152L99.7831 63.8825L99.7831 63.8825L99.362 64.152ZM88.706 63.384L88.4248 62.9705L87.6073 63.5265L88.5396 63.8555L88.706 63.384ZM93.506 66.84L93.09 67.1173L93.0967 67.1274L93.1039 67.1372L93.506 66.84ZM92.45 77.88L92.7742 78.2606L92.7754 78.2596L92.45 77.88ZM80.162 77.784L79.7866 78.1143L79.7937 78.1223L79.801 78.13L80.162 77.784ZM79.49 66.744L79.0769 66.4623L79.0769 66.4623L79.49 66.744ZM84.002 62.904L84.2471 63.3398L84.2501 63.3381L84.002 62.904ZM108.482 60.888L108.349 61.3702L108.361 61.3731L108.482 60.888ZM115.01 64.632L115.372 64.2872L115.37 64.2847L115.01 64.632ZM117.506 69.72L117.015 69.8121L117.016 69.8212L117.018 69.8301L117.506 69.72ZM118.466 107.064L117.992 107.222L117.999 107.245L118.009 107.267L118.466 107.064ZM121.154 107.544L121.378 107.991L121.399 107.981L121.419 107.968L121.154 107.544ZM122.594 106.488L123.025 106.234L122.722 105.72L122.269 106.108L122.594 106.488ZM123.554 108.12L123.88 108.499L124.197 108.227L123.985 107.866L123.554 108.12ZM103.682 109.752L103.353 110.128L103.362 110.136L103.682 109.752ZM101.186 104.376L101.685 104.347L101.595 102.764L100.761 104.113L101.186 104.376ZM100.898 102.36L101.262 102.703L101.398 102.558V102.36H100.898ZM100.898 82.104H101.398V80.2988L100.469 81.8467L100.898 82.104ZM97.73 85.848L98.0769 86.2082L98.0836 86.2016L97.73 85.848ZM93.794 90.744L94.226 90.996L94.2303 90.9883L93.794 90.744ZM87.746 111.172C83.7362 111.172 80.7812 110.108 78.7928 108.06L78.0752 108.756C80.3108 111.06 83.5638 112.172 87.746 112.172V111.172ZM78.803 108.071C76.8477 105.932 75.862 103.272 75.862 100.056H74.862C74.862 103.496 75.9243 106.404 78.065 108.745L78.803 108.071ZM75.862 100.056C75.862 97.2637 76.574 95.0125 77.9617 93.2627L77.1783 92.6413C75.622 94.6035 74.862 97.0883 74.862 100.056H75.862ZM77.9604 93.2643C79.4546 91.3966 81.191 89.9725 83.1696 88.9832L82.7224 88.0888C80.605 89.1475 78.7574 90.6674 77.1796 92.6397L77.9604 93.2643ZM83.1696 88.9832C85.1888 87.9736 87.8206 86.9262 91.0721 85.8423L90.7559 84.8937C87.4794 85.9858 84.7992 87.0504 82.7224 88.0888L83.1696 88.9832ZM91.0721 85.8423C94.5366 84.6875 97.1069 83.6178 98.7552 82.6287L98.2408 81.7713C96.6891 82.7022 94.2034 83.7445 90.7559 84.8937L91.0721 85.8423ZM98.7552 82.6287C100.491 81.5871 101.398 80.088 101.398 78.168H100.398C100.398 79.704 99.7047 80.8929 98.2408 81.7713L98.7552 82.6287ZM101.398 78.168V69.624H100.398V78.168H101.398ZM101.398 69.624C101.398 67.4882 100.863 65.5692 99.7831 63.8825L98.9409 64.4215C99.9093 65.9347 100.398 67.6637 100.398 69.624H101.398ZM99.7831 63.8825C98.639 62.0947 96.6884 61.252 94.082 61.252V62.252C96.4676 62.252 98.037 63.0093 98.9409 64.4215L99.7831 63.8825ZM94.082 61.252C92.0004 61.252 90.11 61.8246 88.4248 62.9705L88.9872 63.7975C90.502 62.7674 92.1956 62.252 94.082 62.252V61.252ZM88.5396 63.8555C90.6395 64.5966 92.1396 65.6918 93.09 67.1173L93.922 66.5626C92.8244 64.9162 91.1245 63.7074 88.8724 62.9125L88.5396 63.8555ZM93.1039 67.1372C94.1274 68.5219 94.638 70.0814 94.638 71.832H95.638C95.638 69.8706 95.0606 68.1021 93.9081 66.5428L93.1039 67.1372ZM94.638 71.832C94.638 74.1916 93.7987 76.0654 92.1246 77.5004L92.7754 78.2596C94.6853 76.6226 95.638 74.4644 95.638 71.832H94.638ZM92.1258 77.4994C90.4974 78.8865 88.5039 79.588 86.114 79.588V80.588C88.7161 80.588 90.9466 79.8175 92.7742 78.2606L92.1258 77.4994ZM86.114 79.588C83.7287 79.588 81.8843 78.8586 80.523 77.438L79.801 78.13C81.3837 79.7814 83.5073 80.588 86.114 80.588V79.588ZM80.5374 77.4537C79.221 75.9578 78.55 74.0647 78.55 71.736H77.55C77.55 74.2713 78.287 76.4102 79.7866 78.1143L80.5374 77.4537ZM78.55 71.736C78.55 69.9033 79.0067 68.3404 79.9031 67.0257L79.0769 66.4623C78.0533 67.9636 77.55 69.7287 77.55 71.736H78.55ZM79.9031 67.0257C80.8065 65.7007 82.2422 64.4675 84.2471 63.3398L83.7569 62.4682C81.6658 63.6445 80.0935 64.9713 79.0769 66.4623L79.9031 67.0257ZM84.2501 63.3381C87.7257 61.3521 92.7451 60.332 99.362 60.332V59.332C92.6669 59.332 87.4463 60.3599 83.7539 62.4699L84.2501 63.3381ZM99.362 60.332C102.851 60.332 105.844 60.6811 108.349 61.3701L108.615 60.4059C106 59.6869 102.913 59.332 99.362 59.332V60.332ZM108.361 61.3731C110.832 61.9909 112.925 63.1922 114.65 64.9793L115.37 64.2847C113.511 62.3598 111.252 61.0651 108.603 60.4029L108.361 61.3731ZM114.648 64.9768C115.853 66.2425 116.646 67.8471 117.015 69.8121L117.997 69.6279C117.598 67.4969 116.727 65.7095 115.372 64.2872L114.648 64.9768ZM117.018 69.8301C117.454 71.7606 117.678 74.5016 117.678 78.072H118.678C118.678 74.4744 118.454 71.6474 117.994 69.6099L117.018 69.8301ZM117.678 78.072V103.8H118.678V78.072H117.678ZM117.678 103.8C117.678 105.394 117.771 106.559 117.992 107.222L118.94 106.906C118.777 106.417 118.678 105.406 118.678 103.8H117.678ZM118.009 107.267C118.165 107.618 118.385 107.915 118.685 108.123C118.988 108.333 119.339 108.428 119.714 108.428V107.428C119.513 107.428 119.368 107.379 119.255 107.301C119.139 107.221 119.023 107.086 118.923 106.861L118.009 107.267ZM119.714 108.428C120.258 108.428 120.815 108.273 121.378 107.991L120.93 107.097C120.469 107.327 120.066 107.428 119.714 107.428V108.428ZM121.419 107.968C121.952 107.635 122.452 107.268 122.919 106.868L122.269 106.108C121.84 106.476 121.38 106.813 120.889 107.12L121.419 107.968ZM122.163 106.742L123.123 108.374L123.985 107.866L123.025 106.234L122.163 106.742ZM123.228 107.741C120.598 110.004 116.795 111.172 111.746 111.172V112.172C116.937 112.172 121.006 110.972 123.88 108.499L123.228 107.741ZM111.746 111.172C107.93 111.172 105.396 110.53 104.002 109.368L103.362 110.136C105.04 111.534 107.882 112.172 111.746 112.172V111.172ZM104.011 109.376C102.587 108.129 101.806 106.468 101.685 104.347L100.687 104.405C100.822 106.764 101.705 108.687 103.353 110.128L104.011 109.376ZM100.761 104.113C97.8483 108.823 93.5333 111.172 87.746 111.172V112.172C93.8627 112.172 98.5077 109.657 101.611 104.639L100.761 104.113ZM97.346 104.492C98.844 104.492 100.155 103.879 101.262 102.703L100.534 102.017C99.5927 103.017 98.536 103.492 97.346 103.492V104.492ZM101.398 102.36V82.104H100.398V102.36H101.398ZM100.469 81.8467C99.9257 82.7527 98.9052 83.9657 97.3764 85.4944L98.0836 86.2016C99.6268 84.6583 100.718 83.3753 101.327 82.3612L100.469 81.8467ZM97.3832 85.4878C95.6301 87.176 94.2838 88.8461 93.3577 90.4997L94.2303 90.9883C95.0962 89.4419 96.3739 87.848 98.0768 86.2082L97.3832 85.4878ZM93.3621 90.4921C92.4043 92.134 91.95 94.3453 91.95 97.08H92.95C92.95 94.4387 93.3917 92.426 94.2259 90.9959L93.3621 90.4921ZM91.95 97.08C91.95 99.4278 92.363 101.278 93.266 102.553C94.1914 103.859 95.5809 104.492 97.346 104.492V103.492C95.8471 103.492 94.7886 102.973 94.082 101.975C93.353 100.946 92.95 99.3402 92.95 97.08H91.95ZM206.906 107.544L206.506 107.844L206.517 107.858L206.528 107.871L206.906 107.544ZM211.13 108.984H211.63V108.484H211.13V108.984ZM211.13 111L211.111 111.5L211.63 111.519V111H211.13ZM185.018 111H184.518V111.52L185.038 111.5L185.018 111ZM185.018 108.984V108.484H184.518V108.984H185.018ZM187.706 107.544L187.265 107.309L187.265 107.309L187.706 107.544ZM187.322 66.36L186.91 66.6433L186.92 66.6582L186.932 66.6723L187.322 66.36ZM179.162 66.936L178.808 66.5823L178.8 66.5908L179.162 66.936ZM176.666 71.928L176.173 71.8458L176.163 71.9073L176.168 71.9695L176.666 71.928ZM181.274 108.984H181.774V108.484H181.274V108.984ZM181.274 111L181.254 111.5L181.774 111.52V111H181.274ZM156.122 111H155.622V111.52L156.142 111.5L156.122 111ZM156.122 108.984V108.484H155.622V108.984H156.122ZM158.81 107.544L159.251 107.779L159.257 107.768L158.81 107.544ZM158.714 66.36L158.278 66.6052L158.285 66.6172L158.714 66.36ZM150.938 66.84L151.283 67.2021L151.283 67.2017L150.938 66.84ZM149.69 107.544L150.131 107.309L150.131 107.309L149.69 107.544ZM152.378 108.984H152.878V108.484H152.378V108.984ZM152.378 111L152.356 111.5L152.878 111.522V111H152.378ZM126.266 111H125.766V111.518L126.283 111.5L126.266 111ZM126.266 108.984V108.484H125.766V108.984H126.266ZM130.394 107.544L130.006 107.229L130.004 107.232L130.394 107.544ZM130.394 65.208L129.96 65.4561L129.964 65.4637L129.969 65.4712L130.394 65.208ZM126.266 63.192H125.766V63.692H126.266V63.192ZM126.266 61.176L126.313 60.6782L125.766 60.6269V61.176H126.266ZM148.922 60.12H149.422V59.5101L148.824 59.6297L148.922 60.12ZM148.922 67.032H148.422V68.9482L149.358 67.2763L148.922 67.032ZM174.074 63.672L173.688 63.9902L173.69 63.9921L174.074 63.672ZM176.186 68.184L175.7 68.3013L176.013 69.5985L176.629 68.415L176.186 68.184ZM182.522 61.752L182.732 62.2057L182.737 62.2034L182.522 61.752ZM202.97 63.672L202.584 63.9902L202.586 63.9921L202.97 63.672ZM205.082 68.376L204.594 68.4861L204.595 68.4896L205.082 68.376ZM205.254 102.072C205.254 104.71 205.633 106.68 206.506 107.844L207.306 107.244C206.643 106.36 206.254 104.682 206.254 102.072H205.254ZM206.528 107.871C207.498 108.99 209.082 109.484 211.13 109.484V108.484C209.21 108.484 207.978 108.018 207.284 107.217L206.528 107.871ZM210.63 108.984V111H211.63V108.984H210.63ZM211.149 110.5C204.239 110.244 199.749 110.116 197.69 110.116V111.116C199.727 111.116 204.197 111.244 211.111 111.5L211.149 110.5ZM197.69 110.116C195.63 110.116 191.396 110.244 184.998 110.5L185.038 111.5C191.44 111.244 195.654 111.116 197.69 111.116V110.116ZM185.518 111V108.984H184.518V111H185.518ZM185.018 109.484C186.443 109.484 187.531 108.934 188.147 107.779L187.265 107.309C186.857 108.074 186.153 108.484 185.018 108.484V109.484ZM188.147 107.779C188.443 107.224 188.646 106.461 188.777 105.525C188.909 104.583 188.974 103.43 188.974 102.072H187.974C187.974 103.402 187.911 104.505 187.787 105.387C187.662 106.275 187.481 106.904 187.265 107.309L188.147 107.779ZM188.974 102.072V70.872H187.974V102.072H188.974ZM188.974 70.872C188.974 68.7798 188.585 67.1385 187.712 66.0476L186.932 66.6723C187.595 67.5015 187.974 68.8682 187.974 70.872H188.974ZM187.734 66.0767C186.907 64.8733 185.537 64.324 183.77 64.324V65.324C185.331 65.324 186.329 65.7987 186.91 66.6433L187.734 66.0767ZM183.77 64.324C181.948 64.324 180.29 65.1004 178.808 66.5824L179.516 67.2896C180.85 65.9556 182.264 65.324 183.77 65.324V64.324ZM178.8 66.5908C177.387 68.0713 176.509 69.8269 176.173 71.8458L177.159 72.0102C177.463 70.1891 178.249 68.6167 179.524 67.2812L178.8 66.5908ZM176.168 71.9695C176.295 73.4952 176.358 74.8569 176.358 76.056H177.358C177.358 74.8231 177.293 73.4328 177.164 71.8865L176.168 71.9695ZM176.358 76.056V102.072H177.358V76.056H176.358ZM176.358 102.072C176.358 103.433 176.439 104.592 176.606 105.542C176.771 106.486 177.027 107.259 177.402 107.821L178.234 107.267C177.969 106.869 177.745 106.25 177.59 105.37C177.437 104.496 177.358 103.399 177.358 102.072H176.358ZM177.402 107.821C178.172 108.976 179.522 109.484 181.274 109.484V108.484C179.698 108.484 178.744 108.032 178.234 107.267L177.402 107.821ZM180.774 108.984V111H181.774V108.984H180.774ZM181.294 110.5C174.896 110.244 170.726 110.116 168.794 110.116V111.116C170.702 111.116 174.852 111.244 181.254 111.5L181.294 110.5ZM168.794 110.116C166.734 110.116 162.5 110.244 156.102 110.5L156.142 111.5C162.544 111.244 166.758 111.116 168.794 111.116V110.116ZM156.622 111V108.984H155.622V111H156.622ZM156.122 109.484C157.547 109.484 158.635 108.934 159.251 107.779L158.369 107.309C157.961 108.074 157.257 108.484 156.122 108.484V109.484ZM159.257 107.768C159.827 106.629 160.078 104.698 160.078 102.072H159.078C159.078 104.694 158.817 106.411 158.363 107.32L159.257 107.768ZM160.078 102.072V70.872H159.078V102.072H160.078ZM160.078 70.872C160.078 68.7975 159.79 67.1814 159.143 66.1027L158.285 66.6172C158.79 67.4586 159.078 68.8505 159.078 70.872H160.078ZM159.15 66.1149C158.471 64.9079 157.327 64.324 155.834 64.324V65.324C157.029 65.324 157.805 65.7641 158.278 66.6051L159.15 66.1149ZM155.834 64.324C153.843 64.324 152.089 65.0503 150.593 66.4783L151.283 67.2017C152.603 65.9417 154.113 65.324 155.834 65.324V64.324ZM150.593 66.4779C149.143 67.8593 148.422 69.6257 148.422 71.736H149.422C149.422 69.8783 150.045 68.3807 151.283 67.2021L150.593 66.4779ZM148.422 71.736V102.072H149.422V71.736H148.422ZM148.422 102.072C148.422 103.43 148.487 104.583 148.619 105.525C148.75 106.461 148.953 107.224 149.249 107.779L150.131 107.309C149.915 106.904 149.734 106.275 149.609 105.387C149.485 104.505 149.422 103.402 149.422 102.072H148.422ZM149.249 107.779C149.865 108.934 150.953 109.484 152.378 109.484V108.484C151.243 108.484 150.539 108.074 150.131 107.309L149.249 107.779ZM151.878 108.984V111H152.878V108.984H151.878ZM152.4 110.5C146.514 110.245 142.599 110.116 140.666 110.116V111.116C142.573 111.116 146.466 111.243 152.356 111.5L152.4 110.5ZM140.666 110.116C138.48 110.116 133.671 110.244 126.249 110.5L126.283 111.5C133.709 111.244 138.5 111.116 140.666 111.116V110.116ZM126.766 111V108.984H125.766V111H126.766ZM126.266 109.484C128.309 109.484 129.876 108.992 130.784 107.856L130.004 107.232C129.376 108.016 128.191 108.484 126.266 108.484V109.484ZM130.782 107.859C131.73 106.693 132.142 104.715 132.142 102.072H131.142C131.142 104.677 130.722 106.347 130.006 107.229L130.782 107.859ZM132.142 102.072V71.64H131.142V102.072H132.142ZM132.142 71.64C132.142 68.6711 131.727 66.4106 130.819 64.9448L129.969 65.4712C130.725 66.6934 131.142 68.7209 131.142 71.64H132.142ZM130.828 64.9599C129.945 63.4153 128.371 62.692 126.266 62.692V63.692C128.129 63.692 129.307 64.3127 129.96 65.4561L130.828 64.9599ZM126.766 63.192V61.176H125.766V63.192H126.766ZM126.219 61.6738C128.282 61.8672 130.281 61.964 132.218 61.964V60.964C130.315 60.964 128.346 60.8688 126.313 60.6782L126.219 61.6738ZM132.218 61.964C138.893 61.964 144.497 61.5149 149.02 60.6103L148.824 59.6297C144.387 60.5171 138.855 60.964 132.218 60.964V61.964ZM148.422 60.12V67.032H149.422V60.12H148.422ZM149.358 67.2763C151.935 62.6749 156.507 60.332 163.226 60.332V59.332C156.249 59.332 151.285 61.7891 148.486 66.7877L149.358 67.2763ZM163.226 60.332C168.278 60.332 171.713 61.5962 173.688 63.9902L174.46 63.3538C172.211 60.6278 168.414 59.332 163.226 59.332V60.332ZM173.69 63.9921C174.589 65.0714 175.265 66.5001 175.7 68.3013L176.672 68.0667C176.211 66.1559 175.479 64.5766 174.458 63.3519L173.69 63.9921ZM176.629 68.415C178.189 65.4209 180.227 63.3666 182.732 62.2057L182.312 61.2983C179.569 62.5694 177.383 64.8031 175.743 67.953L176.629 68.415ZM182.737 62.2034C185.343 60.9623 188.466 60.332 192.122 60.332V59.332C188.354 59.332 185.077 59.9817 182.307 61.3006L182.737 62.2034ZM192.122 60.332C197.174 60.332 200.609 61.5962 202.584 63.9902L203.356 63.3538C201.107 60.6278 197.31 59.332 192.122 59.332V60.332ZM202.586 63.9921C203.48 65.0656 204.158 66.5531 204.594 68.4861L205.57 68.2659C205.11 66.2309 204.38 64.5824 203.354 63.3519L202.586 63.9921ZM204.595 68.4896C205.031 70.3566 205.254 72.8737 205.254 76.056H206.254C206.254 72.8383 206.029 70.2354 205.569 68.2624L204.595 68.4896ZM205.254 76.056V102.072H206.254V76.056H205.254ZM217.372 108.408L217.002 108.745L217.008 108.751L217.013 108.756L217.372 108.408ZM216.508 92.952L216.117 92.6396L216.116 92.6413L216.508 92.952ZM221.884 88.536L221.66 88.0888L221.66 88.0888L221.884 88.536ZM229.852 85.368L229.693 84.8937L229.693 84.8937L229.852 85.368ZM237.436 82.2L237.693 82.6287L237.693 82.6287L237.436 82.2ZM238.3 64.152L238.721 63.8825L238.721 63.8825L238.3 64.152ZM227.644 63.384L227.362 62.9705L226.545 63.5265L227.477 63.8555L227.644 63.384ZM232.444 66.84L232.027 67.1173L232.034 67.1274L232.041 67.1372L232.444 66.84ZM231.388 77.88L231.712 78.2606L231.713 78.2596L231.388 77.88ZM219.1 77.784L218.724 78.1143L218.731 78.1223L218.739 78.13L219.1 77.784ZM218.428 66.744L218.014 66.4623L218.014 66.4623L218.428 66.744ZM222.94 62.904L223.185 63.3398L223.188 63.3381L222.94 62.904ZM247.42 60.888L247.287 61.3702L247.298 61.3731L247.42 60.888ZM253.948 64.632L254.31 64.2872L254.307 64.2847L253.948 64.632ZM256.444 69.72L255.952 69.8121L255.954 69.8212L255.956 69.8301L256.444 69.72ZM257.404 107.064L256.929 107.222L256.937 107.245L256.947 107.267L257.404 107.064ZM260.092 107.544L260.315 107.991L260.336 107.981L260.357 107.968L260.092 107.544ZM261.531 106.488L261.962 106.234L261.66 105.72L261.206 106.108L261.531 106.488ZM262.492 108.12L262.818 108.499L263.134 108.227L262.922 107.866L262.492 108.12ZM242.62 109.752L242.29 110.128L242.299 110.136L242.62 109.752ZM240.124 104.376L240.623 104.347L240.532 102.764L239.698 104.113L240.124 104.376ZM239.836 102.36L240.2 102.703L240.336 102.558V102.36H239.836ZM239.836 82.104H240.336V80.2988L239.407 81.8467L239.836 82.104ZM236.668 85.848L237.014 86.2082L237.021 86.2016L236.668 85.848ZM232.732 90.744L233.163 90.996L233.168 90.9883L232.732 90.744ZM226.684 111.172C222.674 111.172 219.719 110.108 217.73 108.06L217.013 108.756C219.248 111.06 222.501 112.172 226.684 112.172V111.172ZM217.741 108.071C215.785 105.932 214.8 103.272 214.8 100.056H213.8C213.8 103.496 214.862 106.404 217.002 108.745L217.741 108.071ZM214.8 100.056C214.8 97.2637 215.512 95.0125 216.899 93.2627L216.116 92.6413C214.559 94.6035 213.8 97.0883 213.8 100.056H214.8ZM216.898 93.2643C218.392 91.3966 220.129 89.9725 222.107 88.9832L221.66 88.0888C219.542 89.1475 217.695 90.6674 216.117 92.6397L216.898 93.2643ZM222.107 88.9832C224.126 87.9736 226.758 86.9262 230.01 85.8423L229.693 84.8937C226.417 85.9858 223.737 87.0504 221.66 88.0888L222.107 88.9832ZM230.01 85.8423C233.474 84.6875 236.044 83.6178 237.693 82.6287L237.178 81.7713C235.627 82.7022 233.141 83.7445 229.693 84.8937L230.01 85.8423ZM237.693 82.6287C239.429 81.5871 240.336 80.088 240.336 78.168H239.336C239.336 79.704 238.642 80.8929 237.178 81.7713L237.693 82.6287ZM240.336 78.168V69.624H239.336V78.168H240.336ZM240.336 69.624C240.336 67.4882 239.8 65.5692 238.721 63.8825L237.878 64.4215C238.847 65.9347 239.336 67.6637 239.336 69.624H240.336ZM238.721 63.8825C237.576 62.0947 235.626 61.252 233.02 61.252V62.252C235.405 62.252 236.975 63.0093 237.878 64.4215L238.721 63.8825ZM233.02 61.252C230.938 61.252 229.047 61.8246 227.362 62.9705L227.925 63.7975C229.44 62.7674 231.133 62.252 233.02 62.252V61.252ZM227.477 63.8555C229.577 64.5966 231.077 65.6918 232.027 67.1173L232.86 66.5626C231.762 64.9162 230.062 63.7074 227.81 62.9125L227.477 63.8555ZM232.041 67.1372C233.065 68.5219 233.576 70.0814 233.576 71.832H234.576C234.576 69.8706 233.998 68.1021 232.846 66.5428L232.041 67.1372ZM233.576 71.832C233.576 74.1916 232.736 76.0654 231.062 77.5004L231.713 78.2596C233.623 76.6226 234.576 74.4644 234.576 71.832H233.576ZM231.063 77.4994C229.435 78.8865 227.441 79.588 225.052 79.588V80.588C227.654 80.588 229.884 79.8175 231.712 78.2606L231.063 77.4994ZM225.052 79.588C222.666 79.588 220.822 78.8586 219.46 77.438L218.739 78.13C220.321 79.7814 222.445 80.588 225.052 80.588V79.588ZM219.475 77.4537C218.159 75.9578 217.488 74.0647 217.488 71.736H216.488C216.488 74.2713 217.224 76.4102 218.724 78.1143L219.475 77.4537ZM217.488 71.736C217.488 69.9033 217.944 68.3404 218.841 67.0257L218.014 66.4623C216.991 67.9636 216.488 69.7287 216.488 71.736H217.488ZM218.841 67.0257C219.744 65.7007 221.18 64.4675 223.185 63.3398L222.694 62.4682C220.603 63.6445 219.031 64.9713 218.014 66.4623L218.841 67.0257ZM223.188 63.3381C226.663 61.3521 231.683 60.332 238.3 60.332V59.332C231.604 59.332 226.384 60.3599 222.691 62.4699L223.188 63.3381ZM238.3 60.332C241.788 60.332 244.782 60.6811 247.287 61.3701L247.552 60.4059C244.937 59.6869 241.851 59.332 238.3 59.332V60.332ZM247.298 61.3731C249.77 61.9909 251.862 63.1922 253.588 64.9793L254.307 64.2847C252.449 62.3598 250.189 61.0651 247.541 60.4029L247.298 61.3731ZM253.585 64.9768C254.791 66.2425 255.584 67.8471 255.952 69.8121L256.935 69.6279C256.535 67.4969 255.664 65.7095 254.31 64.2872L253.585 64.9768ZM255.956 69.8301C256.392 71.7606 256.616 74.5016 256.616 78.072H257.616C257.616 74.4744 257.391 71.6474 256.931 69.6099L255.956 69.8301ZM256.616 78.072V103.8H257.616V78.072H256.616ZM256.616 103.8C256.616 105.394 256.708 106.559 256.929 107.222L257.878 106.906C257.715 106.417 257.616 105.406 257.616 103.8H256.616ZM256.947 107.267C257.103 107.618 257.323 107.915 257.623 108.123C257.926 108.333 258.276 108.428 258.652 108.428V107.428C258.451 107.428 258.305 107.379 258.192 107.301C258.076 107.221 257.96 107.086 257.86 106.861L256.947 107.267ZM258.652 108.428C259.196 108.428 259.752 108.273 260.315 107.991L259.868 107.097C259.407 107.327 259.003 107.428 258.652 107.428V108.428ZM260.357 107.968C260.889 107.635 261.389 107.268 261.857 106.868L261.206 106.108C260.778 106.476 260.318 106.813 259.827 107.12L260.357 107.968ZM261.101 106.742L262.061 108.374L262.922 107.866L261.962 106.234L261.101 106.742ZM262.165 107.741C259.535 110.004 255.732 111.172 250.684 111.172V112.172C255.875 112.172 259.944 110.972 262.818 108.499L262.165 107.741ZM250.684 111.172C246.867 111.172 244.334 110.53 242.94 109.368L242.299 110.136C243.977 111.534 246.82 112.172 250.684 112.172V111.172ZM242.949 109.376C241.524 108.129 240.744 106.468 240.623 104.347L239.624 104.405C239.759 106.764 240.643 108.687 242.29 110.128L242.949 109.376ZM239.698 104.113C236.786 108.823 232.471 111.172 226.684 111.172V112.172C232.8 112.172 237.445 109.657 240.549 104.639L239.698 104.113ZM236.284 104.492C237.782 104.492 239.093 103.879 240.2 102.703L239.471 102.017C238.53 103.017 237.473 103.492 236.284 103.492V104.492ZM240.336 102.36V82.104H239.336V102.36H240.336ZM239.407 81.8467C238.863 82.7527 237.843 83.9657 236.314 85.4944L237.021 86.2016C238.564 84.6583 239.656 83.3753 240.264 82.3612L239.407 81.8467ZM236.321 85.4878C234.568 87.176 233.221 88.8461 232.295 90.4997L233.168 90.9883C234.034 89.4419 235.311 87.848 237.014 86.2082L236.321 85.4878ZM232.3 90.4921C231.342 92.134 230.888 94.3453 230.888 97.08H231.888C231.888 94.4387 232.329 92.426 233.163 90.9959L232.3 90.4921ZM230.888 97.08C230.888 99.4278 231.301 101.278 232.203 102.553C233.129 103.859 234.518 104.492 236.284 104.492V103.492C234.785 103.492 233.726 102.973 233.02 101.975C232.29 100.946 231.888 99.3402 231.888 97.08H230.888ZM306.772 95.448L306.938 94.9765L306.584 94.8515L306.365 95.1568L306.772 95.448ZM308.404 96.024L308.88 96.1739L309.025 95.7132L308.57 95.5525L308.404 96.024ZM301.204 107.544L300.86 107.18L300.857 107.184L301.204 107.544ZM272.212 106.104L272.571 105.756L272.571 105.756L272.212 106.104ZM272.884 66.456L273.232 66.8146L273.232 66.8146L272.884 66.456ZM308.98 81.336V81.836H309.48V81.336H308.98ZM284.212 81.336V80.836H283.751L283.713 81.2945L284.212 81.336ZM287.284 97.944L286.894 98.2575L286.899 98.2632L287.284 97.944ZM283.828 79.512L283.328 79.4846L283.299 80.012H283.828V79.512ZM294.964 79.512V80.012H295.457L295.463 79.5182L294.964 79.512ZM293.812 66.936L293.325 67.0505L293.327 67.0595L293.812 66.936ZM295.156 102.38C300.011 102.38 304.026 100.139 307.178 95.7392L306.365 95.1568C303.373 99.3333 299.644 101.38 295.156 101.38V102.38ZM306.605 95.9195L308.237 96.4955L308.57 95.5525L306.938 94.9765L306.605 95.9195ZM307.927 95.8741C306.544 100.273 304.19 104.039 300.86 107.18L301.547 107.908C305.001 104.649 307.447 100.735 308.88 96.1739L307.927 95.8741ZM300.857 107.184C297.635 110.282 293.477 111.844 288.34 111.844V112.844C293.698 112.844 298.116 111.206 301.55 107.904L300.857 107.184ZM288.34 111.844C281.731 111.844 276.493 109.803 272.571 105.756L271.852 106.452C275.994 110.725 281.508 112.844 288.34 112.844V111.844ZM272.571 105.756C268.669 101.731 266.664 95.2306 266.664 86.136H265.664C265.664 95.3454 267.69 102.157 271.852 106.452L272.571 105.756ZM266.664 86.136C266.664 77.4475 268.883 71.0398 273.232 66.8146L272.535 66.0974C267.924 70.5762 265.664 77.2884 265.664 86.136H266.664ZM273.232 66.8146C277.667 62.5047 283.518 60.332 290.836 60.332V59.332C283.305 59.332 277.188 61.5753 272.535 66.0974L273.232 66.8146ZM290.836 60.332C296.782 60.332 301.158 62.0899 304.061 65.5304C306.978 68.9872 308.48 74.2263 308.48 81.336H309.48C309.48 74.1097 307.957 68.5968 304.826 64.8856C301.681 61.1581 296.985 59.332 290.836 59.332V60.332ZM308.98 80.836H284.212V81.836H308.98V80.836ZM283.713 81.2945C283.647 82.0839 283.616 83.2529 283.616 84.792H284.616C284.616 83.2591 284.648 82.1241 284.71 81.3775L283.713 81.2945ZM283.616 84.792C283.616 90.9672 284.672 95.4965 286.894 98.2575L287.673 97.6305C285.671 95.1435 284.616 90.9048 284.616 84.792H283.616ZM286.899 98.2632C289.158 100.988 291.917 102.38 295.156 102.38V101.38C292.25 101.38 289.761 100.148 287.668 97.6248L286.899 98.2632ZM290.164 61.54C288.031 61.54 286.491 63.2872 285.421 66.2375C284.34 69.2198 283.649 73.6467 283.328 79.4846L284.327 79.5394C284.646 73.7292 285.331 69.4202 286.362 66.5785C287.404 63.7048 288.712 62.54 290.164 62.54V61.54ZM283.828 80.012H294.964V79.012H283.828V80.012ZM295.463 79.5182C295.528 74.3747 295.143 70.1348 294.296 66.8125L293.327 67.0595C294.144 70.2652 294.527 74.4093 294.464 79.5057L295.463 79.5182ZM294.298 66.8215C293.907 65.1606 293.391 63.8604 292.724 62.9653C292.046 62.0542 291.189 61.54 290.164 61.54V62.54C290.802 62.54 291.385 62.8418 291.923 63.5627C292.472 64.2996 292.948 65.4474 293.325 67.0505L294.298 66.8215Z" fill="black"/>
</g>
<g filter="url(#filter2_b)">
<path d="M15.456 43.928C18.784 43.928 21.344 44.632 23.136 46.04C24.992 47.448 25.92 49.496 25.92 52.184C25.92 54.872 24.992 56.92 23.136 58.328C21.344 59.736 18.784 60.44 15.456 60.44C12.064 60.44 9.472 59.736 7.68 58.328C5.888 56.92 4.992 54.872 4.992 52.184C4.992 49.496 5.888 47.448 7.68 46.04C9.472 44.632 12.064 43.928 15.456 43.928ZM24.672 110.072C24.672 112.696 25.056 114.52 25.824 115.544C26.656 116.504 28.064 116.984 30.048 116.984V119C23.136 118.744 18.592 118.616 16.416 118.616C14.24 118.616 9.44 118.744 2.016 119V116.984C4 116.984 5.376 116.504 6.144 115.544C6.976 114.52 7.392 112.696 7.392 110.072V79.64C7.392 76.696 6.976 74.552 6.144 73.208C5.376 71.864 4 71.192 2.016 71.192V69.176C4.064 69.368 6.048 69.464 7.968 69.464C14.624 69.464 20.192 69.016 24.672 68.12V110.072ZM55.8795 69.176H65.2875V71.096H55.8795V110.936C55.8795 112.216 56.1035 113.112 56.5515 113.624C56.9995 114.136 57.7355 114.392 58.7595 114.392C59.5275 114.392 60.3915 114.168 61.3515 113.72C62.3115 113.272 63.1755 112.568 63.9435 111.608L65.3835 112.76C62.4395 117.816 57.8955 120.344 51.7515 120.344C47.3355 120.344 44.0395 119.256 41.8635 117.08C40.5195 115.736 39.6235 114.072 39.1755 112.088C38.7915 110.104 38.5995 107.32 38.5995 103.736V71.096H31.3035V69.176H38.5995V57.848C42.0555 57.848 45.1595 57.528 47.9115 56.888C50.7275 56.184 53.3835 55.096 55.8795 53.624V69.176ZM79.746 119.672C75.65 119.672 72.546 118.584 70.434 116.408C68.386 114.168 67.362 111.384 67.362 108.056C67.362 105.176 68.098 102.808 69.57 100.952C71.106 99.032 72.898 97.56 74.946 96.536C76.994 95.512 79.65 94.456 82.914 93.368C86.37 92.216 88.898 91.16 90.498 90.2C92.098 89.24 92.898 87.896 92.898 86.168V77.624C92.898 75.576 92.386 73.752 91.362 72.152C90.338 70.552 88.578 69.752 86.082 69.752C84.098 69.752 82.306 70.296 80.706 71.384C82.882 72.152 84.482 73.304 85.506 74.84C86.594 76.312 87.138 77.976 87.138 79.832C87.138 82.328 86.242 84.344 84.45 85.88C82.722 87.352 80.61 88.088 78.114 88.088C75.618 88.088 73.634 87.32 72.162 85.784C70.754 84.184 70.05 82.168 70.05 79.736C70.05 77.816 70.53 76.152 71.49 74.744C72.45 73.336 73.954 72.056 76.002 70.904C79.586 68.856 84.706 67.832 91.362 67.832C94.882 67.832 97.922 68.184 100.482 68.888C103.042 69.528 105.218 70.776 107.01 72.632C108.29 73.976 109.122 75.672 109.506 77.72C109.954 79.704 110.178 82.488 110.178 86.072V111.8C110.178 113.4 110.274 114.488 110.466 115.064C110.722 115.64 111.138 115.928 111.714 115.928C112.162 115.928 112.642 115.8 113.154 115.544C113.666 115.224 114.146 114.872 114.594 114.488L115.554 116.12C112.802 118.488 108.866 119.672 103.746 119.672C99.906 119.672 97.218 119.032 95.682 117.752C94.146 116.408 93.314 114.616 93.186 112.376C90.178 117.24 85.698 119.672 79.746 119.672ZM89.346 111.992C90.69 111.992 91.874 111.448 92.898 110.36V90.104C92.322 91.064 91.266 92.312 89.73 93.848C88.002 95.512 86.69 97.144 85.794 98.744C84.898 100.28 84.45 102.392 84.45 105.08C84.45 109.688 86.082 111.992 89.346 111.992ZM197.754 110.072C197.754 112.696 198.138 114.52 198.906 115.544C199.738 116.504 201.146 116.984 203.13 116.984V119C196.218 118.744 191.738 118.616 189.69 118.616C187.642 118.616 183.418 118.744 177.018 119V116.984C178.298 116.984 179.194 116.504 179.706 115.544C180.218 114.584 180.474 112.76 180.474 110.072V78.872C180.474 76.824 180.09 75.32 179.322 74.36C178.618 73.336 177.434 72.824 175.77 72.824C174.106 72.824 172.57 73.528 171.162 74.936C169.818 76.344 168.986 78.008 168.666 79.928C168.794 81.464 168.858 82.84 168.858 84.056V110.072C168.858 112.76 169.178 114.584 169.818 115.544C170.458 116.504 171.61 116.984 173.274 116.984V119C166.874 118.744 162.714 118.616 160.794 118.616C158.746 118.616 154.522 118.744 148.122 119V116.984C149.402 116.984 150.298 116.504 150.81 115.544C151.322 114.52 151.578 112.696 151.578 110.072V78.872C151.578 76.824 151.29 75.32 150.714 74.36C150.138 73.336 149.178 72.824 147.834 72.824C145.978 72.824 144.346 73.496 142.938 74.84C141.594 76.12 140.922 77.752 140.922 79.736V110.072C140.922 112.76 141.178 114.584 141.69 115.544C142.202 116.504 143.098 116.984 144.378 116.984V119C138.49 118.744 134.586 118.616 132.666 118.616C130.49 118.616 125.69 118.744 118.266 119V116.984C120.25 116.984 121.626 116.504 122.394 115.544C123.226 114.52 123.642 112.696 123.642 110.072V79.64C123.642 76.696 123.226 74.552 122.394 73.208C121.626 71.864 120.25 71.192 118.266 71.192V69.176C120.314 69.368 122.298 69.464 124.218 69.464C130.874 69.464 136.442 69.016 140.922 68.12V75.032C143.61 70.232 148.378 67.832 155.226 67.832C160.346 67.832 163.962 69.112 166.074 71.672C167.034 72.824 167.738 74.328 168.186 76.184C169.786 73.112 171.898 70.968 174.522 69.752C177.21 68.472 180.41 67.832 184.122 67.832C189.242 67.832 192.858 69.112 194.97 71.672C195.93 72.824 196.634 74.392 197.082 76.376C197.53 78.296 197.754 80.856 197.754 84.056V110.072ZM218.684 119.672C214.588 119.672 211.484 118.584 209.372 116.408C207.324 114.168 206.3 111.384 206.3 108.056C206.3 105.176 207.036 102.808 208.508 100.952C210.044 99.032 211.836 97.56 213.884 96.536C215.932 95.512 218.588 94.456 221.852 93.368C225.308 92.216 227.836 91.16 229.436 90.2C231.036 89.24 231.836 87.896 231.836 86.168V77.624C231.836 75.576 231.324 73.752 230.3 72.152C229.276 70.552 227.516 69.752 225.02 69.752C223.036 69.752 221.244 70.296 219.644 71.384C221.82 72.152 223.42 73.304 224.444 74.84C225.532 76.312 226.076 77.976 226.076 79.832C226.076 82.328 225.18 84.344 223.388 85.88C221.66 87.352 219.548 88.088 217.052 88.088C214.556 88.088 212.572 87.32 211.1 85.784C209.692 84.184 208.988 82.168 208.988 79.736C208.988 77.816 209.468 76.152 210.428 74.744C211.388 73.336 212.892 72.056 214.94 70.904C218.524 68.856 223.644 67.832 230.3 67.832C233.82 67.832 236.86 68.184 239.42 68.888C241.98 69.528 244.156 70.776 245.948 72.632C247.228 73.976 248.06 75.672 248.444 77.72C248.892 79.704 249.116 82.488 249.116 86.072V111.8C249.116 113.4 249.212 114.488 249.404 115.064C249.66 115.64 250.076 115.928 250.652 115.928C251.1 115.928 251.58 115.8 252.092 115.544C252.604 115.224 253.084 114.872 253.531 114.488L254.492 116.12C251.74 118.488 247.804 119.672 242.684 119.672C238.844 119.672 236.156 119.032 234.62 117.752C233.084 116.408 232.252 114.616 232.124 112.376C229.116 117.24 224.636 119.672 218.684 119.672ZM228.284 111.992C229.628 111.992 230.812 111.448 231.836 110.36V90.104C231.26 91.064 230.204 92.312 228.668 93.848C226.94 95.512 225.628 97.144 224.732 98.744C223.836 100.28 223.388 102.392 223.388 105.08C223.388 109.688 225.02 111.992 228.284 111.992ZM287.156 109.88C291.828 109.88 295.7 107.736 298.772 103.448L300.404 104.024C298.996 108.504 296.596 112.344 293.204 115.544C289.876 118.744 285.588 120.344 280.34 120.344C273.62 120.344 268.244 118.264 264.212 114.104C260.18 109.944 258.164 103.288 258.164 94.136C258.164 85.368 260.404 78.808 264.884 74.456C269.428 70.04 275.412 67.832 282.836 67.832C294.932 67.832 300.98 75 300.98 89.336H276.212C276.148 90.104 276.116 91.256 276.116 92.792C276.116 98.936 277.172 103.32 279.284 105.944C281.46 108.568 284.084 109.88 287.156 109.88ZM282.164 70.04C278.58 70.04 276.468 75.864 275.828 87.512H286.964C287.028 82.392 286.644 78.2 285.812 74.936C285.044 71.672 283.828 70.04 282.164 70.04Z" fill="black"/>
</g>
<defs>
<filter id="filter0_b" x="-11.0349" y="-0.123146" width="357.065" height="134.518" filterUnits="userSpaceOnUse" color-interpolation-filters="sRGB">
<feFlood flood-opacity="0" result="BackgroundImageFix"/>
<feGaussianBlur in="BackgroundImage" stdDeviation="14.2754"/>
<feComposite in2="SourceAlpha" operator="in" result="effect1_backgroundBlur"/>
<feBlend mode="normal" in="SourceGraphic" in2="effect1_backgroundBlur" result="shape"/>
</filter>
<filter id="filter1_b" x="-19.0349" y="6.87685" width="357.065" height="134.518" filterUnits="userSpaceOnUse" color-interpolation-filters="sRGB">
<feFlood flood-opacity="0" result="BackgroundImageFix"/>
<feGaussianBlur in="BackgroundImage" stdDeviation="14.2754"/>
<feComposite in2="SourceAlpha" operator="in" result="effect1_backgroundBlur"/>
<feBlend mode="normal" in="SourceGraphic" in2="effect1_backgroundBlur" result="shape"/>
</filter>
<filter id="filter2_b" x="-26.5349" y="15.3769" width="356.065" height="133.518" filterUnits="userSpaceOnUse" color-interpolation-filters="sRGB">
<feFlood flood-opacity="0" result="BackgroundImageFix"/>
<feGaussianBlur in="BackgroundImage" stdDeviation="14.2754"/>
<feComposite in2="SourceAlpha" operator="in" result="effect1_backgroundBlur"/>
<feBlend mode="normal" in="SourceGraphic" in2="effect1_backgroundBlur" result="shape"/>
</filter>
</defs>
</svg>
