<svg id="Layer_1" data-name="Layer 1" xmlns="http://www.w3.org/2000/svg" xmlns:xlink="http://www.w3.org/1999/xlink" viewBox="0 0 1375.12 1388.81"><defs><style>.cls-1,.cls-11{fill:none;}.cls-2{clip-path:url(#clip-path);}.cls-3{fill:url(#linear-gradient);}.cls-4,.cls-5{fill:#fff;}.cls-5{stroke:#000;}.cls-11,.cls-5{stroke-miterlimit:10;}.cls-6{fill:url(#green);}.cls-7{fill:url(#linear-gradient-2);}.cls-8{fill:url(#linear-gradient-3);}.cls-9{fill:url(#linear-gradient-4);}.cls-10{fill:url(#linear-gradient-5);}.cls-11{stroke:#fff;}.cls-12{fill:#f26a1b;}.cls-13{fill:#f2bdbd;}.cls-14{fill:#f28f6b;}.cls-15{fill:#f26d3d;}.cls-16{fill:#5cb9f2;}.cls-17{fill:#0095d4;}.cls-18{fill:#212121;}.cls-19{fill:#003294;}.cls-20{fill:#0367a6;}.cls-21{fill:url(#green-2);}.cls-22{fill:url(#green-3);}</style><clipPath id="clip-path" transform="translate(2.04 10.2)"><polygon id="triangle" class="cls-1" points="683 0 1366 1366 0 1366 683 0"/></clipPath><linearGradient id="linear-gradient" x1="677.76" y1="16.52" x2="699.3" y2="1362.98" gradientUnits="userSpaceOnUse"><stop offset="0.35" stop-color="#132240"/><stop offset="0.43" stop-color="#17233f"/><stop offset="0.52" stop-color="#25243c"/><stop offset="0.61" stop-color="#3a2738"/><stop offset="0.7" stop-color="#592a32"/><stop offset="0.8" stop-color="#812f2a"/><stop offset="0.89" stop-color="#b13420"/><stop offset="0.99" stop-color="#e93b15"/><stop offset="1" stop-color="#f13c13"/></linearGradient><linearGradient id="green" x1="-2.04" y1="1328.82" x2="383.68" y2="1328.82" gradientUnits="userSpaceOnUse"><stop offset="0" stop-color="#39b44a"/><stop offset="1" stop-color="#006837"/></linearGradient><linearGradient id="linear-gradient-2" x1="88.98" y1="1271.9" x2="1354.88" y2="1271.9" xlink:href="#green"/><linearGradient id="linear-gradient-3" x1="468.15" y1="1316.88" x2="1372.18" y2="1316.88" gradientTransform="translate(78.28 -50.47) rotate(3.3)" xlink:href="#green"/><linearGradient id="linear-gradient-4" x1="200.2" y1="1319.49" x2="1366" y2="1319.49" xlink:href="#green"/><linearGradient id="linear-gradient-5" x1="332.65" y1="1363.96" x2="332.65" y2="1363.96" xlink:href="#green"/><linearGradient id="green-2" x1="872.29" y1="1044.95" x2="1004.79" y2="1274.46" xlink:href="#green"/><linearGradient id="green-3" x1="983.92" y1="1250.99" x2="1025.16" y2="1322.42" xlink:href="#green"/></defs><g class="cls-2"><rect class="cls-3" x="2.04" width="1373.08" height="1385.38"/><ellipse class="cls-4" cx="901.92" cy="765.12" rx="10.11" ry="10.2"/><ellipse class="cls-4" cx="685.55" cy="147.92" rx="5.06" ry="5.1"/><ellipse class="cls-4" cx="751.91" cy="302.21" rx="5.06" ry="5.1"/><ellipse class="cls-4" cx="745.2" cy="98.96" rx="5.06" ry="5.1"/><ellipse class="cls-4" cx="583.43" cy="201.99" rx="5.06" ry="5.1"/><ellipse class="cls-4" cx="675.44" cy="210.15" rx="5.06" ry="5.1"/><ellipse class="cls-4" cx="440.86" cy="775.32" rx="5.06" ry="5.1"/><ellipse class="cls-4" cx="445.86" cy="705.32" rx="5.06" ry="5.1"/><ellipse class="cls-4" cx="703.86" cy="682.32" rx="5.06" ry="5.1"/><ellipse class="cls-4" cx="469.86" cy="537.32" rx="5.06" ry="5.1"/><ellipse class="cls-4" cx="830.02" cy="491.42" rx="5.06" ry="5.1"/><ellipse class="cls-4" cx="647.13" cy="345.84" rx="5.06" ry="5.1"/><path class="cls-5" d="M52.07,1329.78" transform="translate(2.04 10.2)"/><ellipse class="cls-4" cx="185.56" cy="1296.12" rx="7.08" ry="7.14"/><path class="cls-6" d="M-2,1378.61c14.34-26.21,36.78-59.36,69.2-80.39,30.22-19.61,60.78-23.27,110.47-15.17,48.5,7.9,117.88,27.44,206.05,78.26" transform="translate(2.04 10.2)"/><path class="cls-7" d="M89,1371.1c29-38.4,90-108.14,191.1-156.08,94.87-45,187.68-51,294.23-43.87,316.64,21.25,658.9,154.22,780.57,204" transform="translate(2.04 10.2)"/><path class="cls-8" d="M1372.65,1337.88a1346.18,1346.18,0,0,0-179.46-49.77c-369-75.48-729.9,9.36-725.56,42.61,3.19,24.47,207.21,44.51,902.91,44.06" transform="translate(2.04 10.2)"/><path class="cls-9" d="M200.2,1366c38.89-28.45,103.47-67.56,191.1-86.71,105-22.94,161.22,22.5,337.71,42.84,58.86,6.79,69.66,4.37,202.22,9.18,102.13,3.72,250.12,10.76,434.77,25.51" transform="translate(2.04 10.2)"/><path class="cls-10" d="M332.65,1364" transform="translate(2.04 10.2)"/><ellipse class="cls-4" cx="339.75" cy="269.32" rx="3.54" ry="5.1"/><ellipse class="cls-4" cx="157.25" cy="170.37" rx="3.54" ry="5.1"/><ellipse class="cls-4" cx="150.17" cy="710.03" rx="3.54" ry="5.1"/><ellipse class="cls-4" cx="336.21" cy="948.75" rx="3.54" ry="5.1"/><ellipse class="cls-4" cx="400.21" cy="1039.75" rx="3.54" ry="5.1"/><ellipse class="cls-4" cx="439.21" cy="1124.75" rx="3.54" ry="5.1"/><ellipse class="cls-4" cx="578.21" cy="1014.75" rx="3.54" ry="5.1"/><ellipse class="cls-4" cx="670.21" cy="1025.75" rx="3.54" ry="5.1"/><ellipse class="cls-4" cx="748.21" cy="958.75" rx="3.54" ry="5.1"/><ellipse class="cls-4" cx="533.21" cy="645.75" rx="3.54" ry="5.1"/><ellipse class="cls-4" cx="343.21" cy="862.75" rx="3.54" ry="5.1"/><ellipse class="cls-4" cx="361.21" cy="872.75" rx="3.54" ry="5.1"/><ellipse class="cls-4" cx="511.21" cy="889.75" rx="3.54" ry="5.1"/><ellipse class="cls-4" cx="652.21" cy="977.75" rx="3.54" ry="5.1"/><ellipse class="cls-4" cx="586.96" cy="594.76" rx="3.54" ry="5.1"/><ellipse class="cls-4" cx="1220.93" cy="72.43" rx="3.54" ry="5.1"/><ellipse class="cls-4" cx="1117.79" cy="464.17" rx="3.54" ry="5.1"/><ellipse class="cls-4" cx="952.71" cy="655.76" rx="3.54" ry="5.1"/><ellipse class="cls-4" cx="813.1" cy="380.57" rx="3.54" ry="5.1"/><ellipse class="cls-4" cx="1056.12" cy="770.22" rx="3.54" ry="5.1"/><ellipse class="cls-4" cx="956.02" cy="687.59" rx="3.54" ry="5.1"/><ellipse class="cls-4" cx="463.19" cy="770.45" rx="3.54" ry="5.1"/><ellipse class="cls-4" cx="744.7" cy="655.97" rx="3.54" ry="5.1"/><ellipse class="cls-4" cx="986.35" cy="987.52" rx="3.54" ry="5.1"/><ellipse class="cls-4" cx="368.57" cy="537.63" rx="3.54" ry="5.1"/><ellipse class="cls-4" cx="444.4" cy="350.94" rx="3.54" ry="5.1"/><ellipse class="cls-4" cx="540.96" cy="430.51" rx="10.11" ry="10.2"/><ellipse class="cls-4" cx="840.25" cy="655.97" rx="10.11" ry="10.2"/><ellipse class="cls-4" cx="812.95" cy="842.66" rx="10.11" ry="10.2"/><line class="cls-11" x1="540.96" y1="430.51" x2="840.25" y2="655.97"/><line class="cls-11" x1="839.74" y1="655.46" x2="901.42" y2="764.61"/><line class="cls-11" x1="812.44" y1="842.15" x2="901.42" y2="764.61"/></g><path class="cls-12" d="M431.53,1168c12-26.39,18.44-39.67,18.17-39.79s-5.64,11.85-17.08,31c-2.24,3.75-2.1,3.39-3.85,6.33-1.15,1.94-20.58,37.46-19,38.37.88.51,8-9.86,13.22-18.88A177.66,177.66,0,0,0,431.53,1168Z" transform="translate(2.04 10.2)"/><ellipse class="cls-13" cx="452.8" cy="1101.98" rx="26.24" ry="24.91" transform="translate(-207.49 121.87) rotate(-11.44)"/><ellipse class="cls-14" cx="452.83" cy="1103.98" rx="26.24" ry="24.91" transform="translate(-207.88 121.92) rotate(-11.44)"/><ellipse class="cls-14" cx="544.48" cy="1157.15" rx="5.75" ry="26.73" transform="translate(-579.89 561.85) rotate(-36.54)"/><path class="cls-15" d="M543.62,1162.75c8.54,9.64,16.89,15.49,16.17,16.41-.37.47-2.88-.77-3.69-1.17-7.49-3.71-11.59-9.46-14.19-13.45-5-7.71-10.92-17.75-10.42-18.06S535.44,1153.5,543.62,1162.75Z" transform="translate(2.04 10.2)"/><ellipse class="cls-14" cx="561.48" cy="1166.15" rx="5.75" ry="26.73" transform="translate(-712.56 960.07) rotate(-54.67)"/><ellipse class="cls-14" cx="522.81" cy="1165.75" rx="28.23" ry="10.47" transform="translate(-464.1 367.08) rotate(-26.57)"/><ellipse class="cls-14" cx="508.81" cy="1150.75" rx="28.23" ry="10.47" transform="translate(-458.87 359.24) rotate(-26.57)"/><path class="cls-13" d="M518.25,1161.29c14.48-8.08,25.08-9.76,24.82-10.72s-14.58-.83-28,6.84c-12.88,7.38-20.22,18.91-19.44,19.74S503.56,1169.5,518.25,1161.29Z" transform="translate(2.04 10.2)"/><path class="cls-13" d="M506.25,1146.29c12.83-6.48,25.07-8.53,24.75-10.29-.14-.79-2.69-.93-4-1-11.14-.57-20.12,5-23.89,7.41-12.33,7.89-20.23,18.9-19.44,19.74S491.38,1153.8,506.25,1146.29Z" transform="translate(2.04 10.2)"/><rect class="cls-16" x="479.18" y="1137.83" width="32.31" height="45.98" rx="8.58" transform="translate(1135.09 81.9) rotate(53.46)"/><rect class="cls-17" x="482.57" y="1136.45" width="11.69" height="69.6" transform="translate(1140.67 91.68) rotate(53.46)"/><rect class="cls-16" x="494" y="1150.15" width="30.92" height="45.98" rx="7.37" transform="translate(1462.94 328.6) rotate(71.54)"/><path class="cls-16" d="M516,1173.53c-.44,7.44-8.93,13.38-16.35,18.57a61.28,61.28,0,0,1-22.55,10.11c-18.57,4.13-37.08-.64-39.05-5.74a23.14,23.14,0,0,1-1.13-5,24.91,24.91,0,0,1,0-5,31.16,31.16,0,0,0-1.06-9.52c-1.07-6.9,14.91-27.57,38.91-28.69C495.57,1147.3,516.68,1161.32,516,1173.53Z" transform="translate(2.04 10.2)"/><path class="cls-17" d="M437,1170a38.18,38.18,0,0,0-.34,23.46A15.8,15.8,0,0,0,441,1201c5.45,5.07,13.66,4.26,25,3a109.54,109.54,0,0,0,18.93-3.84L531,1182c.9-.35-32.32,10-64,13-3.65.34-10.5.88-17-3C440.38,1186.26,437.77,1174.58,437,1170Z" transform="translate(2.04 10.2)"/><ellipse class="cls-14" cx="494.18" cy="1115.59" rx="44" ry="4.45" transform="translate(-722.6 1068.89) rotate(-63.43)"/><path class="cls-12" d="M496,1122c11.41-22.74,18.24-41.1,17.86-41.27S508.3,1093,497,1113c-2.21,3.91-2.07,3.54-3.8,6.6-10.69,18.94-19.6,39.38-18.7,39.84S486.71,1140.51,496,1122Z" transform="translate(2.04 10.2)"/><path class="cls-13" d="M492,1116c11-22,21.81-38.66,20.86-39.27-.44-.27-3.18,2.92-4.86,5.27-1,1.34-1.35,2.41-3,5-1,1.6-1.81,2.73-2,3-6.42,9.26-13,24-13,24-6.91,15.48-17.18,41.17-16.5,41.44C474,1155.65,479.74,1140.55,492,1116Z" transform="translate(2.04 10.2)"/><ellipse class="cls-14" cx="429.18" cy="1164.59" rx="44" ry="4.45" transform="translate(-802.35 1037.84) rotate(-63.43)"/><path class="cls-15" d="M563,1171c10.76,6.91,20.38,9.86,20,11-.21.63-3.26.12-4,0-7.5-1.25-12.69-5.37-17-9-6.94-5.85-15.36-13.61-15-14S552.69,1164.38,563,1171Z" transform="translate(2.04 10.2)"/><g id="Hair"><ellipse class="cls-18" cx="450.45" cy="1108.73" rx="27.31" ry="32.27" transform="translate(-139.79 79.03) rotate(-7.55)"/><path class="cls-18" d="M477.39,1104.18a23.35,23.35,0,0,0,4,11.13c3.27,4.61,6.17,4.57,9.75,8.72,4.6,5.32,3.28,9.38,6.36,16.25,1.93,4.32,5.69,10,13.82,15.21a34.82,34.82,0,0,1-12,7.82,39.74,39.74,0,0,1-13.93,2.38c-7.31.22-7.68-1.23-13.53-.64a40.34,40.34,0,0,0-12.83,3.13c-4.82,2.12-6.27,4-10.65,4.62-2.67.37-3.41-.15-7.27-.46a56.61,56.61,0,0,0-18.34,1.82,65.09,65.09,0,0,0-10.82,3.69c6.88-10.07,7.34-17.19,6.51-21.82-1.07-6-4.22-7.31-3.81-12.88.46-6.25,4.7-8.16,7.46-16.65a36,36,0,0,0,1.74-11.32,1.31,1.31,0,0,1,.19-.91,1.18,1.18,0,0,1,.75-.51L476,1103.24c-.24-2.89-.27-4.34-.08-4.37S476.63,1100.6,477.39,1104.18Z" transform="translate(2.04 10.2)"/><path class="cls-19" d="M412,1177.85a40,40,0,0,0,3.66-6.12,40.7,40.7,0,0,0,2.28-5.83c.2-1.11.45-2.65.6-4.52a19.6,19.6,0,0,0,.06-4.88c-.16-1-.38-1.65-2-5.45-.66-1.59-1.24-3-1.7-4a13.29,13.29,0,0,1-.12-5.83c.81-3.78,3-5.3,5.36-9.88a32.38,32.38,0,0,0,2.57-6.87,136.43,136.43,0,0,1,.1-17.58q.22-3.11.57-6a31.09,31.09,0,0,1,5.46-13.24,28.28,28.28,0,0,1,6.89-6.78,25.48,25.48,0,0,1,8.88-3.77l-.86.53a38.41,38.41,0,0,0-13.21,14.06c-4.6,8.54-4.73,16.94-4.75,21,0,7.15,1.53,7.22.87,12.5-1.19,9.57-6.44,10.41-6.74,18-.26,6.21,3.21,7.42,5.05,17a46.64,46.64,0,0,1,.58,13.53c-1.31.22-2.7.49-4.15.86A49.79,49.79,0,0,0,412,1177.85Z" transform="translate(2.04 10.2)"/><path class="cls-19" d="M432.46,1172.17a26.13,26.13,0,0,0,2.19-6.79,22.07,22.07,0,0,0,0-9.27c-.49-2.08-1-2.5-1.87-5.47-1.14-3.66-2.1-6.74-1.82-9.86.37-4.18,2.61-4.27,4.66-9.74a32.49,32.49,0,0,0,1.73-11.57c.11-6.27-1.18-7.46-.94-14.44a53.18,53.18,0,0,1,.77-7.47,59.69,59.69,0,0,1,4.38-13.58c.84-1.93,2-4.35,3.48-7.06a140.53,140.53,0,0,1-2.18,14.1c-.22,1.1-2.18,10.43-2.15,15.94a35.54,35.54,0,0,0,.32,4.44c.74,5.76,1.95,4.94,2.06,8.84.33,10.94-9.24,14.75-7.47,22.5.61,2.66,1.44,3.4,4.26,9.94a24.74,24.74,0,0,1,1.6,5.44,37.76,37.76,0,0,1-.06,13.67,40.12,40.12,0,0,0-4.32-.09A38.2,38.2,0,0,0,432.46,1172.17Z" transform="translate(2.04 10.2)"/><path class="cls-19" d="M454.21,1170.63c10.73-7.23,13.06-13.15,13.09-17.32,0-6.5-5.5-8-10.19-18.88a58.31,58.31,0,0,1-4.3-23.94c.27-12.73,4.53-16.83,1.13-23.69-2.76-5.57-8.82-9.44-8.43-10,.07-.09.41,0,2,.89,3.85,2.22,7.74,4.53,10.25,9.26a18.65,18.65,0,0,1,1.11,2.7c2.72,8.32-.72,15.34-.83,24.07a39.5,39.5,0,0,0,4.22,17.66c3.76,7.95,6.67,7.42,10.59,15.87,3.61,7.76,5.27,17.07,3.76,17.76,0,0,0,0-.09,0a15,15,0,0,1-4.7,0,15.41,15.41,0,0,0-3.32.2s-1.36.22-2.77.56A48.8,48.8,0,0,0,454.21,1170.63Z" transform="translate(2.04 10.2)"/><path class="cls-19" d="M495.16,1163.3c-1.64-1.15-.61-3.31-1-9.66a47.06,47.06,0,0,0-4.86-18.51c-4.9-10.46-11.68-8-15.64-17.27-3.62-8.49,1.65-11.6-2.43-21-3.6-8.23-10.5-12.87-13.19-14.67a40.8,40.8,0,0,0-12.09-5.5,24.46,24.46,0,0,1,5.25-.1c11.2,1,18.09,9.58,19.3,11.15a34.33,34.33,0,0,1,5.23,10.15c2.68,7.51,2,12.21,5.51,16.91a25,25,0,0,0,4.74,4.88c1.28.92,2,1.15,3.29,2.25a20.94,20.94,0,0,1,3.63,4.13c3.28,4.94,2.08,9,5.26,15.5a31,31,0,0,0,5.8,8.07,34.83,34.83,0,0,0,7.3,5.82,26.15,26.15,0,0,1-4.09,3.77C506.57,1159.72,498.46,1165.61,495.16,1163.3Z" transform="translate(2.04 10.2)"/><path class="cls-16" d="M446.06,1077.2" transform="translate(2.04 10.2)"/><path class="cls-16" d="M447.45,1076.92" transform="translate(2.04 10.2)"/><path class="cls-19" d="M449,1082.56" transform="translate(2.04 10.2)"/><path class="cls-19" d="M434.27,1092.47" transform="translate(2.04 10.2)"/><path class="cls-20" d="M444.21,1077.73l-3.83,5.58,5.46-4.57.46,6.26.46-6.73,2.78,4.23-2-4.78,5.09,1.44-3.73-2.3,4,.72,4.17,2.35.66,2.78-3.85-1.94,1.06,3.78-3-2.64-.88,5.22-2.1-2.46q-.49,2.63-.83,5.52a76.66,76.66,0,0,0-.14,16.26,90.87,90.87,0,0,0-2.86-16.2c-.47-1.71-1-3.36-1.5-4.93l-6.89,7.75.4-6.67-7.52,9.94a25,25,0,0,1,14.59-18.61Z" transform="translate(2.04 10.2)"/></g><ellipse class="cls-21" cx="938.54" cy="1159.7" rx="47.5" ry="150.5"/><ellipse class="cls-22" cx="1004.54" cy="1286.7" rx="33.5" ry="43.5"/></svg>