<?xml version="1.0" encoding="utf-8"?>
<!-- Generator: Adobe Illustrator 24.3.0, SVG Export Plug-In . SVG Version: 6.00 Build 0)  -->
<svg version="1.1" id="Layer_1" xmlns="http://www.w3.org/2000/svg" xmlns:xlink="http://www.w3.org/1999/xlink" x="0px" y="0px"
	 viewBox="0 0 1366 1366" style="enable-background:new 0 0 1366 1366;" xml:space="preserve">
<style type="text/css">
	.st0{clip-path:url(#triangle_1_);}
	.st1{fill:url(#SVGID_1_);}
	.st2{fill:#FFFFFF;}
	.st3{fill:#FFFFFF;stroke:#000000;stroke-miterlimit:10;}
	.st4{fill:url(#SVGID_2_);}
	.st5{fill:url(#SVGID_3_);}
	.st6{fill:url(#SVGID_4_);}
	.st7{fill:url(#SVGID_5_);}
	.st8{fill:url(#SVGID_6_);}
	.st9{fill:none;stroke:#FFFFFF;stroke-miterlimit:10;}
	.st10{display:none;}
	.st11{display:inline;fill:none;stroke:#132240;stroke-miterlimit:10;}
	.st12{display:inline;fill:#F28F6B;}
	.st13{display:inline;fill:#132240;}
	.st14{display:inline;fill:#3FA8F4;}
	.st15{display:inline;fill:#FFFFFF;}
	.st16{fill:#F26A1B;}
	.st17{display:none;fill:#F28F6B;}
	.st18{display:none;fill:#132240;}
	.st19{display:none;fill:none;stroke:#F05A24;stroke-width:3;stroke-linecap:round;stroke-miterlimit:10;}
	.st20{fill:#F2BDBD;}
	.st21{fill:#F28F6B;}
	.st22{display:none;fill:#591303;}
	.st23{fill:#F26D3D;}
	.st24{fill:#5CB9F2;}
	.st25{fill:#0095D4;}
	.st26{fill:#212121;}
	.st27{fill:#003294;}
	.st28{fill:#0367A6;}
	.st29{display:none;fill:url(#SVGID_7_);}
	.st30{display:none;fill:url(#SVGID_8_);}
</style>
<g>
	<defs>
		<polygon id="triangle" points="683,0 1366,1366 0,1366 		"/>
	</defs>
	<clipPath id="triangle_1_">
		<use xlink:href="#triangle"  style="overflow:visible;"/>
	</clipPath>
	<g class="st0">
		<linearGradient id="SVGID_1_" gradientUnits="userSpaceOnUse" x1="675.7213" y1="6.3188" x2="697.2623" y2="1352.7777">
			<stop  offset="0.3518" style="stop-color:#132240"/>
			<stop  offset="0.4311" style="stop-color:#17233F"/>
			<stop  offset="0.5178" style="stop-color:#25243C"/>
			<stop  offset="0.608" style="stop-color:#3A2738"/>
			<stop  offset="0.7007" style="stop-color:#592A32"/>
			<stop  offset="0.7952" style="stop-color:#812F2A"/>
			<stop  offset="0.8913" style="stop-color:#B13420"/>
			<stop  offset="0.9869" style="stop-color:#E93B15"/>
			<stop  offset="1" style="stop-color:#F13C13"/>
		</linearGradient>
		<rect y="-10.2" class="st1" width="1373.08" height="1385.38"/>
		<ellipse class="st2" cx="899.88" cy="754.92" rx="10.11" ry="10.2"/>
		<ellipse class="st2" cx="683.51" cy="137.72" rx="5.06" ry="5.1"/>
		<ellipse class="st2" cx="749.87" cy="292.01" rx="5.06" ry="5.1"/>
		<ellipse class="st2" cx="743.16" cy="88.75" rx="5.06" ry="5.1"/>
		<ellipse class="st2" cx="581.38" cy="191.79" rx="5.06" ry="5.1"/>
		<ellipse class="st2" cx="673.39" cy="199.95" rx="5.06" ry="5.1"/>
		<ellipse class="st2" cx="438.82" cy="765.12" rx="5.06" ry="5.1"/>
		<ellipse class="st2" cx="443.82" cy="695.12" rx="5.06" ry="5.1"/>
		<ellipse class="st2" cx="701.82" cy="672.12" rx="5.06" ry="5.1"/>
		<ellipse class="st2" cx="467.82" cy="527.12" rx="5.06" ry="5.1"/>
		<ellipse class="st2" cx="827.98" cy="481.22" rx="5.06" ry="5.1"/>
		<ellipse class="st2" cx="645.08" cy="335.63" rx="5.06" ry="5.1"/>
		<path class="st3" d="M52.07,1329.78"/>
		<ellipse class="st2" cx="183.52" cy="1285.92" rx="7.08" ry="7.14"/>
		<linearGradient id="SVGID_2_" gradientUnits="userSpaceOnUse" x1="-2.0417" y1="1328.8188" x2="383.681" y2="1328.8188">
			<stop  offset="0" style="stop-color:#39B44A"/>
			<stop  offset="1" style="stop-color:#006837"/>
		</linearGradient>
		<path class="st4" d="M-2.04,1378.61c14.34-26.21,36.78-59.36,69.2-80.39c30.23-19.61,60.78-23.27,110.47-15.17
			c48.51,7.9,117.89,27.44,206.05,78.26"/>
		<linearGradient id="SVGID_3_" gradientUnits="userSpaceOnUse" x1="88.9771" y1="1271.8998" x2="1354.8778" y2="1271.8998">
			<stop  offset="0" style="stop-color:#39B44A"/>
			<stop  offset="1" style="stop-color:#006837"/>
		</linearGradient>
		<path class="st5" d="M88.98,1371.1c29.03-38.4,89.95-108.14,191.1-156.09c94.88-44.97,187.68-51.02,294.23-43.87
			c316.64,21.25,658.91,154.22,780.57,204.03"/>
		
			<linearGradient id="SVGID_4_" gradientUnits="userSpaceOnUse" x1="468.1483" y1="1316.8755" x2="1372.178" y2="1316.8755" gradientTransform="matrix(0.9983 0.0576 -0.0576 0.9983 78.2751 -50.4657)">
			<stop  offset="0" style="stop-color:#39B44A"/>
			<stop  offset="1" style="stop-color:#006837"/>
		</linearGradient>
		<path class="st6" d="M1372.65,1337.88c-47.74-16.89-108.06-35.17-179.46-49.77c-368.99-75.48-729.9,9.36-725.56,42.61
			c3.19,24.47,207.2,44.51,902.91,44.05"/>
		<linearGradient id="SVGID_5_" gradientUnits="userSpaceOnUse" x1="200.1984" y1="1319.4867" x2="1366" y2="1319.4867">
			<stop  offset="0" style="stop-color:#39B44A"/>
			<stop  offset="1" style="stop-color:#006837"/>
		</linearGradient>
		<path class="st7" d="M200.2,1366c38.89-28.45,103.47-67.56,191.1-86.71c104.98-22.94,161.22,22.51,337.71,42.85
			c58.87,6.78,69.66,4.36,202.22,9.18c102.14,3.71,250.12,10.76,434.77,25.5"/>
		<linearGradient id="SVGID_6_" gradientUnits="userSpaceOnUse" x1="332.6529" y1="1363.9597" x2="332.6529" y2="1363.9597">
			<stop  offset="0" style="stop-color:#39B44A"/>
			<stop  offset="1" style="stop-color:#006837"/>
		</linearGradient>
		<path class="st8" d="M332.65,1363.96"/>
		<ellipse class="st2" cx="337.71" cy="259.12" rx="3.54" ry="5.1"/>
		<ellipse class="st2" cx="155.2" cy="160.17" rx="3.54" ry="5.1"/>
		<ellipse class="st2" cx="148.13" cy="699.83" rx="3.54" ry="5.1"/>
		<ellipse class="st2" cx="334.17" cy="938.55" rx="3.54" ry="5.1"/>
		<ellipse class="st2" cx="398.17" cy="1029.55" rx="3.54" ry="5.1"/>
		<ellipse class="st2" cx="437.17" cy="1114.55" rx="3.54" ry="5.1"/>
		<ellipse class="st2" cx="576.17" cy="1004.55" rx="3.54" ry="5.1"/>
		<ellipse class="st2" cx="668.17" cy="1015.55" rx="3.54" ry="5.1"/>
		<ellipse class="st2" cx="746.17" cy="948.55" rx="3.54" ry="5.1"/>
		<ellipse class="st2" cx="531.17" cy="635.55" rx="3.54" ry="5.1"/>
		<ellipse class="st2" cx="341.17" cy="852.55" rx="3.54" ry="5.1"/>
		<ellipse class="st2" cx="359.17" cy="862.55" rx="3.54" ry="5.1"/>
		<ellipse class="st2" cx="509.17" cy="879.55" rx="3.54" ry="5.1"/>
		<ellipse class="st2" cx="650.17" cy="967.55" rx="3.54" ry="5.1"/>
		<ellipse class="st2" cx="584.92" cy="584.55" rx="3.54" ry="5.1"/>
		<ellipse class="st2" cx="1218.88" cy="62.23" rx="3.54" ry="5.1"/>
		<ellipse class="st2" cx="1115.75" cy="453.97" rx="3.54" ry="5.1"/>
		<ellipse class="st2" cx="950.67" cy="645.56" rx="3.54" ry="5.1"/>
		<ellipse class="st2" cx="811.05" cy="370.37" rx="3.54" ry="5.1"/>
		<ellipse class="st2" cx="1054.07" cy="760.02" rx="3.54" ry="5.1"/>
		<ellipse class="st2" cx="953.98" cy="677.39" rx="3.54" ry="5.1"/>
		<ellipse class="st2" cx="461.15" cy="760.25" rx="3.54" ry="5.1"/>
		<ellipse class="st2" cx="742.66" cy="645.76" rx="3.54" ry="5.1"/>
		<ellipse class="st2" cx="984.31" cy="977.32" rx="3.54" ry="5.1"/>
		<ellipse class="st2" cx="366.52" cy="527.42" rx="3.54" ry="5.1"/>
		<ellipse class="st2" cx="442.36" cy="340.73" rx="3.54" ry="5.1"/>
		<ellipse class="st2" cx="538.92" cy="420.31" rx="10.11" ry="10.2"/>
		<ellipse class="st2" cx="838.2" cy="645.76" rx="10.11" ry="10.2"/>
		<ellipse class="st2" cx="810.9" cy="832.45" rx="10.11" ry="10.2"/>
		<line class="st9" x1="538.92" y1="420.31" x2="838.2" y2="645.76"/>
		<line class="st9" x1="837.7" y1="645.25" x2="899.38" y2="754.41"/>
		<line class="st9" x1="810.4" y1="831.94" x2="899.38" y2="754.41"/>
	</g>
</g>
<g id="Iteration_1" class="st10">
	<path class="st11" d="M616,910c-0.66-0.35-1.68-0.79-3-1c-1.24-0.2-2.29-0.11-3,0"/>
	<path class="st11" d="M619,908c-0.66-0.35-1.68-0.79-3-1c-1.24-0.2-2.29-0.11-3,0"/>
	<ellipse class="st12" cx="663" cy="937" rx="104" ry="83"/>
	<ellipse class="st12" cx="666" cy="935" rx="104" ry="83"/>
	<path class="st13" d="M638.82,844.62c-1.75,2.58-3.48,5.2-5.21,7.83c-0.56-3.25-3.78-5.92-7.06-3.42
		c-6.65,5.09-13.62,9.96-20.3,15.13c-1.23-0.51-2.68-0.51-4.19,0.35c-6.15,3.52-10.82,8.65-15.47,13.91
		c-5.05,5.71-10.05,11.49-14.44,17.73c-2.13,3.03-4,6.17-5.65,9.38c-4.99,7.77-9.43,15.89-13.27,24.33c-1.37,3,0.27,5.8,2.53,7.01
		c-0.23,0.97-0.45,1.94-0.68,2.91c-0.16,0.72-0.18,1.39-0.08,2.01c-0.88,3.21-1.47,6.51-1.63,9.96c-0.08,1.68,0.77,3.03,1.98,3.89
		c-1.96,5.1,5.23,9.34,8.48,5.06c-1.84,5.87-3.4,11.82-4.66,17.83c-1.32,6.28,8.32,8.96,9.64,2.66
		c4.49-21.38,12.7-41.73,24.35-60.14c1.19-0.26,2.26-0.99,2.94-2.3c1.33-2.55,2.62-5.12,3.91-7.69c7.25-9.72,15.89-18.08,23.6-27.42
		c8.78-10.63,16.08-22.58,23.82-33.97C651.08,844.33,642.42,839.32,638.82,844.62z"/>
	<path class="st14" d="M785.22,928.08c-2.37-0.78-4.37-2.13-6.24-3.67c1.51-2.31,1.5-5.84-1.4-7.3c-1.47-0.74-2.96-1.47-4.44-2.2
		c2.24-2.01,2.54-6.35-0.54-8.36c-16.83-11.05-29.19-27.58-46.29-38.31c-0.23-0.14-0.46-0.27-0.69-0.42
		c-0.89-0.7-1.79-1.39-2.71-2.04c-0.75-0.53-1.49-0.8-2.19-0.86c-4.7-2.68-9.47-5.21-14.1-8c-1.75-1.66-3.48-3.35-5.17-5.09
		c-4.98-5.15-9.28-10.79-13.96-16.19c-4.58-5.28-9.95-8.63-17.09-7.5c-4.01,0.64-4.42,5.83-2.21,8.36
		c4.77,5.45,9.8,10.63,15.18,15.44c-0.29,1.1-0.17,2.34,0.59,3.61c22.05,37.18,56.34,65.91,96.63,81.42
		c0.64,0.28,1.29,0.54,1.98,0.76C788.74,939.76,791.16,930.3,785.22,928.08z"/>
	<ellipse class="st12" cx="552.5" cy="982" rx="25.5" ry="160"/>
	<ellipse class="st12" cx="801.5" cy="1327" rx="25.5" ry="160"/>
	<path class="st12" d="M698,1119h-57.5c5.23-13.27,10.33-31.51,10.4-53.33c0.07-22.22-5.12-40.76-10.4-54.17c19.17,0,38.33,0,57.5,0
		c-3.87,15.35-6.85,33.92-6.73,55.01C691.39,1086.53,694.27,1104.23,698,1119z"/>
	<ellipse class="st12" cx="678.5" cy="1127.5" rx="66.5" ry="15.5"/>
	<ellipse class="st15" cx="676.5" cy="1243" rx="99.5" ry="121"/>
	<ellipse class="st15" cx="775.5" cy="1143.5" rx="47.5" ry="61.5"/>
	<ellipse class="st15" cx="580" cy="1140" rx="49" ry="37"/>
	<polyline class="st15" points="629,961.48 662.69,982.32 676.5,977.83 	"/>
	<rect x="605" y="1327" class="st15" width="143" height="36"/>
	<ellipse class="st15" cx="627" cy="915" rx="14" ry="8"/>
	<ellipse class="st15" cx="710" cy="914" rx="14" ry="8"/>
	<ellipse class="st13" cx="627" cy="911" rx="5" ry="4"/>
	<ellipse class="st13" cx="710" cy="910" rx="5" ry="4"/>
	<path class="st11" d="M699,902.41c8-8.59,31.74,8.59,31.74,8.59"/>
	<path class="st11" d="M641,901.41c-9.58-8.59-38,8.59-38,8.59"/>
	<path class="st11" d="M614,912c-0.66-0.35-1.68-0.79-3-1c-1.24-0.2-2.29-0.11-3,0"/>
</g>
<g>
	<path class="st16" d="M431.53,1167.95c11.98-26.39,18.43-39.67,18.17-39.79c-0.31-0.15-5.64,11.85-17.08,31.02
		c-2.24,3.75-2.1,3.4-3.84,6.33c-1.15,1.94-20.59,37.46-19,38.37c0.89,0.51,8.03-9.87,13.22-18.88
		C426.83,1178.36,429.07,1173.37,431.53,1167.95z"/>
	<ellipse class="st17" cx="662.5" cy="809" rx="76.5" ry="87"/>
	<path class="st18" d="M662.42,710c0.76,4.42,1.34,11.72-2.08,19c-8.66,18.44-31.3,13.05-47.89,33c-8.94,10.74-5.24,15.79-19.78,36
		c-5.11,7.09-13.08,18.17-15.62,17c-4.28-1.97,2.8-40.68,29.15-70C626.31,722.62,650.59,713.57,662.42,710z"/>
	<path class="st18" d="M663.59,712c-0.77,4.84-1.35,12.82,2.1,20.79c8.75,20.18,31.62,14.28,48.38,36.11
		c9.03,11.76,5.29,17.28,19.98,39.4c5.16,7.76,13.21,19.88,15.78,18.6c4.33-2.16-2.83-44.52-29.45-76.6
		C700.07,725.82,675.54,715.9,663.59,712z"/>
	<path class="st18" d="M550,793"/>
	<path class="st19" d="M608,809c3.15,1.99,11.24,6.52,22.5,6.5c11.2-0.02,19.23-4.5,22.38-6.5"/>
	<path class="st19" d="M670,809c3.15,1.99,11.24,6.52,22.5,6.5c11.2-0.02,19.23-4.5,22.38-6.5"/>
	<path class="st19" d="M660.5,820.5c-10.08,10.03-10.89,22.25-6,27c3.98,3.87,11.33,2.38,13,2"/>
	<path class="st19" d="M662.5,871.85c3.36,0.14,8.82-0.07,15-2.35c7.87-2.9,12.88-7.67,15.3-10.33"/>
	
		<ellipse transform="matrix(0.9801 -0.1983 0.1983 0.9801 -209.5286 111.6715)" class="st20" cx="452.8" cy="1101.98" rx="26.24" ry="24.91"/>
	
		<ellipse transform="matrix(0.9801 -0.1983 0.1983 0.9801 -209.9245 111.7174)" class="st21" cx="452.83" cy="1103.98" rx="26.24" ry="24.91"/>
	<path class="st22" d="M555.96,1163.94c-0.09-0.01-0.19-0.03-0.3-0.06c-0.91-0.24-2.53-0.03-3.48-0.04
		c-1.38-0.02-2.77-0.03-4.15-0.05c-9.46-15.95-8.38-34.98-7.26-52.95c0.35-5.6-7.21-6.3-9.42-2.14c-0.37,0.22-0.73,0.5-1.08,0.85
		c-14.41,14.67-25.81,31.66-34.12,50.39c-3.37-0.13-6.77,3.01-5.13,6.53c-8.43,0.29-16.56,0.11-24.98-1.3
		c-9.1-1.52-16.16,0.9-24.96,2.79c-1.15,0.25-1.99,0.8-2.57,1.52c-1.39-4.16-9.13-3.42-9.83,2.09c-1.39,11.03-4.96,21.59-10.3,31.31
		c-3.1,5.64,5.53,10.7,8.63,5.05c3.94-7.17,6.9-14.64,8.96-22.4c0.8,0.85,1.98,1.38,3.55,1.29c0.58-0.03,1.16-0.04,1.74-0.07
		c3.06,2.24,6.38,4.18,9.71,5.99c8.72,4.73,17.79,4.83,27.26,2.38c5.96-1.54,13.36-4.98,19.3-9.78c1.12-0.2,2.24-0.41,3.35-0.66
		c1.42-0.32,2.9-0.74,4.27-1.34c3.15,1.84,7.96,0.55,7.43-3.95c-0.56-4.73-1.86-8.94-4.5-12.94c-0.01-0.02-0.02-0.03-0.03-0.04
		c-0.07-1.65-0.36-3.35-0.96-5.09c-0.09-0.27-0.21-0.52-0.34-0.77c6.09-13.06,14-25.19,23.39-36.09
		c-0.33,16.25,1.3,32.57,10.57,46.5c0.13,0.2,0.27,0.38,0.42,0.55c0.77,1.3,2.13,2.24,4.08,2.26c3.7,0.04,7.47,0.3,11.16,0.1
		c3.2-0.17,6.25-1.29,7.83-4.26C567.1,1164.15,559.26,1159.27,555.96,1163.94z"/>
	
		<ellipse transform="matrix(0.8034 -0.5954 0.5954 0.8034 -581.9365 551.6454)" class="st21" cx="544.48" cy="1157.15" rx="5.75" ry="26.73"/>
	<path class="st23" d="M543.62,1162.75c8.54,9.64,16.89,15.49,16.17,16.41c-0.37,0.48-2.88-0.77-3.69-1.17
		c-7.49-3.71-11.59-9.46-14.19-13.44c-5.04-7.71-10.92-17.75-10.42-18.06C531.91,1146.22,535.44,1153.5,543.62,1162.75z"/>
	
		<ellipse transform="matrix(0.5783 -0.8158 0.8158 0.5783 -714.6008 949.8702)" class="st21" cx="561.48" cy="1166.15" rx="5.75" ry="26.73"/>
	
		<ellipse transform="matrix(0.8944 -0.4472 0.4472 0.8944 -466.1424 356.8793)" class="st21" cx="522.81" cy="1165.75" rx="28.23" ry="10.47"/>
	
		<ellipse transform="matrix(0.8944 -0.4472 0.4472 0.8944 -460.9122 349.0347)" class="st21" cx="508.81" cy="1150.75" rx="28.23" ry="10.47"/>
	<path class="st20" d="M518.25,1161.29c14.47-8.08,25.08-9.76,24.82-10.73c-0.3-1.1-14.58-0.82-27.97,6.85
		c-12.88,7.38-20.22,18.91-19.44,19.73C496.38,1177.89,503.56,1169.5,518.25,1161.29z"/>
	<path class="st20" d="M506.25,1146.29c12.83-6.48,25.07-8.53,24.75-10.29c-0.14-0.79-2.69-0.93-4-1c-11.14-0.57-20.12,5-23.89,7.41
		c-12.32,7.89-20.23,18.9-19.44,19.73C484.39,1162.91,491.38,1153.8,506.25,1146.29z"/>
	<path class="st24" d="M518.32,1153.22l-9.03-12.18c-2.82-3.81-8.19-4.6-12-1.78l-23.16,17.17c-3.81,2.82-4.6,8.19-1.78,12
		l9.03,12.18c2.82,3.81,8.19,4.6,12,1.78l23.16-17.17C520.34,1162.4,521.14,1157.03,518.32,1153.22z"/>
	
		<rect x="482.57" y="1136.45" transform="matrix(0.5954 0.8034 -0.8034 0.5954 1138.6271 81.4803)" class="st25" width="11.69" height="69.6"/>
	<path class="st24" d="M533.83,1173.53l-5.12-15.35c-1.29-3.86-5.46-5.94-9.32-4.66l-29.64,9.89c-3.86,1.29-5.94,5.46-4.66,9.32
		l5.12,15.35c1.29,3.86,5.46,5.94,9.32,4.66l29.64-9.89C533.03,1181.57,535.12,1177.39,533.83,1173.53z"/>
	<path class="st24" d="M515.96,1173.53c-0.44,7.44-8.93,13.38-16.36,18.57c-3.4,2.38-10.93,7.53-22.55,10.11
		c-18.56,4.13-37.08-0.64-39.05-5.74c-0.83-2.14-1.13-4.99-1.13-4.99c-0.24-2.25-0.04-3.84,0.03-5c0.33-4.78-0.86-8.26-1.06-9.53
		c-1.08-6.9,14.91-27.57,38.9-28.68C495.57,1147.3,516.68,1161.32,515.96,1173.53z"/>
	<path class="st25" d="M437,1170c-0.89,2.63-1.85,6.4-2,11c-0.17,5.29,0.79,9.61,1.66,12.46c0.54,2,1.68,5.07,4.34,7.54
		c5.45,5.07,13.66,4.26,25,3c4.55-0.51,11.12-1.53,18.93-3.84c15.36-6.05,30.72-12.11,46.07-18.16c0.9-0.35-32.32,10.03-64,13
		c-3.65,0.34-10.5,0.88-17-3C440.38,1186.26,437.77,1174.58,437,1170z"/>
	
		<ellipse transform="matrix(0.4472 -0.8944 0.8944 0.4472 -724.6383 1058.6884)" class="st21" cx="494.18" cy="1115.59" rx="44" ry="4.45"/>
	<path class="st16" d="M496,1122c11.41-22.74,18.24-41.1,17.86-41.27c-0.32-0.14-5.55,12.29-16.86,32.27
		c-2.21,3.91-2.07,3.54-3.8,6.6c-10.69,18.94-19.6,39.38-18.7,39.84C475.41,1159.91,486.71,1140.51,496,1122z"/>
	<path class="st20" d="M492,1116c11.01-22.05,21.81-38.66,20.86-39.27c-0.44-0.28-3.17,2.91-4.86,5.27c-0.96,1.34-1.35,2.41-3,5
		c-1.02,1.6-1.81,2.73-2,3c-6.42,9.26-13,24-13,24c-6.91,15.48-17.18,41.17-16.5,41.44C474.01,1155.65,479.74,1140.55,492,1116z"/>
	
		<ellipse transform="matrix(0.4472 -0.8944 0.8944 0.4472 -804.3964 1027.6371)" class="st21" cx="429.18" cy="1164.59" rx="44" ry="4.45"/>
	<path class="st23" d="M563,1171c10.76,6.91,20.38,9.86,20,11c-0.21,0.63-3.26,0.12-4,0c-7.5-1.25-12.69-5.37-17-9
		c-6.94-5.85-15.36-13.61-15-14C547.33,1158.64,552.69,1164.38,563,1171z"/>
</g>
<g id="Hair">
	
		<ellipse transform="matrix(0.9913 -0.1314 0.1314 0.9913 -141.8279 68.8282)" class="st26" cx="450.45" cy="1108.73" rx="27.31" ry="32.27"/>
	<path class="st26" d="M477.39,1104.18c0.3,2.88,1.16,7.16,3.97,11.13c3.27,4.61,6.17,4.57,9.75,8.73
		c4.59,5.32,3.28,9.38,6.35,16.25c1.93,4.31,5.7,9.97,13.82,15.2c-4.61,4.53-9.13,6.73-11.97,7.82c-5.39,2.08-10.09,2.26-13.93,2.37
		c-7.32,0.22-7.68-1.23-13.53-0.63c-2.29,0.23-7.2,0.64-12.84,3.12c-4.82,2.12-6.26,4.01-10.64,4.62c-2.67,0.37-3.42-0.15-7.27-0.46
		c-8.06-0.63-14.59,0.9-18.35,1.82c-2.77,0.67-6.51,1.78-10.82,3.69c6.88-10.07,7.34-17.19,6.51-21.82
		c-1.07-5.99-4.22-7.31-3.81-12.87c0.46-6.25,4.71-8.16,7.46-16.65c1.47-4.54,1.75-8.57,1.74-11.32c-0.01-0.08-0.08-0.5,0.19-0.9
		c0.17-0.26,0.44-0.45,0.76-0.51l51.22-10.52c-0.24-2.88-0.27-4.34-0.08-4.37C476.14,1098.83,476.63,1100.6,477.39,1104.18z"/>
	<path class="st27" d="M411.95,1177.85c1.18-1.62,2.47-3.66,3.66-6.12c1.03-2.12,1.75-4.11,2.28-5.83c0.21-1.1,0.45-2.65,0.6-4.51
		c0.19-2.3,0.28-3.45,0.06-4.89c-0.15-0.98-0.38-1.64-1.96-5.45c-0.66-1.59-1.24-2.96-1.7-4.04c-0.32-1.37-0.62-3.46-0.12-5.83
		c0.8-3.78,3.02-5.3,5.36-9.88c0.79-1.54,1.8-3.83,2.56-6.87c-0.31-5.39-0.34-11.27,0.11-17.58c0.15-2.07,0.34-4.09,0.56-6.04
		c0.52-3.13,1.82-8.23,5.46-13.24c2.98-4.1,6.18-6.3,6.89-6.78c3.49-2.34,6.8-3.33,8.88-3.78c-0.28,0.17-0.56,0.35-0.86,0.54
		c-3.83,2.45-9.33,6.85-13.21,14.06c-4.6,8.54-4.73,16.94-4.75,20.97c-0.03,7.14,1.53,7.21,0.87,12.5
		c-1.19,9.57-6.43,10.41-6.74,17.97c-0.25,6.21,3.21,7.42,5.06,17.01c1.08,5.62,0.89,10.42,0.58,13.54
		c-1.32,0.21-2.71,0.49-4.15,0.85C417.74,1175.36,414.58,1176.59,411.95,1177.85z"/>
	<path class="st27" d="M432.46,1172.17c1.29-2.67,1.89-5.1,2.19-6.79c0.3-1.7,0.97-5.16,0.01-9.27c-0.49-2.08-0.95-2.51-1.87-5.47
		c-1.14-3.66-2.1-6.75-1.82-9.87c0.37-4.18,2.61-4.27,4.66-9.74c1.62-4.32,1.68-8.16,1.74-11.57c0.1-6.27-1.18-7.45-0.94-14.44
		c0.13-3.8,0.62-6.63,0.77-7.47c1.06-5.78,2.86-10.07,4.38-13.58c0.84-1.93,1.97-4.34,3.48-7.06c-0.63,5.98-1.49,10.77-2.18,14.1
		c-0.23,1.09-2.19,10.42-2.15,15.94c0.01,1.41,0.11,2.84,0.32,4.44c0.74,5.77,1.95,4.94,2.06,8.84c0.33,10.94-9.24,14.75-7.47,22.5
		c0.61,2.65,1.44,3.39,4.26,9.93c0.61,1.41,1.17,3.14,1.6,5.45c1.05,5.67,0.51,10.55-0.06,13.67c-1.31-0.1-2.76-0.15-4.32-0.09
		C435.41,1171.77,433.85,1171.94,432.46,1172.17z"/>
	<path class="st27" d="M454.21,1170.63c10.73-7.23,13.06-13.15,13.09-17.32c0.05-6.5-5.5-7.96-10.19-18.88
		c-4.49-10.45-4.37-20.66-4.3-23.94c0.27-12.73,4.53-16.83,1.13-23.69c-2.76-5.57-8.82-9.44-8.43-9.97c0.07-0.09,0.4-0.05,2.03,0.89
		c3.85,2.22,7.74,4.53,10.25,9.26c0.16,0.3,0.64,1.27,1.11,2.7c2.72,8.32-0.71,15.33-0.83,24.07c-0.11,8.52,2.99,15.07,4.22,17.67
		c3.76,7.95,6.67,7.41,10.59,15.87c3.6,7.76,5.27,17.06,3.76,17.76c-0.02,0.01-0.04,0.01-0.09,0.03c-1.8,0.4-3.24,0.07-4.7-0.02
		c-1.32-0.08-2.33,0.06-3.32,0.19c0,0-1.36,0.22-2.77,0.57C461,1166.98,456.43,1169.38,454.21,1170.63z"/>
	<path class="st27" d="M495.16,1163.3c-1.64-1.15-0.61-3.31-0.98-9.66c-0.59-10.15-4.01-16.71-4.85-18.51
		c-4.9-10.46-11.68-7.97-15.64-17.27c-3.62-8.48,1.66-11.59-2.43-20.96c-3.59-8.23-10.5-12.87-13.19-14.67
		c-4.65-3.12-9.07-4.68-12.09-5.49c1.21-0.15,3.04-0.3,5.25-0.1c11.2,1,18.09,9.58,19.3,11.15c3.02,3.9,4.34,7.66,5.23,10.14
		c2.68,7.51,1.99,12.22,5.52,16.91c2.42,3.22,4.73,4.88,4.73,4.88c1.29,0.92,1.97,1.16,3.29,2.25c0,0,2,1.66,3.64,4.13
		c3.27,4.94,2.08,8.98,5.26,15.5c1.96,4.03,4.47,6.68,5.8,8.07c2.66,2.78,5.31,4.63,7.3,5.82c-0.93,1.06-2.28,2.43-4.09,3.77
		C506.57,1159.72,498.46,1165.61,495.16,1163.3z"/>
	<path class="st24" d="M446.06,1077.2"/>
	<path class="st24" d="M447.45,1076.92"/>
	<path class="st27" d="M449.01,1082.56"/>
	<path class="st27" d="M434.27,1092.47"/>
	<path class="st28" d="M444.21,1077.73c-1.28,1.86-2.56,3.72-3.84,5.58c1.82-1.52,3.64-3.05,5.46-4.57l0.46,6.26l0.46-6.72
		l2.79,4.23l-2-4.78l5.1,1.44l-3.74-2.31l4.01,0.72l4.17,2.35l0.66,2.78l-3.84-1.94l1.06,3.78l-3.03-2.64l-0.87,5.22l-2.1-2.45
		c-0.33,1.75-0.62,3.59-0.84,5.51c-0.69,6.04-0.59,11.53-0.14,16.26c-0.41-4.9-1.27-10.37-2.86-16.2c-0.47-1.71-0.97-3.36-1.5-4.93
		c-2.29,2.58-4.59,5.17-6.88,7.75l0.4-6.66l-7.52,9.93c0.4-2.28,1.58-7.14,5.49-11.79C438.41,1080.62,442.14,1078.64,444.21,1077.73
		z"/>
</g>
<linearGradient id="SVGID_7_" gradientUnits="userSpaceOnUse" x1="870.2469" y1="1034.7463" x2="1002.7531" y2="1264.2537">
	<stop  offset="0" style="stop-color:#39B44A"/>
	<stop  offset="1" style="stop-color:#006837"/>
</linearGradient>
<ellipse class="st29" cx="936.5" cy="1149.5" rx="47.5" ry="150.5"/>
<linearGradient id="SVGID_8_" gradientUnits="userSpaceOnUse" x1="981.8809" y1="1240.7866" x2="1023.1191" y2="1312.2134">
	<stop  offset="0" style="stop-color:#39B44A"/>
	<stop  offset="1" style="stop-color:#006837"/>
</linearGradient>
<ellipse class="st30" cx="1002.5" cy="1276.5" rx="33.5" ry="43.5"/>
</svg>
