<svg fill="#000000" xmlns="http://www.w3.org/2000/svg"  viewBox="0 0 80 80" width="480px" height="480px"><path fill="none" stroke="#000000" stroke-miterlimit="10" stroke-width="2" d="M28.204,59.422h-8.613V31.744h8.613V59.422z M23.903,27.963c-2.763,0-4.994-2.236-4.994-4.989s2.231-4.989,4.994-4.989c2.75,0,4.984,2.236,4.984,4.989S26.653,27.963,23.903,27.963z M60.423,59.422h-8.6V45.961c0-3.21-0.056-7.338-4.471-7.338c-4.475,0-5.158,3.499-5.158,7.109v13.691h-8.594V31.744h8.244v3.784h0.12c1.149-2.176,3.952-4.47,8.137-4.47c8.713,0,10.321,5.73,10.321,13.185V59.422z"/><path fill="none" stroke="#000000" stroke-miterlimit="10" stroke-width="2" d="M15,68h50c2.209,0,4-1.791,4-4V14c0-2.209-1.791-4-4-4H15c-2.209,0-4,1.791-4,4v50C11,66.209,12.791,68,15,68z"/><path d="M40 17A1 1 0 1 0 40 19 1 1 0 1 0 40 17zM44 17A1 1 0 1 0 44 19 1 1 0 1 0 44 17zM48 17A1 1 0 1 0 48 19 1 1 0 1 0 48 17zM52 17A1 1 0 1 0 52 19 1 1 0 1 0 52 17zM36 17A1 1 0 1 0 36 19 1 1 0 1 0 36 17zM56 17A1 1 0 1 0 56 19 1 1 0 1 0 56 17zM60 17A1 1 0 1 0 60 19 1 1 0 1 0 60 17z"/></svg>