<svg width="130" height="132" viewBox="0 0 130 132" fill="none" xmlns="http://www.w3.org/2000/svg">
<circle cx="65" cy="65" r="65" fill="#FEFEFE"/>
<path d="M65.2223 6.07248L112.947 98.8857C113.033 99.052 112.912 99.25 112.725 99.25H17.2752C17.0881 99.25 16.9673 99.0521 17.0529 98.8857L64.7777 6.07247C64.8707 5.89157 65.1293 5.89157 65.2223 6.07248Z" stroke="#212121" stroke-width="1.5"/>
<path d="M87 90.5748C87 91.9555 85.8807 93.0748 84.5 93.0748C83.1193 93.0748 82 91.9555 82 90.5748C82 89.194 83.1193 88.0748 84.5 88.0748C85.8807 88.0748 87 89.194 87 90.5748Z" fill="#212121"/>
<circle cx="94.5" cy="77.5" r="2.5" fill="#212121"/>
<circle cx="88.0264" cy="66.6316" r="2.5" fill="#212121"/>
<circle cx="52.5" cy="46.5" r="2.5" fill="#212121"/>
<line x1="51.4308" y1="44.7492" x2="86.9571" y2="64.8807" stroke="#212121"/>
<line x1="87.1394" y1="65.0585" x2="94.2447" y2="76.9006" stroke="#212121"/>
<line x1="84.5794" y1="91.7296" x2="93.5794" y2="77.7296" stroke="#212121"/>
</svg>
