<svg id="Layer_1" data-name="Layer 1" xmlns="http://www.w3.org/2000/svg" xmlns:xlink="http://www.w3.org/1999/xlink" viewBox="0 0 1502.04 1388.81"><defs><style>.cls-1,.cls-11{fill:none;}.cls-2{clip-path:url(#clip-path);}.cls-3{fill:url(#linear-gradient);}.cls-4,.cls-5{fill:#fff;}.cls-5{stroke:#000;}.cls-11,.cls-5{stroke-miterlimit:10;}.cls-6{fill:url(#linear-gradient-2);}.cls-7{fill:url(#linear-gradient-3);}.cls-8{fill:url(#linear-gradient-4);}.cls-9{fill:url(#linear-gradient-5);}.cls-10{fill:url(#linear-gradient-6);}.cls-11{stroke:#fff;}.cls-12{fill:#132240;}.cls-13{fill:#f2f2e8;}</style><clipPath id="clip-path" transform="translate(2.04 10.2)"><polygon id="triangle" class="cls-1" points="683 0 1366 1366 0 1366 683 0"/></clipPath><linearGradient id="linear-gradient" x1="677.76" y1="16.52" x2="699.3" y2="1362.98" gradientUnits="userSpaceOnUse"><stop offset="0.35" stop-color="#132240"/><stop offset="0.43" stop-color="#17233f"/><stop offset="0.52" stop-color="#25243c"/><stop offset="0.61" stop-color="#3a2738"/><stop offset="0.7" stop-color="#592a32"/><stop offset="0.8" stop-color="#812f2a"/><stop offset="0.89" stop-color="#b13420"/><stop offset="0.99" stop-color="#e93b15"/><stop offset="1" stop-color="#f13c13"/></linearGradient><linearGradient id="linear-gradient-2" x1="-2.04" y1="1328.82" x2="383.68" y2="1328.82" gradientUnits="userSpaceOnUse"><stop offset="0" stop-color="#39b44a"/><stop offset="1" stop-color="#006837"/></linearGradient><linearGradient id="linear-gradient-3" x1="88.98" y1="1271.9" x2="1354.88" y2="1271.9" xlink:href="#linear-gradient-2"/><linearGradient id="linear-gradient-4" x1="468.15" y1="1316.88" x2="1372.18" y2="1316.88" gradientTransform="translate(78.28 -50.47) rotate(3.3)" xlink:href="#linear-gradient-2"/><linearGradient id="linear-gradient-5" x1="200.2" y1="1319.49" x2="1366" y2="1319.49" xlink:href="#linear-gradient-2"/><linearGradient id="linear-gradient-6" x1="332.65" y1="1363.96" x2="332.65" y2="1363.96" xlink:href="#linear-gradient-2"/></defs><g class="cls-2"><rect class="cls-3" x="2.04" width="1373.08" height="1385.38"/><ellipse class="cls-4" cx="901.92" cy="765.12" rx="10.11" ry="10.2"/><ellipse class="cls-4" cx="685.55" cy="147.92" rx="5.06" ry="5.1"/><ellipse class="cls-4" cx="718.91" cy="415.21" rx="5.06" ry="5.1"/><ellipse class="cls-4" cx="745.2" cy="98.96" rx="5.06" ry="5.1"/><ellipse class="cls-4" cx="583.43" cy="201.99" rx="5.06" ry="5.1"/><ellipse class="cls-4" cx="675.44" cy="210.15" rx="5.06" ry="5.1"/><ellipse class="cls-4" cx="440.86" cy="775.32" rx="5.06" ry="5.1"/><ellipse class="cls-4" cx="729.02" cy="274.42" rx="5.06" ry="5.1"/><ellipse class="cls-4" cx="647.13" cy="345.84" rx="5.06" ry="5.1"/><path class="cls-5" d="M52.07,1329.78" transform="translate(2.04 10.2)"/><ellipse class="cls-4" cx="185.56" cy="1296.12" rx="7.08" ry="7.14"/><path class="cls-6" d="M-2,1378.61c14.34-26.21,36.78-59.36,69.2-80.39,30.22-19.61,60.78-23.27,110.47-15.17,48.5,7.9,117.88,27.44,206.05,78.26" transform="translate(2.04 10.2)"/><path class="cls-7" d="M89,1371.1c29-38.4,90-108.14,191.1-156.08,94.87-45,187.68-51,294.23-43.87,316.64,21.25,658.9,154.22,780.57,204" transform="translate(2.04 10.2)"/><path class="cls-8" d="M1372.65,1337.88a1346.18,1346.18,0,0,0-179.46-49.77c-369-75.48-729.9,9.36-725.56,42.61,3.19,24.47,207.21,44.51,902.91,44.06" transform="translate(2.04 10.2)"/><path class="cls-9" d="M200.2,1366c38.89-28.45,103.47-67.56,191.1-86.71,105-22.94,161.22,22.5,337.71,42.84,58.86,6.79,69.66,4.37,202.22,9.18,102.13,3.72,250.12,10.76,434.77,25.51" transform="translate(2.04 10.2)"/><path class="cls-10" d="M332.65,1364" transform="translate(2.04 10.2)"/><ellipse class="cls-4" cx="339.75" cy="269.32" rx="3.54" ry="5.1"/><ellipse class="cls-4" cx="157.25" cy="170.37" rx="3.54" ry="5.1"/><ellipse class="cls-4" cx="150.17" cy="710.03" rx="3.54" ry="5.1"/><ellipse class="cls-4" cx="336.21" cy="948.75" rx="3.54" ry="5.1"/><ellipse class="cls-4" cx="586.96" cy="594.76" rx="3.54" ry="5.1"/><ellipse class="cls-4" cx="1220.93" cy="72.43" rx="3.54" ry="5.1"/><ellipse class="cls-4" cx="1117.79" cy="464.17" rx="3.54" ry="5.1"/><ellipse class="cls-4" cx="836.71" cy="493.76" rx="3.54" ry="5.1"/><ellipse class="cls-4" cx="872.1" cy="180.57" rx="3.54" ry="5.1"/><ellipse class="cls-4" cx="1056.12" cy="770.22" rx="3.54" ry="5.1"/><ellipse class="cls-4" cx="956.02" cy="687.59" rx="3.54" ry="5.1"/><ellipse class="cls-4" cx="607.19" cy="832.45" rx="3.54" ry="5.1"/><ellipse class="cls-4" cx="744.7" cy="655.97" rx="3.54" ry="5.1"/><ellipse class="cls-4" cx="986.35" cy="987.52" rx="3.54" ry="5.1"/><ellipse class="cls-4" cx="368.57" cy="537.63" rx="3.54" ry="5.1"/><ellipse class="cls-4" cx="444.4" cy="350.94" rx="3.54" ry="5.1"/><ellipse class="cls-4" cx="540.96" cy="430.51" rx="10.11" ry="10.2"/><ellipse class="cls-4" cx="840.25" cy="655.97" rx="10.11" ry="10.2"/><ellipse class="cls-4" cx="812.95" cy="842.66" rx="10.11" ry="10.2"/><line class="cls-11" x1="540.96" y1="430.51" x2="840.25" y2="655.97"/><line class="cls-11" x1="839.74" y1="655.46" x2="901.42" y2="764.61"/><line class="cls-11" x1="812.44" y1="842.15" x2="901.42" y2="764.61"/></g><rect class="cls-12" x="1499.04" y="774.2" width="3" height="3"/><path class="cls-12" d="M1567,814" transform="translate(2.04 10.2)"/><path class="cls-13" d="M765,1411" transform="translate(2.04 10.2)"/><path class="cls-13" d="M745,1467" transform="translate(2.04 10.2)"/></svg>