<svg width="296" height="137" viewBox="0 0 296 137" fill="none" xmlns="http://www.w3.org/2000/svg">
<g filter="url(#filter0_b)">
<path d="M78.896 36.032L79.395 36.0635L79.4296 35.5149L78.8802 35.5322L78.896 36.032ZM78.512 61.952V62.452H79.073L79.0087 61.8947L78.512 61.952ZM76.304 61.952L75.8192 62.0741L75.9143 62.452H76.304V61.952ZM68.144 43.808L67.7717 44.1418L67.7717 44.1418L68.144 43.808ZM57.296 38.24V37.74H56.796V38.24H57.296ZM58.064 99.008L57.6032 99.202L57.6074 99.2121L57.6121 99.222L58.064 99.008ZM61.04 101.504L60.8884 101.98L60.901 101.984L60.9138 101.988L61.04 101.504ZM67.952 102.08H68.452V101.58H67.952V102.08ZM67.952 104L67.9414 104.5L68.452 104.511V104H67.952ZM27.152 104H26.652V104.511L27.1631 104.5L27.152 104ZM27.152 102.08V101.58H26.652V102.08H27.152ZM33.968 101.504L34.0996 101.986L34.1066 101.984L34.1136 101.982L33.968 101.504ZM36.944 99.008L36.4921 98.794L36.4874 98.8039L36.4832 98.814L36.944 99.008ZM37.808 38.24H38.308V37.74H37.808V38.24ZM26.864 43.808L26.4917 43.4742L26.4914 43.4746L26.864 43.808ZM18.8 61.952V62.452H19.1904L19.2851 62.0733L18.8 61.952ZM16.592 61.952L16.0953 61.8947L16.031 62.452H16.592V61.952ZM16.208 36.032L16.2238 35.5322L15.6744 35.5149L15.709 36.0635L16.208 36.032ZM78.397 36.0005C77.9485 43.1123 77.724 49.4591 77.724 55.04H78.724C78.724 49.4849 78.9475 43.1597 79.395 36.0635L78.397 36.0005ZM77.724 55.04C77.724 57.9912 77.8201 60.3172 78.0153 62.0093L79.0087 61.8947C78.8199 60.2587 78.724 57.9768 78.724 55.04H77.724ZM78.512 61.452H76.304V62.452H78.512V61.452ZM76.7889 61.8299C74.6696 53.4172 71.9247 47.2759 68.5163 43.4742L67.7717 44.1418C71.0193 47.7641 73.7144 53.7188 75.8192 62.0741L76.7889 61.8299ZM68.5163 43.4742C65.1235 39.6899 61.4136 37.74 57.392 37.74V38.74C61.0504 38.74 64.5085 40.5021 67.7717 44.1418L68.5163 43.4742ZM57.392 37.74H57.296V38.74H57.392V37.74ZM56.796 38.24V93.152H57.796V38.24H56.796ZM56.796 93.152C56.796 95.8519 57.0503 97.8888 57.6032 99.202L58.5248 98.814C58.0537 97.6952 57.796 95.8281 57.796 93.152H56.796ZM57.6121 99.222C58.2537 100.576 59.3627 101.495 60.8884 101.98L61.1916 101.028C59.9013 100.617 59.0263 99.8716 58.5159 98.794L57.6121 99.222ZM60.9138 101.988C62.4509 102.389 64.8085 102.58 67.952 102.58V101.58C64.8235 101.58 62.5731 101.387 61.1662 101.02L60.9138 101.988ZM67.452 102.08V104H68.452V102.08H67.452ZM67.9626 103.5C58.9374 103.308 51.9253 103.212 46.928 103.212V104.212C51.9147 104.212 58.9186 104.308 67.9414 104.5L67.9626 103.5ZM46.928 103.212C42.3784 103.212 35.7819 103.308 27.1409 103.5L27.1631 104.5C35.8021 104.308 42.3896 104.212 46.928 104.212V103.212ZM27.652 104V102.08H26.652V104H27.652ZM27.152 102.58C30.2936 102.58 32.6228 102.389 34.0996 101.986L33.8364 101.022C32.4972 101.387 30.2824 101.58 27.152 101.58V102.58ZM34.1136 101.982C35.7014 101.499 36.8253 100.578 37.4048 99.202L36.4832 98.814C36.0387 99.8696 35.1786 100.613 33.8224 101.026L34.1136 101.982ZM37.3959 99.222C38.0218 97.9007 38.308 95.8546 38.308 93.152H37.308C37.308 95.8254 37.0182 97.6833 36.4921 98.794L37.3959 99.222ZM38.308 93.152V38.24H37.308V93.152H38.308ZM37.808 37.74H37.712V38.74H37.808V37.74ZM37.712 37.74C33.6287 37.74 29.8865 39.6877 26.4917 43.4742L27.2363 44.1418C30.4975 40.5043 33.9873 38.74 37.712 38.74V37.74ZM26.4914 43.4746C23.146 47.2136 20.4335 53.3565 18.3149 61.8307L19.2851 62.0733C21.3905 53.6515 24.054 47.6984 27.2366 44.1414L26.4914 43.4746ZM18.8 61.452H16.592V62.452H18.8V61.452ZM17.0887 62.0093C17.2839 60.3172 17.38 57.9912 17.38 55.04H16.38C16.38 57.9768 16.2841 60.2588 16.0953 61.8947L17.0887 62.0093ZM17.38 55.04C17.38 49.4591 17.1555 43.1123 16.707 36.0005L15.709 36.0635C16.1565 43.1597 16.38 49.4849 16.38 55.04H17.38ZM16.1922 36.5318C22.281 36.724 32.7521 36.82 47.6 36.82V35.82C32.7519 35.82 22.295 35.724 16.2238 35.5322L16.1922 36.5318ZM47.6 36.82C62.384 36.82 72.8231 36.724 78.9118 36.5318L78.8802 35.5322C72.809 35.724 62.384 35.82 47.6 35.82V36.82ZM104.261 31.04L103.952 31.4332L103.959 31.4383L104.261 31.04ZM104.261 43.328L103.959 42.9296L103.952 42.9348L104.261 43.328ZM88.805 43.328L89.1139 42.9348L89.1139 42.9348L88.805 43.328ZM88.805 31.04L89.1139 31.4332L89.1139 31.4332L88.805 31.04ZM106.949 100.544L106.549 100.844L106.56 100.858L106.571 100.871L106.949 100.544ZM111.173 101.984H111.673V101.484H111.173V101.984ZM111.173 104L111.154 104.5L111.673 104.519V104H111.173ZM83.141 104H82.641V104.518L83.1582 104.5L83.141 104ZM83.141 101.984V101.484H82.641V101.984H83.141ZM87.269 100.544L86.8809 100.229L86.8786 100.232L87.269 100.544ZM87.269 58.208L86.8349 58.4561L86.8392 58.4637L86.8439 58.4712L87.269 58.208ZM83.141 56.192H82.641V56.692H83.141V56.192ZM83.141 54.176L83.1877 53.6782L82.641 53.6269V54.176H83.141ZM105.797 53.12H106.297V52.5101L105.699 52.6297L105.797 53.12ZM96.581 29.428C99.8468 29.428 102.281 30.1199 103.952 31.4332L104.57 30.6468C102.657 29.1441 99.9712 28.428 96.581 28.428V29.428ZM103.959 31.4383C105.67 32.7364 106.545 34.6251 106.545 37.184H107.545C107.545 34.3669 106.564 32.1596 104.563 30.6416L103.959 31.4383ZM106.545 37.184C106.545 39.7429 105.67 41.6316 103.959 42.9297L104.563 43.7263C106.564 42.2084 107.545 40.0011 107.545 37.184H106.545ZM103.952 42.9348C102.281 44.2481 99.8468 44.94 96.581 44.94V45.94C99.9712 45.94 102.657 45.2239 104.57 43.7212L103.952 42.9348ZM96.581 44.94C93.2486 44.94 90.7839 44.247 89.1139 42.9348L88.4961 43.7212C90.4101 45.225 93.1294 45.94 96.581 45.94V44.94ZM89.1139 42.9348C87.4649 41.6392 86.617 39.7494 86.617 37.184H85.617C85.617 39.9946 86.5611 42.2008 88.4961 43.7212L89.1139 42.9348ZM86.617 37.184C86.617 34.6186 87.4649 32.7288 89.1139 31.4332L88.4961 30.6468C86.5611 32.1672 85.617 34.3734 85.617 37.184H86.617ZM89.1139 31.4332C90.7839 30.121 93.2486 29.428 96.581 29.428V28.428C93.1294 28.428 90.4101 29.143 88.4961 30.6468L89.1139 31.4332ZM105.297 95.072C105.297 97.7103 105.676 99.6804 106.549 100.844L107.349 100.244C106.686 99.3596 106.297 97.6817 106.297 95.072H105.297ZM106.571 100.871C107.541 101.99 109.125 102.484 111.173 102.484V101.484C109.253 101.484 108.021 101.018 107.327 100.217L106.571 100.871ZM110.673 101.984V104H111.673V101.984H110.673ZM111.192 103.5C104.281 103.244 99.7279 103.116 97.541 103.116V104.116C99.7061 104.116 104.241 104.244 111.154 104.5L111.192 103.5ZM97.541 103.116C95.3547 103.116 90.5455 103.244 83.1238 103.5L83.1582 104.5C90.5845 104.244 95.3753 104.116 97.541 104.116V103.116ZM83.641 104V101.984H82.641V104H83.641ZM83.141 102.484C85.1842 102.484 86.7508 101.992 87.6594 100.856L86.8786 100.232C86.2512 101.016 85.0658 101.484 83.141 101.484V102.484ZM87.6571 100.859C88.6049 99.6927 89.017 97.7147 89.017 95.072H88.017C88.017 97.6773 87.5971 99.3473 86.8809 100.229L87.6571 100.859ZM89.017 95.072V64.64H88.017V95.072H89.017ZM89.017 64.64C89.017 61.6711 88.6015 59.4106 87.6941 57.9448L86.8439 58.4712C87.6005 59.6934 88.017 61.7209 88.017 64.64H89.017ZM87.7031 57.9599C86.8205 56.4153 85.246 55.692 83.141 55.692V56.692C85.004 56.692 86.1815 57.3127 86.8349 58.4561L87.7031 57.9599ZM83.641 56.192V54.176H82.641V56.192H83.641ZM83.0943 54.6738C85.1568 54.8672 87.1564 54.964 89.093 54.964V53.964C87.1896 53.964 85.2212 53.8688 83.1877 53.6782L83.0943 54.6738ZM89.093 54.964C95.7684 54.964 101.372 54.5149 105.895 53.6103L105.699 52.6297C101.262 53.5171 95.7296 53.964 89.093 53.964V54.964ZM105.297 53.12V95.072H106.297V53.12H105.297ZM165.517 99.872L165.082 100.12L165.087 100.128L165.091 100.135L165.517 99.872ZM169.741 101.888H170.241V101.388H169.741V101.888ZM169.741 103.904L169.692 104.402L170.241 104.455V103.904H169.741ZM147.085 104.96H146.585V105.57L147.183 105.45L147.085 104.96ZM147.085 98.144H147.585L146.644 97.9069L147.085 98.144ZM142.285 103.616L142.021 103.191L142.014 103.195L142.285 103.616ZM121.165 98.816L120.776 99.1311L120.779 99.1339L121.165 98.816ZM121.453 59.456L121.075 59.1279L121.075 59.1283L121.453 59.456ZM147.085 55.232L146.82 55.656L147.585 56.1341V55.232H147.085ZM145.837 34.016L145.402 34.2641L145.407 34.2717L145.411 34.2792L145.837 34.016ZM141.709 32H141.209V32.5H141.709V32ZM141.709 29.984L141.757 29.4863L141.209 29.4333V29.984H141.709ZM164.365 28.928H164.865V28.3181L164.266 28.4377L164.365 28.928ZM144.973 98.432L145.317 98.7941L145.318 98.7937L144.973 98.432ZM147.085 57.248H147.585V56.9627L147.339 56.8175L147.085 57.248ZM135.853 61.76L135.386 61.581L135.384 61.5853L135.853 61.76ZM135.469 95.648L134.998 95.8174L134.999 95.8204L135.469 95.648ZM163.865 93.44C163.865 96.4055 164.247 98.6589 165.082 100.12L165.951 99.6239C165.25 98.3971 164.865 96.3625 164.865 93.44H163.865ZM165.091 100.135C166.038 101.665 167.634 102.388 169.741 102.388V101.388C167.879 101.388 166.659 100.767 165.942 99.6088L165.091 100.135ZM169.241 101.888V103.904H170.241V101.888H169.241ZM169.789 103.406C167.789 103.213 165.789 103.116 163.789 103.116V104.116C165.756 104.116 167.724 104.211 169.692 104.402L169.789 103.406ZM163.789 103.116C157.113 103.116 151.51 103.565 146.986 104.47L147.183 105.45C151.619 104.563 157.152 104.116 163.789 104.116V103.116ZM147.585 104.96V98.144H146.585V104.96H147.585ZM146.644 97.9069C145.33 100.348 143.784 102.097 142.021 103.191L142.548 104.041C144.497 102.831 146.151 100.932 147.525 98.381L146.644 97.9069ZM142.014 103.195C140.325 104.281 138.123 104.844 135.373 104.844V105.844C138.254 105.844 140.66 105.255 142.555 104.037L142.014 103.195ZM135.373 104.844C129.626 104.844 125.035 102.729 121.55 98.4981L120.779 99.1339C124.462 103.607 129.343 105.844 135.373 105.844V104.844ZM121.553 98.5009C118.072 94.2126 116.289 87.6594 116.289 78.752H115.289C115.289 87.7646 117.089 94.5874 120.776 99.1311L121.553 98.5009ZM116.289 78.752C116.289 70.3044 118.163 64.0099 121.83 59.7837L121.075 59.1283C117.19 63.6061 115.289 70.1756 115.289 78.752H116.289ZM121.83 59.7841C125.562 55.4918 130.633 53.332 137.101 53.332V52.332C130.384 52.332 125.023 54.5882 121.075 59.1279L121.83 59.7841ZM137.101 53.332C141.135 53.332 144.363 54.1204 146.82 55.656L147.35 54.808C144.686 53.1436 141.258 52.332 137.101 52.332V53.332ZM147.585 55.232V40.448H146.585V55.232H147.585ZM147.585 40.448C147.585 37.4791 147.169 35.2186 146.262 33.7528L145.411 34.2792C146.168 35.5014 146.585 37.5289 146.585 40.448H147.585ZM146.271 33.7679C145.388 32.2233 143.813 31.5 141.709 31.5V32.5C143.572 32.5 144.749 33.1207 145.402 34.2641L146.271 33.7679ZM142.209 32V29.984H141.209V32H142.209ZM141.66 30.4817C143.66 30.6752 145.66 30.772 147.661 30.772V29.772C145.693 29.772 143.725 29.6768 141.757 29.4863L141.66 30.4817ZM147.661 30.772C154.336 30.772 159.939 30.3229 164.463 29.4183L164.266 28.4377C159.83 29.3251 154.297 29.772 147.661 29.772V30.772ZM163.865 28.928V93.44H164.865V28.928H163.865ZM140.173 100.852C142.157 100.852 143.88 100.163 145.317 98.7941L144.628 98.0699C143.377 99.2614 141.9 99.852 140.173 99.852V100.852ZM145.318 98.7937C146.827 97.3533 147.585 95.5577 147.585 93.44H146.585C146.585 95.2903 145.934 96.8227 144.627 98.0703L145.318 98.7937ZM147.585 93.44V57.248H146.585V93.44H147.585ZM147.339 56.8175C145.856 55.9411 144.264 55.5 142.573 55.5V56.5C144.081 56.5 145.497 56.8909 146.83 57.6785L147.339 56.8175ZM142.573 55.5C140.952 55.5 139.524 56.021 138.311 57.0604C137.108 58.0916 136.14 59.6124 135.386 61.581L136.319 61.939C137.037 60.0676 137.925 58.7084 138.962 57.8196C139.989 56.939 141.185 56.5 142.573 56.5V55.5ZM135.384 61.5853C133.944 65.4476 133.241 71.2809 133.241 79.04H134.241C134.241 71.3111 134.945 65.6244 136.321 61.9347L135.384 61.5853ZM133.241 79.04C133.241 86.9138 133.814 92.5278 134.998 95.8174L135.939 95.4786C134.819 92.3682 134.241 86.9102 134.241 79.04H133.241ZM134.999 95.8204C136.168 99.0027 137.854 100.852 140.173 100.852V99.852C138.523 99.852 137.073 98.5653 135.938 95.4756L134.999 95.8204ZM221.329 58.976L220.929 59.276L220.929 59.276L221.329 58.976ZM219.792 98.816L220.157 99.1587L220.159 99.156L219.792 98.816ZM198.385 105.152L198.337 105.65L198.339 105.65L198.385 105.152ZM194.641 104.192L194.844 103.735L194.836 103.732L194.828 103.729L194.641 104.192ZM181.873 103.52L181.725 103.042L181.873 103.52ZM178.033 105.536L177.742 105.943L178.074 106.18L178.373 105.902L178.033 105.536ZM176.689 104.576L176.214 104.418L176.097 104.768L176.398 104.983L176.689 104.576ZM176.113 34.016L175.678 34.2641L175.683 34.2717L175.687 34.2792L176.113 34.016ZM171.985 32H171.485V32.5H171.985V32ZM171.985 29.984L172.033 29.4863L171.485 29.4333V29.984H171.985ZM194.641 28.928H195.141V28.3181L194.542 28.4377L194.641 28.928ZM194.641 60.032H194.141V61.8036L195.067 60.2934L194.641 60.032ZM206.257 62.624L205.786 62.7934L205.787 62.7964L206.257 62.624ZM196.656 59.84L197.001 60.2021L197.002 60.2017L196.656 59.84ZM194.641 102.272H194.141V102.575L194.409 102.715L194.641 102.272ZM209.233 53.332C214.062 53.332 217.948 55.3021 220.929 59.276L221.729 58.676C218.565 54.4579 214.387 52.332 209.233 52.332V53.332ZM220.929 59.276C223.909 63.25 225.437 69.1095 225.437 76.928H226.437C226.437 69.0025 224.892 62.894 221.729 58.676L220.929 59.276ZM225.437 76.928C225.437 87.0587 223.394 94.1983 219.426 98.476L220.159 99.156C224.383 94.6017 226.437 87.1493 226.437 76.928H225.437ZM219.428 98.4733C215.439 102.712 210.17 104.844 203.569 104.844V105.844C210.407 105.844 215.954 103.624 220.157 99.1587L219.428 98.4733ZM203.569 104.844C201.53 104.844 199.818 104.78 198.43 104.654L198.339 105.65C199.767 105.78 201.511 105.844 203.569 105.844V104.844ZM198.432 104.654C197.138 104.531 195.943 104.224 194.844 103.735L194.437 104.649C195.642 105.184 196.943 105.517 198.337 105.65L198.432 104.654ZM194.828 103.729C192.401 102.744 189.873 102.252 187.249 102.252V103.252C189.744 103.252 192.144 103.72 194.453 104.655L194.828 103.729ZM187.249 102.252C185.284 102.252 183.442 102.514 181.725 103.042L182.02 103.998C183.631 103.502 185.373 103.252 187.249 103.252V102.252ZM181.725 103.042C180.018 103.568 178.662 104.269 177.692 105.17L178.373 105.902C179.195 105.139 180.399 104.496 182.02 103.998L181.725 103.042ZM178.323 105.129L176.979 104.169L176.398 104.983L177.742 105.943L178.323 105.129ZM177.163 104.734C177.634 103.319 177.861 101.5 177.861 99.296H176.861C176.861 101.444 176.639 103.145 176.214 104.418L177.163 104.734ZM177.861 99.296V40.448H176.861V99.296H177.861ZM177.861 40.448C177.861 37.4791 177.445 35.2186 176.538 33.7528L175.687 34.2792C176.444 35.5014 176.861 37.5289 176.861 40.448H177.861ZM176.547 33.7679C175.664 32.2233 174.089 31.5 171.985 31.5V32.5C173.848 32.5 175.025 33.1207 175.678 34.2641L176.547 33.7679ZM172.485 32V29.984H171.485V32H172.485ZM171.936 30.4817C173.936 30.6752 175.936 30.772 177.937 30.772V29.772C175.969 29.772 174.001 29.6768 172.033 29.4863L171.936 30.4817ZM177.937 30.772C184.612 30.772 190.215 30.3229 194.739 29.4183L194.542 28.4377C190.106 29.3251 184.573 29.772 177.937 29.772V30.772ZM194.141 28.928V60.032H195.141V28.928H194.141ZM195.067 60.2934C197.9 55.6739 202.581 53.332 209.233 53.332V52.332C202.316 52.332 197.269 54.7901 194.214 59.7706L195.067 60.2934ZM199.153 103.924C200.752 103.924 202.16 103.369 203.354 102.275C204.538 101.19 205.494 99.5915 206.246 97.5229C207.749 93.3911 208.485 87.2483 208.485 79.136H207.485C207.485 87.2157 206.748 93.2169 205.307 97.1811C204.587 99.1605 203.703 100.598 202.679 101.537C201.665 102.467 200.497 102.924 199.153 102.924V103.924ZM208.485 79.136C208.485 71.2635 207.911 65.6792 206.726 62.4516L205.787 62.7964C206.906 65.8408 207.485 71.2645 207.485 79.136H208.485ZM206.727 62.4546C205.56 59.2139 203.876 57.324 201.553 57.324V58.324C203.197 58.324 204.649 59.6341 205.786 62.7934L206.727 62.4546ZM201.553 57.324C199.561 57.324 197.807 58.0503 196.311 59.4783L197.002 60.2017C198.322 58.9417 199.832 58.324 201.553 58.324V57.324ZM196.312 59.4779C194.861 60.8593 194.141 62.6257 194.141 64.736H195.141C195.141 62.8783 195.764 61.3807 197.001 60.2021L196.312 59.4779ZM194.141 64.736V102.272H195.141V64.736H194.141ZM194.409 102.715C195.947 103.517 197.53 103.924 199.153 103.924V102.924C197.703 102.924 196.278 102.563 194.872 101.829L194.409 102.715ZM252.105 31.04L251.796 31.4332L251.803 31.4383L252.105 31.04ZM252.105 43.328L251.803 42.9296L251.796 42.9348L252.105 43.328ZM236.649 43.328L236.958 42.9348L236.958 42.9348L236.649 43.328ZM236.649 31.04L236.958 31.4332L236.958 31.4332L236.649 31.04ZM254.793 100.544L254.393 100.844L254.403 100.858L254.415 100.871L254.793 100.544ZM259.017 101.984H259.517V101.484H259.017V101.984ZM259.017 104L258.998 104.5L259.517 104.519V104H259.017ZM230.985 104H230.485V104.518L231.002 104.5L230.985 104ZM230.985 101.984V101.484H230.485V101.984H230.985ZM235.113 100.544L234.725 100.229L234.722 100.232L235.113 100.544ZM235.113 58.208L234.679 58.4561L234.683 58.4637L234.688 58.4712L235.113 58.208ZM230.985 56.192H230.485V56.692H230.985V56.192ZM230.985 54.176L231.031 53.6782L230.485 53.6269V54.176H230.985ZM253.641 53.12H254.141V52.5101L253.543 52.6297L253.641 53.12ZM244.425 29.428C247.691 29.428 250.124 30.1199 251.796 31.4332L252.414 30.6468C250.501 29.1441 247.815 28.428 244.425 28.428V29.428ZM251.803 31.4383C253.514 32.7364 254.389 34.6251 254.389 37.184H255.389C255.389 34.3669 254.408 32.1596 252.407 30.6416L251.803 31.4383ZM254.389 37.184C254.389 39.7429 253.514 41.6316 251.803 42.9297L252.407 43.7263C254.408 42.2084 255.389 40.0011 255.389 37.184H254.389ZM251.796 42.9348C250.124 44.2481 247.691 44.94 244.425 44.94V45.94C247.815 45.94 250.501 45.2239 252.414 43.7212L251.796 42.9348ZM244.425 44.94C241.092 44.94 238.628 44.247 236.958 42.9348L236.34 43.7212C238.254 45.225 240.973 45.94 244.425 45.94V44.94ZM236.958 42.9348C235.309 41.6392 234.461 39.7494 234.461 37.184H233.461C233.461 39.9946 234.405 42.2008 236.34 43.7212L236.958 42.9348ZM234.461 37.184C234.461 34.6186 235.309 32.7288 236.958 31.4332L236.34 30.6468C234.405 32.1672 233.461 34.3734 233.461 37.184H234.461ZM236.958 31.4332C238.628 30.121 241.092 29.428 244.425 29.428V28.428C240.973 28.428 238.254 29.143 236.34 30.6468L236.958 31.4332ZM253.141 95.072C253.141 97.7103 253.52 99.6804 254.393 100.844L255.193 100.244C254.529 99.3596 254.141 97.6817 254.141 95.072H253.141ZM254.415 100.871C255.384 101.99 256.969 102.484 259.017 102.484V101.484C257.097 101.484 255.865 101.018 255.171 100.217L254.415 100.871ZM258.517 101.984V104H259.517V101.984H258.517ZM259.035 103.5C252.125 103.244 247.572 103.116 245.385 103.116V104.116C247.55 104.116 252.084 104.244 258.998 104.5L259.035 103.5ZM245.385 103.116C243.198 103.116 238.389 103.244 230.968 103.5L231.002 104.5C238.428 104.244 243.219 104.116 245.385 104.116V103.116ZM231.485 104V101.984H230.485V104H231.485ZM230.985 102.484C233.028 102.484 234.595 101.992 235.503 100.856L234.722 100.232C234.095 101.016 232.91 101.484 230.985 101.484V102.484ZM235.501 100.859C236.449 99.6927 236.861 97.7147 236.861 95.072H235.861C235.861 97.6773 235.441 99.3473 234.725 100.229L235.501 100.859ZM236.861 95.072V64.64H235.861V95.072H236.861ZM236.861 64.64C236.861 61.6711 236.445 59.4106 235.538 57.9448L234.688 58.4712C235.444 59.6934 235.861 61.7209 235.861 64.64H236.861ZM235.547 57.9599C234.664 56.4153 233.09 55.692 230.985 55.692V56.692C232.848 56.692 234.025 57.3127 234.679 58.4561L235.547 57.9599ZM231.485 56.192V54.176H230.485V56.192H231.485ZM230.938 54.6738C233.001 54.8672 235 54.964 236.937 54.964V53.964C235.033 53.964 233.065 53.8688 231.031 53.6782L230.938 54.6738ZM236.937 54.964C243.612 54.964 249.216 54.5149 253.739 53.6103L253.543 52.6297C249.106 53.5171 243.573 53.964 236.937 53.964V54.964ZM253.141 53.12V95.072H254.141V53.12H253.141ZM284.848 54.176H284.348V54.676H284.848V54.176ZM294.256 54.176H294.756V53.676H294.256V54.176ZM294.256 56.096V56.596H294.756V56.096H294.256ZM284.848 56.096V55.596H284.348V56.096H284.848ZM290.32 98.72L290.532 99.1731L290.532 99.1731L290.32 98.72ZM292.912 96.608L293.225 96.2176L292.834 95.9052L292.522 96.2957L292.912 96.608ZM294.352 97.76L294.784 98.0116L295.001 97.6389L294.665 97.3696L294.352 97.76ZM270.832 102.08L271.186 101.726L271.186 101.726L270.832 102.08ZM268.144 97.088L267.653 97.183L267.655 97.1906L267.657 97.1981L268.144 97.088ZM267.568 56.096H268.068V55.596H267.568V56.096ZM260.272 56.096H259.772V56.596H260.272V56.096ZM260.272 54.176V53.676H259.772V54.176H260.272ZM267.568 54.176V54.676H268.068V54.176H267.568ZM267.568 42.848V42.348H267.068V42.848H267.568ZM276.88 41.888L276.994 42.3751L277.002 42.3731L276.88 41.888ZM284.848 38.624H285.348V37.7486L284.594 38.1933L284.848 38.624ZM284.848 54.676H294.256V53.676H284.848V54.676ZM293.756 54.176V56.096H294.756V54.176H293.756ZM294.256 55.596H284.848V56.596H294.256V55.596ZM284.348 56.096V95.936H285.348V56.096H284.348ZM284.348 95.936C284.348 97.2434 284.571 98.2982 285.144 98.9533L285.897 98.2947C285.574 97.9258 285.348 97.1886 285.348 95.936H284.348ZM285.144 98.9533C285.726 99.6189 286.633 99.892 287.728 99.892V98.892C286.775 98.892 286.21 98.6531 285.897 98.2947L285.144 98.9533ZM287.728 99.892C288.592 99.892 289.529 99.641 290.532 99.1731L290.109 98.2669C289.191 98.695 288.401 98.892 287.728 98.892V99.892ZM290.532 99.1731C291.572 98.6877 292.494 97.9308 293.303 96.9203L292.522 96.2957C291.794 97.2052 290.989 97.8563 290.109 98.2669L290.532 99.1731ZM292.6 96.9984L294.04 98.1504L294.665 97.3696L293.225 96.2176L292.6 96.9984ZM293.92 97.5084C291.071 102.401 286.697 104.844 280.72 104.844V105.844C287.031 105.844 291.745 103.231 294.784 98.0116L293.92 97.5084ZM280.72 104.844C276.379 104.844 273.234 103.774 271.186 101.726L270.479 102.434C272.783 104.738 276.23 105.844 280.72 105.844V104.844ZM271.186 101.726C269.913 100.454 269.061 98.8764 268.632 96.9779L267.657 97.1981C268.124 99.2676 269.063 101.018 270.479 102.434L271.186 101.726ZM268.635 96.993C268.26 95.0554 268.068 92.3085 268.068 88.736H267.068C267.068 92.3315 267.26 95.1526 267.653 97.183L268.635 96.993ZM268.068 88.736V56.096H267.068V88.736H268.068ZM267.568 55.596H260.272V56.596H267.568V55.596ZM260.772 56.096V54.176H259.772V56.096H260.772ZM260.272 54.676H267.568V53.676H260.272V54.676ZM268.068 54.176V42.848H267.068V54.176H268.068ZM267.568 43.348C271.054 43.348 274.197 43.0253 276.994 42.375L276.767 41.401C274.059 42.0307 270.994 42.348 267.568 42.348V43.348ZM277.002 42.3731C279.864 41.6574 282.565 40.5511 285.102 39.0547L284.594 38.1933C282.14 39.6409 279.528 40.7106 276.759 41.4029L277.002 42.3731ZM284.348 38.624V54.176H285.348V38.624H284.348Z" fill="black"/>
</g>
<g filter="url(#filter1_b)">
<path d="M70.896 41.032L71.395 41.0635L71.4296 40.5149L70.8802 40.5322L70.896 41.032ZM70.512 66.952V67.452H71.073L71.0087 66.8947L70.512 66.952ZM68.304 66.952L67.8192 67.0741L67.9143 67.452H68.304V66.952ZM60.144 48.808L59.7717 49.1418L59.7717 49.1418L60.144 48.808ZM49.296 43.24V42.74H48.796V43.24H49.296ZM50.064 104.008L49.6032 104.202L49.6074 104.212L49.6121 104.222L50.064 104.008ZM53.04 106.504L52.8884 106.98L52.901 106.984L52.9138 106.988L53.04 106.504ZM59.952 107.08H60.452V106.58H59.952V107.08ZM59.952 109L59.9414 109.5L60.452 109.511V109H59.952ZM19.152 109H18.652V109.511L19.1631 109.5L19.152 109ZM19.152 107.08V106.58H18.652V107.08H19.152ZM25.968 106.504L26.0996 106.986L26.1066 106.984L26.1136 106.982L25.968 106.504ZM28.944 104.008L28.4921 103.794L28.4874 103.804L28.4832 103.814L28.944 104.008ZM29.808 43.24H30.308V42.74H29.808V43.24ZM18.864 48.808L18.4917 48.4742L18.4914 48.4746L18.864 48.808ZM10.8 66.952V67.452H11.1904L11.2851 67.0733L10.8 66.952ZM8.592 66.952L8.0953 66.8947L8.03099 67.452H8.592V66.952ZM8.208 41.032L8.22378 40.5322L7.6744 40.5149L7.70899 41.0635L8.208 41.032ZM70.397 41.0005C69.9485 48.1123 69.724 54.4591 69.724 60.04H70.724C70.724 54.4849 70.9475 48.1597 71.395 41.0635L70.397 41.0005ZM69.724 60.04C69.724 62.9912 69.8201 65.3172 70.0153 67.0093L71.0087 66.8947C70.8199 65.2587 70.724 62.9768 70.724 60.04H69.724ZM70.512 66.452H68.304V67.452H70.512V66.452ZM68.7889 66.8299C66.6696 58.4172 63.9247 52.2759 60.5163 48.4742L59.7717 49.1418C63.0193 52.7641 65.7144 58.7188 67.8192 67.0741L68.7889 66.8299ZM60.5163 48.4742C57.1235 44.6899 53.4136 42.74 49.392 42.74V43.74C53.0504 43.74 56.5085 45.5021 59.7717 49.1418L60.5163 48.4742ZM49.392 42.74H49.296V43.74H49.392V42.74ZM48.796 43.24V98.152H49.796V43.24H48.796ZM48.796 98.152C48.796 100.852 49.0503 102.889 49.6032 104.202L50.5248 103.814C50.0537 102.695 49.796 100.828 49.796 98.152H48.796ZM49.6121 104.222C50.2537 105.576 51.3627 106.495 52.8884 106.98L53.1916 106.028C51.9013 105.617 51.0263 104.872 50.5159 103.794L49.6121 104.222ZM52.9138 106.988C54.4509 107.389 56.8085 107.58 59.952 107.58V106.58C56.8235 106.58 54.5731 106.387 53.1662 106.02L52.9138 106.988ZM59.452 107.08V109H60.452V107.08H59.452ZM59.9626 108.5C50.9374 108.308 43.9253 108.212 38.928 108.212V109.212C43.9147 109.212 50.9186 109.308 59.9414 109.5L59.9626 108.5ZM38.928 108.212C34.3784 108.212 27.7819 108.308 19.1409 108.5L19.1631 109.5C27.8021 109.308 34.3896 109.212 38.928 109.212V108.212ZM19.652 109V107.08H18.652V109H19.652ZM19.152 107.58C22.2936 107.58 24.6228 107.389 26.0996 106.986L25.8364 106.022C24.4972 106.387 22.2824 106.58 19.152 106.58V107.58ZM26.1136 106.982C27.7014 106.499 28.8253 105.578 29.4048 104.202L28.4832 103.814C28.0387 104.87 27.1786 105.613 25.8224 106.026L26.1136 106.982ZM29.3959 104.222C30.0218 102.901 30.308 100.855 30.308 98.152H29.308C29.308 100.825 29.0182 102.683 28.4921 103.794L29.3959 104.222ZM30.308 98.152V43.24H29.308V98.152H30.308ZM29.808 42.74H29.712V43.74H29.808V42.74ZM29.712 42.74C25.6287 42.74 21.8865 44.6877 18.4917 48.4742L19.2363 49.1418C22.4975 45.5043 25.9873 43.74 29.712 43.74V42.74ZM18.4914 48.4746C15.146 52.2136 12.4335 58.3565 10.3149 66.8307L11.2851 67.0733C13.3905 58.6515 16.054 52.6984 19.2366 49.1414L18.4914 48.4746ZM10.8 66.452H8.592V67.452H10.8V66.452ZM9.0887 67.0093C9.28394 65.3172 9.38 62.9912 9.38 60.04H8.38C8.38 62.9768 8.28406 65.2588 8.0953 66.8947L9.0887 67.0093ZM9.38 60.04C9.38 54.4591 9.1555 48.1123 8.70701 41.0005L7.70899 41.0635C8.1565 48.1597 8.38 54.4849 8.38 60.04H9.38ZM8.19222 41.5318C14.281 41.724 24.7521 41.82 39.6 41.82V40.82C24.7519 40.82 14.295 40.724 8.22378 40.5322L8.19222 41.5318ZM39.6 41.82C54.384 41.82 64.8231 41.724 70.9118 41.5318L70.8802 40.5322C64.809 40.724 54.384 40.82 39.6 40.82V41.82ZM96.261 36.04L95.952 36.4332L95.9588 36.4383L96.261 36.04ZM96.261 48.328L95.9588 47.9296L95.9521 47.9348L96.261 48.328ZM80.805 48.328L81.1139 47.9348L81.1139 47.9348L80.805 48.328ZM80.805 36.04L81.1139 36.4332L81.1139 36.4332L80.805 36.04ZM98.949 105.544L98.549 105.844L98.5596 105.858L98.5712 105.871L98.949 105.544ZM103.173 106.984H103.673V106.484H103.173V106.984ZM103.173 109L103.154 109.5L103.673 109.519V109H103.173ZM75.141 109H74.641V109.518L75.1582 109.5L75.141 109ZM75.141 106.984V106.484H74.641V106.984H75.141ZM79.269 105.544L78.8809 105.229L78.8786 105.232L79.269 105.544ZM79.269 63.208L78.8349 63.4561L78.8392 63.4637L78.8439 63.4712L79.269 63.208ZM75.141 61.192H74.641V61.692H75.141V61.192ZM75.141 59.176L75.1877 58.6782L74.641 58.6269V59.176H75.141ZM97.797 58.12H98.297V57.5101L97.6989 57.6297L97.797 58.12ZM88.581 34.428C91.8468 34.428 94.2807 35.1199 95.9521 36.4332L96.5699 35.6468C94.6573 34.1441 91.9712 33.428 88.581 33.428V34.428ZM95.9588 36.4383C97.6699 37.7364 98.545 39.6251 98.545 42.184H99.545C99.545 39.3669 98.5641 37.1596 96.5632 35.6416L95.9588 36.4383ZM98.545 42.184C98.545 44.7429 97.6699 46.6316 95.9588 47.9297L96.5632 48.7263C98.5641 47.2084 99.545 45.0011 99.545 42.184H98.545ZM95.9521 47.9348C94.2807 49.2481 91.8468 49.94 88.581 49.94V50.94C91.9712 50.94 94.6573 50.2239 96.5699 48.7212L95.9521 47.9348ZM88.581 49.94C85.2486 49.94 82.7839 49.247 81.1139 47.9348L80.4961 48.7212C82.4101 50.225 85.1294 50.94 88.581 50.94V49.94ZM81.1139 47.9348C79.4649 46.6392 78.617 44.7494 78.617 42.184H77.617C77.617 44.9946 78.5611 47.2008 80.4961 48.7212L81.1139 47.9348ZM78.617 42.184C78.617 39.6186 79.4649 37.7288 81.1139 36.4332L80.4961 35.6468C78.5611 37.1672 77.617 39.3734 77.617 42.184H78.617ZM81.1139 36.4332C82.7839 35.121 85.2486 34.428 88.581 34.428V33.428C85.1294 33.428 82.4101 34.143 80.4961 35.6468L81.1139 36.4332ZM97.297 100.072C97.297 102.71 97.6763 104.68 98.549 105.844L99.349 105.244C98.6857 104.36 98.297 102.682 98.297 100.072H97.297ZM98.5712 105.871C99.5407 106.99 101.125 107.484 103.173 107.484V106.484C101.253 106.484 100.021 106.018 99.3268 105.217L98.5712 105.871ZM102.673 106.984V109H103.673V106.984H102.673ZM103.192 108.5C96.2814 108.244 91.7279 108.116 89.541 108.116V109.116C91.7061 109.116 96.2406 109.244 103.154 109.5L103.192 108.5ZM89.541 108.116C87.3547 108.116 82.5455 108.244 75.1238 108.5L75.1582 109.5C82.5845 109.244 87.3753 109.116 89.541 109.116V108.116ZM75.641 109V106.984H74.641V109H75.641ZM75.141 107.484C77.1842 107.484 78.7508 106.992 79.6594 105.856L78.8786 105.232C78.2512 106.016 77.0658 106.484 75.141 106.484V107.484ZM79.6571 105.859C80.6049 104.693 81.017 102.715 81.017 100.072H80.017C80.017 102.677 79.5971 104.347 78.8809 105.229L79.6571 105.859ZM81.017 100.072V69.64H80.017V100.072H81.017ZM81.017 69.64C81.017 66.6711 80.6015 64.4106 79.6941 62.9448L78.8439 63.4712C79.6005 64.6934 80.017 66.7209 80.017 69.64H81.017ZM79.7031 62.9599C78.8205 61.4153 77.246 60.692 75.141 60.692V61.692C77.004 61.692 78.1815 62.3127 78.8349 63.4561L79.7031 62.9599ZM75.641 61.192V59.176H74.641V61.192H75.641ZM75.0943 59.6738C77.1568 59.8672 79.1564 59.964 81.093 59.964V58.964C79.1896 58.964 77.2212 58.8688 75.1877 58.6782L75.0943 59.6738ZM81.093 59.964C87.7684 59.964 93.3718 59.5149 97.8951 58.6103L97.6989 57.6297C93.2622 58.5171 87.7296 58.964 81.093 58.964V59.964ZM97.297 58.12V100.072H98.297V58.12H97.297ZM157.517 104.872L157.082 105.12L157.087 105.128L157.091 105.135L157.517 104.872ZM161.741 106.888H162.241V106.388H161.741V106.888ZM161.741 108.904L161.692 109.402L162.241 109.455V108.904H161.741ZM139.085 109.96H138.585V110.57L139.183 110.45L139.085 109.96ZM139.085 103.144H139.585L138.644 102.907L139.085 103.144ZM134.285 108.616L134.021 108.191L134.014 108.195L134.285 108.616ZM113.165 103.816L112.776 104.131L112.779 104.134L113.165 103.816ZM113.453 64.456L113.075 64.1279L113.075 64.1283L113.453 64.456ZM139.085 60.232L138.82 60.656L139.585 61.1341V60.232H139.085ZM137.837 39.016L137.402 39.2641L137.407 39.2717L137.411 39.2792L137.837 39.016ZM133.709 37H133.209V37.5H133.709V37ZM133.709 34.984L133.757 34.4863L133.209 34.4333V34.984H133.709ZM156.365 33.928H156.865V33.3181L156.266 33.4377L156.365 33.928ZM136.973 103.432L137.317 103.794L137.318 103.794L136.973 103.432ZM139.085 62.248H139.585V61.9627L139.339 61.8175L139.085 62.248ZM127.853 66.76L127.386 66.581L127.384 66.5853L127.853 66.76ZM127.469 100.648L126.998 100.817L126.999 100.82L127.469 100.648ZM155.865 98.44C155.865 101.405 156.247 103.659 157.082 105.12L157.951 104.624C157.25 103.397 156.865 101.363 156.865 98.44H155.865ZM157.091 105.135C158.038 106.665 159.634 107.388 161.741 107.388V106.388C159.879 106.388 158.659 105.767 157.942 104.609L157.091 105.135ZM161.241 106.888V108.904H162.241V106.888H161.241ZM161.789 108.406C159.789 108.213 157.789 108.116 155.789 108.116V109.116C157.756 109.116 159.724 109.211 161.692 109.402L161.789 108.406ZM155.789 108.116C149.113 108.116 143.51 108.565 138.986 109.47L139.183 110.45C143.619 109.563 149.152 109.116 155.789 109.116V108.116ZM139.585 109.96V103.144H138.585V109.96H139.585ZM138.644 102.907C137.33 105.348 135.784 107.097 134.021 108.191L134.548 109.041C136.497 107.831 138.151 105.932 139.525 103.381L138.644 102.907ZM134.014 108.195C132.325 109.281 130.123 109.844 127.373 109.844V110.844C130.254 110.844 132.66 110.255 134.555 109.037L134.014 108.195ZM127.373 109.844C121.626 109.844 117.035 107.729 113.55 103.498L112.779 104.134C116.462 108.607 121.343 110.844 127.373 110.844V109.844ZM113.553 103.501C110.072 99.2126 108.289 92.6594 108.289 83.752H107.289C107.289 92.7646 109.089 99.5874 112.776 104.131L113.553 103.501ZM108.289 83.752C108.289 75.3044 110.163 69.0099 113.83 64.7837L113.075 64.1283C109.19 68.6061 107.289 75.1756 107.289 83.752H108.289ZM113.83 64.7841C117.562 60.4918 122.633 58.332 129.101 58.332V57.332C122.384 57.332 117.023 59.5882 113.075 64.1279L113.83 64.7841ZM129.101 58.332C133.135 58.332 136.363 59.1204 138.82 60.656L139.35 59.808C136.686 58.1436 133.258 57.332 129.101 57.332V58.332ZM139.585 60.232V45.448H138.585V60.232H139.585ZM139.585 45.448C139.585 42.4791 139.169 40.2186 138.262 38.7528L137.411 39.2792C138.168 40.5014 138.585 42.5289 138.585 45.448H139.585ZM138.271 38.7679C137.388 37.2233 135.813 36.5 133.709 36.5V37.5C135.572 37.5 136.749 38.1207 137.402 39.2641L138.271 38.7679ZM134.209 37V34.984H133.209V37H134.209ZM133.66 35.4817C135.66 35.6752 137.66 35.772 139.661 35.772V34.772C137.693 34.772 135.725 34.6768 133.757 34.4863L133.66 35.4817ZM139.661 35.772C146.336 35.772 151.939 35.3229 156.463 34.4183L156.266 33.4377C151.83 34.3251 146.297 34.772 139.661 34.772V35.772ZM155.865 33.928V98.44H156.865V33.928H155.865ZM132.173 105.852C134.157 105.852 135.88 105.163 137.317 103.794L136.628 103.07C135.377 104.261 133.9 104.852 132.173 104.852V105.852ZM137.318 103.794C138.827 102.353 139.585 100.558 139.585 98.44H138.585C138.585 100.29 137.934 101.823 136.627 103.07L137.318 103.794ZM139.585 98.44V62.248H138.585V98.44H139.585ZM139.339 61.8175C137.856 60.9411 136.264 60.5 134.573 60.5V61.5C136.081 61.5 137.497 61.8909 138.83 62.6785L139.339 61.8175ZM134.573 60.5C132.952 60.5 131.524 61.021 130.311 62.0604C129.108 63.0916 128.14 64.6124 127.386 66.581L128.319 66.939C129.037 65.0676 129.925 63.7084 130.962 62.8196C131.989 61.939 133.185 61.5 134.573 61.5V60.5ZM127.384 66.5853C125.944 70.4476 125.241 76.2809 125.241 84.04H126.241C126.241 76.3111 126.945 70.6244 128.321 66.9347L127.384 66.5853ZM125.241 84.04C125.241 91.9138 125.814 97.5278 126.998 100.817L127.939 100.479C126.819 97.3682 126.241 91.9102 126.241 84.04H125.241ZM126.999 100.82C128.168 104.003 129.854 105.852 132.173 105.852V104.852C130.523 104.852 129.073 103.565 127.938 100.476L126.999 100.82ZM213.329 63.976L212.929 64.276L212.929 64.276L213.329 63.976ZM211.792 103.816L212.157 104.159L212.159 104.156L211.792 103.816ZM190.385 110.152L190.337 110.65L190.339 110.65L190.385 110.152ZM186.641 109.192L186.844 108.735L186.836 108.732L186.828 108.729L186.641 109.192ZM173.873 108.52L173.725 108.042L173.873 108.52ZM170.033 110.536L169.742 110.943L170.074 111.18L170.373 110.902L170.033 110.536ZM168.689 109.576L168.214 109.418L168.097 109.768L168.398 109.983L168.689 109.576ZM168.113 39.016L167.678 39.2641L167.683 39.2717L167.687 39.2792L168.113 39.016ZM163.985 37H163.485V37.5H163.985V37ZM163.985 34.984L164.033 34.4863L163.485 34.4333V34.984H163.985ZM186.641 33.928H187.141V33.3181L186.542 33.4377L186.641 33.928ZM186.641 65.032H186.141V66.8036L187.067 65.2934L186.641 65.032ZM198.257 67.624L197.786 67.7934L197.787 67.7964L198.257 67.624ZM188.656 64.84L189.001 65.2021L189.002 65.2017L188.656 64.84ZM186.641 107.272H186.141V107.575L186.409 107.715L186.641 107.272ZM201.233 58.332C206.062 58.332 209.948 60.3021 212.929 64.276L213.729 63.676C210.565 59.4579 206.387 57.332 201.233 57.332V58.332ZM212.929 64.276C215.909 68.25 217.437 74.1095 217.437 81.928H218.437C218.437 74.0025 216.892 67.894 213.729 63.676L212.929 64.276ZM217.437 81.928C217.437 92.0587 215.394 99.1983 211.426 103.476L212.159 104.156C216.383 99.6017 218.437 92.1493 218.437 81.928H217.437ZM211.428 103.473C207.439 107.712 202.17 109.844 195.569 109.844V110.844C202.407 110.844 207.954 108.624 212.157 104.159L211.428 103.473ZM195.569 109.844C193.53 109.844 191.818 109.78 190.43 109.654L190.339 110.65C191.767 110.78 193.511 110.844 195.569 110.844V109.844ZM190.432 109.654C189.138 109.531 187.943 109.224 186.844 108.735L186.437 109.649C187.642 110.184 188.943 110.517 190.337 110.65L190.432 109.654ZM186.828 108.729C184.401 107.744 181.873 107.252 179.249 107.252V108.252C181.744 108.252 184.144 108.72 186.453 109.655L186.828 108.729ZM179.249 107.252C177.284 107.252 175.442 107.514 173.725 108.042L174.02 108.998C175.631 108.502 177.373 108.252 179.249 108.252V107.252ZM173.725 108.042C172.018 108.568 170.662 109.269 169.692 110.17L170.373 110.902C171.195 110.139 172.399 109.496 174.02 108.998L173.725 108.042ZM170.323 110.129L168.979 109.169L168.398 109.983L169.742 110.943L170.323 110.129ZM169.163 109.734C169.634 108.319 169.861 106.5 169.861 104.296H168.861C168.861 106.444 168.639 108.145 168.214 109.418L169.163 109.734ZM169.861 104.296V45.448H168.861V104.296H169.861ZM169.861 45.448C169.861 42.4791 169.445 40.2186 168.538 38.7528L167.687 39.2792C168.444 40.5014 168.861 42.5289 168.861 45.448H169.861ZM168.547 38.7679C167.664 37.2233 166.089 36.5 163.985 36.5V37.5C165.848 37.5 167.025 38.1207 167.678 39.2641L168.547 38.7679ZM164.485 37V34.984H163.485V37H164.485ZM163.936 35.4817C165.936 35.6752 167.936 35.772 169.937 35.772V34.772C167.969 34.772 166.001 34.6768 164.033 34.4863L163.936 35.4817ZM169.937 35.772C176.612 35.772 182.215 35.3229 186.739 34.4183L186.542 33.4377C182.106 34.3251 176.573 34.772 169.937 34.772V35.772ZM186.141 33.928V65.032H187.141V33.928H186.141ZM187.067 65.2934C189.9 60.6739 194.581 58.332 201.233 58.332V57.332C194.316 57.332 189.269 59.7901 186.214 64.7706L187.067 65.2934ZM191.153 108.924C192.752 108.924 194.16 108.369 195.354 107.275C196.538 106.19 197.494 104.592 198.246 102.523C199.749 98.3911 200.485 92.2483 200.485 84.136H199.485C199.485 92.2157 198.748 98.2169 197.307 102.181C196.587 104.16 195.703 105.598 194.679 106.537C193.665 107.467 192.497 107.924 191.153 107.924V108.924ZM200.485 84.136C200.485 76.2635 199.911 70.6792 198.726 67.4516L197.787 67.7964C198.906 70.8408 199.485 76.2645 199.485 84.136H200.485ZM198.727 67.4546C197.56 64.2139 195.876 62.324 193.553 62.324V63.324C195.197 63.324 196.649 64.6341 197.786 67.7934L198.727 67.4546ZM193.553 62.324C191.561 62.324 189.807 63.0503 188.311 64.4783L189.002 65.2017C190.322 63.9417 191.832 63.324 193.553 63.324V62.324ZM188.312 64.4779C186.861 65.8593 186.141 67.6257 186.141 69.736H187.141C187.141 67.8783 187.764 66.3807 189.001 65.2021L188.312 64.4779ZM186.141 69.736V107.272H187.141V69.736H186.141ZM186.409 107.715C187.947 108.517 189.53 108.924 191.153 108.924V107.924C189.703 107.924 188.278 107.563 186.872 106.829L186.409 107.715ZM244.105 36.04L243.796 36.4332L243.803 36.4383L244.105 36.04ZM244.105 48.328L243.803 47.9296L243.796 47.9348L244.105 48.328ZM228.649 48.328L228.958 47.9348L228.958 47.9348L228.649 48.328ZM228.649 36.04L228.958 36.4332L228.958 36.4332L228.649 36.04ZM246.793 105.544L246.393 105.844L246.403 105.858L246.415 105.871L246.793 105.544ZM251.017 106.984H251.517V106.484H251.017V106.984ZM251.017 109L250.998 109.5L251.517 109.519V109H251.017ZM222.985 109H222.485V109.518L223.002 109.5L222.985 109ZM222.985 106.984V106.484H222.485V106.984H222.985ZM227.113 105.544L226.725 105.229L226.722 105.232L227.113 105.544ZM227.113 63.208L226.679 63.4561L226.683 63.4637L226.688 63.4712L227.113 63.208ZM222.985 61.192H222.485V61.692H222.985V61.192ZM222.985 59.176L223.031 58.6782L222.485 58.6269V59.176H222.985ZM245.641 58.12H246.141V57.5101L245.543 57.6297L245.641 58.12ZM236.425 34.428C239.691 34.428 242.124 35.1199 243.796 36.4332L244.414 35.6468C242.501 34.1441 239.815 33.428 236.425 33.428V34.428ZM243.803 36.4383C245.514 37.7364 246.389 39.6251 246.389 42.184H247.389C247.389 39.3669 246.408 37.1596 244.407 35.6416L243.803 36.4383ZM246.389 42.184C246.389 44.7429 245.514 46.6316 243.803 47.9297L244.407 48.7263C246.408 47.2084 247.389 45.0011 247.389 42.184H246.389ZM243.796 47.9348C242.124 49.2481 239.691 49.94 236.425 49.94V50.94C239.815 50.94 242.501 50.2239 244.414 48.7212L243.796 47.9348ZM236.425 49.94C233.092 49.94 230.628 49.247 228.958 47.9348L228.34 48.7212C230.254 50.225 232.973 50.94 236.425 50.94V49.94ZM228.958 47.9348C227.309 46.6392 226.461 44.7494 226.461 42.184H225.461C225.461 44.9946 226.405 47.2008 228.34 48.7212L228.958 47.9348ZM226.461 42.184C226.461 39.6186 227.309 37.7288 228.958 36.4332L228.34 35.6468C226.405 37.1672 225.461 39.3734 225.461 42.184H226.461ZM228.958 36.4332C230.628 35.121 233.092 34.428 236.425 34.428V33.428C232.973 33.428 230.254 34.143 228.34 35.6468L228.958 36.4332ZM245.141 100.072C245.141 102.71 245.52 104.68 246.393 105.844L247.193 105.244C246.529 104.36 246.141 102.682 246.141 100.072H245.141ZM246.415 105.871C247.384 106.99 248.969 107.484 251.017 107.484V106.484C249.097 106.484 247.865 106.018 247.171 105.217L246.415 105.871ZM250.517 106.984V109H251.517V106.984H250.517ZM251.035 108.5C244.125 108.244 239.572 108.116 237.385 108.116V109.116C239.55 109.116 244.084 109.244 250.998 109.5L251.035 108.5ZM237.385 108.116C235.198 108.116 230.389 108.244 222.968 108.5L223.002 109.5C230.428 109.244 235.219 109.116 237.385 109.116V108.116ZM223.485 109V106.984H222.485V109H223.485ZM222.985 107.484C225.028 107.484 226.595 106.992 227.503 105.856L226.722 105.232C226.095 106.016 224.91 106.484 222.985 106.484V107.484ZM227.501 105.859C228.449 104.693 228.861 102.715 228.861 100.072H227.861C227.861 102.677 227.441 104.347 226.725 105.229L227.501 105.859ZM228.861 100.072V69.64H227.861V100.072H228.861ZM228.861 69.64C228.861 66.6711 228.445 64.4106 227.538 62.9448L226.688 63.4712C227.444 64.6934 227.861 66.7209 227.861 69.64H228.861ZM227.547 62.9599C226.664 61.4153 225.09 60.692 222.985 60.692V61.692C224.848 61.692 226.025 62.3127 226.679 63.4561L227.547 62.9599ZM223.485 61.192V59.176H222.485V61.192H223.485ZM222.938 59.6738C225.001 59.8672 227 59.964 228.937 59.964V58.964C227.033 58.964 225.065 58.8688 223.031 58.6782L222.938 59.6738ZM228.937 59.964C235.612 59.964 241.216 59.5149 245.739 58.6103L245.543 57.6297C241.106 58.5171 235.573 58.964 228.937 58.964V59.964ZM245.141 58.12V100.072H246.141V58.12H245.141ZM276.848 59.176H276.348V59.676H276.848V59.176ZM286.256 59.176H286.756V58.676H286.256V59.176ZM286.256 61.096V61.596H286.756V61.096H286.256ZM276.848 61.096V60.596H276.348V61.096H276.848ZM282.32 103.72L282.532 104.173L282.532 104.173L282.32 103.72ZM284.912 101.608L285.225 101.218L284.834 100.905L284.522 101.296L284.912 101.608ZM286.352 102.76L286.784 103.012L287.001 102.639L286.665 102.37L286.352 102.76ZM262.832 107.08L263.186 106.726L263.186 106.726L262.832 107.08ZM260.144 102.088L259.653 102.183L259.655 102.191L259.657 102.198L260.144 102.088ZM259.568 61.096H260.068V60.596H259.568V61.096ZM252.272 61.096H251.772V61.596H252.272V61.096ZM252.272 59.176V58.676H251.772V59.176H252.272ZM259.568 59.176V59.676H260.068V59.176H259.568ZM259.568 47.848V47.348H259.068V47.848H259.568ZM268.88 46.888L268.994 47.3751L269.002 47.3731L268.88 46.888ZM276.848 43.624H277.348V42.7486L276.594 43.1933L276.848 43.624ZM276.848 59.676H286.256V58.676H276.848V59.676ZM285.756 59.176V61.096H286.756V59.176H285.756ZM286.256 60.596H276.848V61.596H286.256V60.596ZM276.348 61.096V100.936H277.348V61.096H276.348ZM276.348 100.936C276.348 102.243 276.571 103.298 277.144 103.953L277.897 103.295C277.574 102.926 277.348 102.189 277.348 100.936H276.348ZM277.144 103.953C277.726 104.619 278.633 104.892 279.728 104.892V103.892C278.775 103.892 278.21 103.653 277.897 103.295L277.144 103.953ZM279.728 104.892C280.592 104.892 281.529 104.641 282.532 104.173L282.109 103.267C281.191 103.695 280.401 103.892 279.728 103.892V104.892ZM282.532 104.173C283.572 103.688 284.494 102.931 285.303 101.92L284.522 101.296C283.794 102.205 282.989 102.856 282.109 103.267L282.532 104.173ZM284.6 101.998L286.04 103.15L286.665 102.37L285.225 101.218L284.6 101.998ZM285.92 102.508C283.071 107.401 278.697 109.844 272.72 109.844V110.844C279.031 110.844 283.745 108.231 286.784 103.012L285.92 102.508ZM272.72 109.844C268.379 109.844 265.234 108.774 263.186 106.726L262.479 107.434C264.783 109.738 268.23 110.844 272.72 110.844V109.844ZM263.186 106.726C261.913 105.454 261.061 103.876 260.632 101.978L259.657 102.198C260.124 104.268 261.063 106.018 262.479 107.434L263.186 106.726ZM260.635 101.993C260.26 100.055 260.068 97.3085 260.068 93.736H259.068C259.068 97.3315 259.26 100.153 259.653 102.183L260.635 101.993ZM260.068 93.736V61.096H259.068V93.736H260.068ZM259.568 60.596H252.272V61.596H259.568V60.596ZM252.772 61.096V59.176H251.772V61.096H252.772ZM252.272 59.676H259.568V58.676H252.272V59.676ZM260.068 59.176V47.848H259.068V59.176H260.068ZM259.568 48.348C263.054 48.348 266.197 48.0253 268.994 47.375L268.767 46.401C266.059 47.0307 262.994 47.348 259.568 47.348V48.348ZM269.002 47.3731C271.864 46.6574 274.565 45.5511 277.102 44.0547L276.594 43.1933C274.14 44.6409 271.528 45.7106 268.759 46.4029L269.002 47.3731ZM276.348 43.624V59.176H277.348V43.624H276.348Z" fill="black"/>
</g>
<g filter="url(#filter2_b)">
<path d="M64.896 45.032C64.448 52.136 64.224 58.472 64.224 64.04C64.224 66.984 64.32 69.288 64.512 70.952H62.304C60.192 62.568 57.472 56.52 54.144 52.808C50.816 49.096 47.232 47.24 43.392 47.24H43.296V102.152C43.296 104.84 43.552 106.792 44.064 108.008C44.64 109.224 45.632 110.056 47.04 110.504C48.512 110.888 50.816 111.08 53.952 111.08V113C44.928 112.808 37.92 112.712 32.928 112.712C28.384 112.712 21.792 112.808 13.152 113V111.08C16.288 111.08 18.56 110.888 19.968 110.504C21.44 110.056 22.432 109.224 22.944 108.008C23.52 106.792 23.808 104.84 23.808 102.152V47.24H23.712C19.808 47.24 16.192 49.096 12.864 52.808C9.6 56.456 6.912 62.504 4.8 70.952H2.592C2.784 69.288 2.88 66.984 2.88 64.04C2.88 58.472 2.656 52.136 2.208 45.032C8.288 45.224 18.752 45.32 33.6 45.32C48.384 45.32 58.816 45.224 64.896 45.032ZM82.581 37.928C85.909 37.928 88.469 38.632 90.261 40.04C92.117 41.448 93.045 43.496 93.045 46.184C93.045 48.872 92.117 50.92 90.261 52.328C88.469 53.736 85.909 54.44 82.581 54.44C79.189 54.44 76.597 53.736 74.805 52.328C73.013 50.92 72.117 48.872 72.117 46.184C72.117 43.496 73.013 41.448 74.805 40.04C76.597 38.632 79.189 37.928 82.581 37.928ZM91.797 104.072C91.797 106.696 92.181 108.52 92.949 109.544C93.781 110.504 95.189 110.984 97.173 110.984V113C90.261 112.744 85.717 112.616 83.541 112.616C81.365 112.616 76.565 112.744 69.141 113V110.984C71.125 110.984 72.501 110.504 73.269 109.544C74.101 108.52 74.517 106.696 74.517 104.072V73.64C74.517 70.696 74.101 68.552 73.269 67.208C72.501 65.864 71.125 65.192 69.141 65.192V63.176C71.189 63.368 73.173 63.464 75.093 63.464C81.749 63.464 87.317 63.016 91.797 62.12V104.072ZM150.365 102.44C150.365 105.384 150.749 107.528 151.517 108.872C152.349 110.216 153.757 110.888 155.741 110.888V112.904C153.757 112.712 151.773 112.616 149.789 112.616C143.133 112.616 137.565 113.064 133.085 113.96V107.144C131.741 109.64 130.141 111.464 128.285 112.616C126.493 113.768 124.189 114.344 121.373 114.344C115.485 114.344 110.749 112.168 107.165 107.816C103.581 103.4 101.789 96.712 101.789 87.752C101.789 79.24 103.677 72.808 107.453 68.456C111.293 64.04 116.509 61.832 123.101 61.832C127.197 61.832 130.525 62.632 133.085 64.232V49.448C133.085 46.504 132.669 44.36 131.837 43.016C131.069 41.672 129.693 41 127.709 41V38.984C129.693 39.176 131.677 39.272 133.661 39.272C140.317 39.272 145.885 38.824 150.365 37.928V102.44ZM126.173 109.352C128.029 109.352 129.629 108.712 130.973 107.432C132.381 106.088 133.085 104.424 133.085 102.44V66.248C131.677 65.416 130.173 65 128.573 65C125.565 65 123.325 66.92 121.853 70.76C120.445 74.536 119.741 80.296 119.741 88.04C119.741 95.912 120.317 101.448 121.469 104.648C122.621 107.784 124.189 109.352 126.173 109.352ZM195.233 61.832C200.225 61.832 204.257 63.88 207.329 67.976C210.401 72.072 211.937 78.056 211.937 85.928C211.937 96.104 209.889 103.4 205.792 107.816C201.697 112.168 196.289 114.344 189.569 114.344C187.521 114.344 185.793 114.28 184.385 114.152C183.041 114.024 181.793 113.704 180.641 113.192C178.273 112.232 175.809 111.752 173.249 111.752C171.329 111.752 169.537 112.008 167.873 112.52C166.209 113.032 164.929 113.704 164.033 114.536L162.689 113.576C163.137 112.232 163.361 110.472 163.361 108.296V49.448C163.361 46.504 162.945 44.36 162.113 43.016C161.345 41.672 159.969 41 157.985 41V38.984C159.969 39.176 161.953 39.272 163.937 39.272C170.593 39.272 176.161 38.824 180.641 37.928V69.032C183.585 64.232 188.449 61.832 195.233 61.832ZM185.153 112.424C191.041 112.424 193.985 104.328 193.985 88.136C193.985 80.264 193.409 74.76 192.257 71.624C191.105 68.424 189.537 66.824 187.553 66.824C185.697 66.824 184.065 67.496 182.656 68.84C181.313 70.12 180.641 71.752 180.641 73.736V111.272C182.113 112.04 183.617 112.424 185.153 112.424ZM230.425 37.928C233.753 37.928 236.313 38.632 238.105 40.04C239.961 41.448 240.889 43.496 240.889 46.184C240.889 48.872 239.961 50.92 238.105 52.328C236.313 53.736 233.753 54.44 230.425 54.44C227.033 54.44 224.441 53.736 222.649 52.328C220.857 50.92 219.961 48.872 219.961 46.184C219.961 43.496 220.857 41.448 222.649 40.04C224.441 38.632 227.033 37.928 230.425 37.928ZM239.641 104.072C239.641 106.696 240.025 108.52 240.793 109.544C241.625 110.504 243.033 110.984 245.017 110.984V113C238.105 112.744 233.561 112.616 231.385 112.616C229.209 112.616 224.409 112.744 216.985 113V110.984C218.969 110.984 220.345 110.504 221.113 109.544C221.945 108.52 222.361 106.696 222.361 104.072V73.64C222.361 70.696 221.945 68.552 221.113 67.208C220.345 65.864 218.969 65.192 216.985 65.192V63.176C219.033 63.368 221.017 63.464 222.937 63.464C229.593 63.464 235.161 63.016 239.641 62.12V104.072ZM270.848 63.176H280.256V65.096H270.848V104.936C270.848 106.216 271.072 107.112 271.52 107.624C271.968 108.136 272.704 108.392 273.728 108.392C274.496 108.392 275.36 108.168 276.32 107.72C277.28 107.272 278.144 106.568 278.912 105.608L280.352 106.76C277.408 111.816 272.864 114.344 266.72 114.344C262.304 114.344 259.008 113.256 256.832 111.08C255.488 109.736 254.592 108.072 254.144 106.088C253.76 104.104 253.568 101.32 253.568 97.736V65.096H246.272V63.176H253.568V51.848C257.024 51.848 260.128 51.528 262.88 50.888C265.696 50.184 268.352 49.096 270.848 47.624V63.176Z" fill="black"/>
</g>
<defs>
<filter id="filter0_b" x="-12.8764" y="-0.232521" width="336.429" height="134.964" filterUnits="userSpaceOnUse" color-interpolation-filters="sRGB">
<feFlood flood-opacity="0" result="BackgroundImageFix"/>
<feGaussianBlur in="BackgroundImage" stdDeviation="14.2754"/>
<feComposite in2="SourceAlpha" operator="in" result="effect1_backgroundBlur"/>
<feBlend mode="normal" in="SourceGraphic" in2="effect1_backgroundBlur" result="shape"/>
</filter>
<filter id="filter1_b" x="-20.8764" y="4.76748" width="336.429" height="134.964" filterUnits="userSpaceOnUse" color-interpolation-filters="sRGB">
<feFlood flood-opacity="0" result="BackgroundImageFix"/>
<feGaussianBlur in="BackgroundImage" stdDeviation="14.2754"/>
<feComposite in2="SourceAlpha" operator="in" result="effect1_backgroundBlur"/>
<feBlend mode="normal" in="SourceGraphic" in2="effect1_backgroundBlur" result="shape"/>
</filter>
<filter id="filter2_b" x="-26.3429" y="9.37685" width="335.246" height="133.71" filterUnits="userSpaceOnUse" color-interpolation-filters="sRGB">
<feFlood flood-opacity="0" result="BackgroundImageFix"/>
<feGaussianBlur in="BackgroundImage" stdDeviation="14.2754"/>
<feComposite in2="SourceAlpha" operator="in" result="effect1_backgroundBlur"/>
<feBlend mode="normal" in="SourceGraphic" in2="effect1_backgroundBlur" result="shape"/>
</filter>
</defs>
</svg>
